<?xml version="1.0" encoding="UTF-8" standalone="no"?>
<!-- Created with Inkscape (http://www.inkscape.org/) -->

<svg
   width="100mm"
   height="100mm"
   viewBox="0 0 100 100"
   version="1.1"
   id="svg5"
   inkscape:version="1.2.1 (9c6d41e4, 2022-07-14)"
   sodipodi:docname="ciao.svg"
   xmlns:inkscape="http://www.inkscape.org/namespaces/inkscape"
   xmlns:sodipodi="http://sodipodi.sourceforge.net/DTD/sodipodi-0.dtd"
   xmlns="http://www.w3.org/2000/svg"
   xmlns:svg="http://www.w3.org/2000/svg">
  <sodipodi:namedview
     id="namedview7"
     pagecolor="#ffffff"
     bordercolor="#000000"
     borderopacity="0.25"
     inkscape:showpageshadow="2"
     inkscape:pageopacity="0.0"
     inkscape:pagecheckerboard="0"
     inkscape:deskcolor="#d1d1d1"
     inkscape:document-units="mm"
     showgrid="false"
     inkscape:zoom="1.2591695"
     inkscape:cx="274.3872"
     inkscape:cy="157.64359"
     inkscape:window-width="1381"
     inkscape:window-height="847"
     inkscape:window-x="59"
     inkscape:window-y="25"
     inkscape:window-maximized="1"
     inkscape:current-layer="layer1" />
  <defs
     id="defs2" />
  <g
     inkscape:label="Livello 1"
     inkscape:groupmode="layer"
     id="layer1">
    <g
       aria-label="CIAO"
       id="text113"
       style="font-weight:900;font-size:28.2222px;font-family:'.SF Compact Rounded';-inkscape-font-specification:'.SF Compact Rounded Heavy';stroke-width:0.264583">
      <path
         d="m 24.39614,35.099128 q 0,3.803383 1.86035,5.953121 1.874131,2.135957 5.1952,2.135957 1.4745,0 2.714733,-0.440972 1.254014,-0.454752 2.177299,-1.322915 0.716579,-0.689019 1.143771,-1.529622 0.427191,-0.854383 0.427191,-1.626083 0,-0.234267 -0.124023,-0.37207 -0.110243,-0.137804 -0.316949,-0.137804 -0.192925,0 -0.316948,0.110243 -0.124023,0.110243 -0.192925,0.344509 -0.179145,1.212673 -0.950846,2.122177 -0.75792,0.909505 -1.929252,1.433159 -1.157551,0.509874 -2.576929,0.509874 -2.866318,0 -4.492401,-1.887911 -1.612304,-1.887911 -1.612304,-5.222761 v -3.569116 q 0,-3.34863 1.570963,-5.222761 1.584742,-1.887911 4.382158,-1.887911 1.378037,0 2.549368,0.537435 1.171332,0.537434 1.943033,1.460719 0.7717,0.909505 0.950845,2.080836 0.05512,0.234267 0.192925,0.35829 0.137804,0.124023 0.303169,0.124023 0.206705,0 0.330729,-0.137803 0.124023,-0.151585 0.124023,-0.399631 0,-0.71658 -0.413411,-1.557182 -0.413411,-0.840603 -1.10243,-1.529621 -0.909504,-0.909505 -2.163518,-1.378037 -1.254014,-0.468533 -2.742294,-0.468533 -3.252168,0 -5.098737,2.149738 -1.83279,2.149738 -1.83279,5.95312 z"
         style="font-weight:100;-inkscape-font-specification:'.SF Compact Rounded Thin'"
         id="path294" />
      <path
         d="m 40.546735,42.885038 q 0.220486,0 0.344509,-0.151584 0.137804,-0.151584 0.137804,-0.38585 V 24.419341 q 0,-0.248047 -0.137804,-0.385851 -0.124023,-0.151584 -0.344509,-0.151584 -0.234266,0 -0.37207,0.151584 -0.124023,0.137804 -0.124023,0.385851 v 17.928263 q 0,0.234266 0.124023,0.38585 0.137804,0.151584 0.37207,0.151584 z"
         style="font-weight:100;-inkscape-font-specification:'.SF Compact Rounded Thin'"
         id="path296" />
      <path
         d="m 42.90318,42.912599 q 0.192925,0 0.316949,-0.110243 0.124023,-0.110243 0.206705,-0.330729 l 2.163519,-6.104705 h 7.909933 l 2.149738,6.104705 q 0.09646,0.220486 0.206705,0.316948 0.124023,0.110243 0.289388,0.110243 0.220486,0 0.35829,-0.124023 0.151584,-0.124023 0.151584,-0.316948 0,-0.165365 -0.0689,-0.34451 l -6.29763,-17.569973 q -0.110243,-0.330729 -0.289388,-0.468533 -0.165364,-0.151584 -0.440972,-0.151584 -0.275607,0 -0.454752,0.151584 -0.179145,0.151584 -0.289388,0.468533 L 42.51733,42.113337 q -0.04134,0.09646 -0.05512,0.179145 -0.01378,0.08268 -0.01378,0.165365 0,0.206705 0.124023,0.330728 0.124024,0.124024 0.330729,0.124024 z m 2.97656,-7.386279 3.638018,-10.362839 h 0.0689 l 3.610457,10.362839 z"
         style="font-weight:100;-inkscape-font-specification:'.SF Compact Rounded Thin'"
         id="path298" />
      <path
         d="m 57.918294,31.571353 q 0,-2.163518 0.74414,-3.748261 0.75792,-1.584742 2.135957,-2.452906 1.378037,-0.881944 3.238388,-0.881944 1.87413,0 3.238387,0.881944 1.364257,0.868164 2.122177,2.452906 0.75792,1.584743 0.75792,3.748261 v 3.651799 q 0,2.149738 -0.75792,3.73448 -0.74414,1.584743 -2.122177,2.452906 -1.364257,0.868164 -3.238387,0.868164 -1.874131,0 -3.252168,-0.868164 -1.364257,-0.868163 -2.122177,-2.452906 -0.74414,-1.584742 -0.74414,-3.73448 z m -1.005967,3.555336 q 0,3.748261 1.901691,5.911779 1.901691,2.149738 5.222761,2.149738 2.218639,0 3.803382,-0.964626 1.598523,-0.978406 2.452906,-2.783635 0.868164,-1.805228 0.868164,-4.313256 v -3.431312 q 0,-2.521808 -0.868164,-4.340817 -0.854383,-1.819009 -2.452906,-2.797416 -1.598523,-0.978406 -3.803382,-0.978406 -2.21864,0 -3.817163,0.978406 -1.584743,0.978407 -2.452906,2.797416 -0.854383,1.805228 -0.854383,4.313256 z"
         style="font-weight:100;-inkscape-font-specification:'.SF Compact Rounded Thin'"
         id="path300" />
    </g>
  </g>
</svg>
