<?xml version="1.0" encoding="UTF-8" standalone="no"?>
<!-- Created with Inkscape (http://www.inkscape.org/) -->

<svg
   width="120mm"
   height="120mm"
   viewBox="0 0 120 120"
   version="1.1"
   id="svg5"
   sodipodi:docname="dino2.svg"
   xml:space="preserve"
   inkscape:version="1.2.1 (9c6d41e4, 2022-07-14)"
   xmlns:inkscape="http://www.inkscape.org/namespaces/inkscape"
   xmlns:sodipodi="http://sodipodi.sourceforge.net/DTD/sodipodi-0.dtd"
   xmlns="http://www.w3.org/2000/svg"
   xmlns:svg="http://www.w3.org/2000/svg"><sodipodi:namedview
     id="namedview7"
     pagecolor="#ffffff"
     bordercolor="#000000"
     borderopacity="0.25"
     inkscape:showpageshadow="2"
     inkscape:pageopacity="0.0"
     inkscape:pagecheckerboard="0"
     inkscape:deskcolor="#d1d1d1"
     inkscape:document-units="mm"
     showgrid="false"
     inkscape:zoom="0.49240719"
     inkscape:cx="-22.339235"
     inkscape:cy="287.3638"
     inkscape:window-width="1381"
     inkscape:window-height="847"
     inkscape:window-x="59"
     inkscape:window-y="25"
     inkscape:window-maximized="1"
     inkscape:current-layer="layer1" /><defs
     id="defs2" /><g
     inkscape:label="Livello 1"
     inkscape:groupmode="layer"
     id="layer1"><path
       style="fill:#000000;stroke-width:0.060298"
       d="m 97.212125,52.779634 c -0.06633,-0.0164 -0.174864,-0.0932 -0.241192,-0.17068 -0.110843,-0.12954 -0.146572,-0.13675 -0.441786,-0.0891 -0.400167,0.0646 -0.919999,-0.0233 -1.246557,-0.21067 l -0.241192,-0.13842 -2.019982,0.0433 c -1.118783,0.024 -2.105432,0.0199 -2.211513,-0.009 -0.139646,-0.0383 -0.201276,-0.0971 -0.227505,-0.2168 -0.0528,-0.24102 0.06503,-0.77384 0.266224,-1.20377 l 0.176329,-0.37681 -0.132355,-0.0273 c -0.07279,-0.015 -0.289987,-0.0379 -0.48265,-0.0508 -0.470004,-0.0315 -0.629209,-0.17662 -0.528498,-0.48178 0.117492,-0.35601 0.760761,-1.27144 1.140445,-1.62296 0.488217,-0.452 1.031779,-0.79842 1.593793,-1.01574 0.344639,-0.13327 0.527612,-0.24653 0.691717,-0.42818 0.12272,-0.13583 0.369122,-0.32937 0.547559,-0.43007 0.380372,-0.21467 0.424486,-0.17157 -0.609101,-0.59504 -0.957463,-0.392276 -1.748687,-0.809994 -2.352878,-1.242173 -0.618031,-0.44208 -1.979425,-1.78779 -2.63893,-2.608526 -0.610239,-0.759427 -0.706557,-0.859496 -0.782249,-0.812716 -0.03195,0.01975 -0.0581,0.100375 -0.0581,0.179168 0,0.07879 -0.03019,0.219647 -0.0671,0.313006 -0.0369,0.09336 -0.07573,0.481787 -0.08629,0.863171 -0.01574,0.568531 0.0082,0.817523 0.132804,1.382413 0.216273,0.980309 0.151335,1.2104 -0.341603,1.2104 -0.426201,0 -1.15024,-0.380184 -1.575872,-0.82747 -0.182312,-0.191587 -0.363016,-0.402609 -0.401564,-0.468936 -0.0985,-0.169485 -0.153723,-0.06299 -0.24307,0.468737 -0.138379,0.823543 -0.381711,0.997849 -0.917857,0.657491 -0.452367,-0.287175 -0.794931,-0.850996 -0.959033,-1.578463 -0.04115,-0.182401 -0.126368,-0.447685 -0.189383,-0.589518 -0.152283,-0.34276 -0.144456,-0.584535 0.02857,-0.882484 0.07873,-0.13557 0.186863,-0.395728 0.2403,-0.578129 0.241302,-0.823661 0.66798,-1.261362 1.645121,-1.687621 0.585784,-0.255537 1.056915,-0.535885 1.030168,-0.613005 -0.01176,-0.0339 -0.801331,-0.723995 -1.07306,-0.937864 -0.07717,-0.06074 -0.159714,-0.0086 -0.49671,0.313807 -0.574522,0.549644 -0.807156,0.593658 -2.238304,0.423487 -0.395557,-0.04703 -0.741516,-0.07172 -0.768799,-0.05486 -0.02728,0.01686 -0.0496,0.134384 -0.0496,0.26116 0,0.155705 -0.09795,0.427242 -0.30186,0.836782 -0.254275,0.51071 -0.320721,0.718566 -0.42152,1.318611 -0.162127,0.965134 -0.16339,0.969296 -0.326407,1.076109 -0.200505,0.131376 -0.383435,0.06853 -0.760408,-0.261236 -0.230496,-0.201632 -0.329235,-0.25673 -0.349755,-0.195169 -0.03838,0.115136 -0.291096,0.36397 -0.36965,0.36397 -0.118689,0 -0.51558,-0.410908 -0.70795,-0.73295 -0.105876,-0.177246 -0.250499,-0.539337 -0.321385,-0.804649 -0.07089,-0.265311 -0.165129,-0.59504 -0.209429,-0.732733 -0.104011,-0.323283 -0.05311,-0.547827 0.322721,-1.423721 0.521708,-1.215858 0.776925,-1.479946 1.507363,-1.559754 0.274544,-0.03 0.562376,-0.119918 0.914309,-0.285638 0.573895,-0.270237 1.206796,-0.45266 1.836968,-0.529475 l 0.42106,-0.05132 0.192087,-0.361788 c 0.105649,-0.198983 0.194296,-0.413008 0.196995,-0.475611 0.0045,-0.103494 -0.02656,-0.110062 -0.341807,-0.07238 -1.648846,0.197087 -3.698719,0.223115 -5.049955,0.06412 -0.464294,-0.05463 -1.278317,-0.10378 -1.808939,-0.10922 l -0.964767,-0.0099 -0.90447,0.352928 c -1.816861,0.708948 -3.762244,1.163725 -5.245923,1.226354 -1.317841,0.05563 -2.073276,-0.148583 -3.810722,-1.030122 -1.72027,-0.872824 -2.754484,-1.63142 -4.092691,-3.001991 C 59.613016,31.653716 59.563185,31.58909 59.213348,30.897188 59.013099,30.501139 58.819555,30.054558 58.78325,29.904785 58.74694,29.755012 58.6621,29.103794 58.594705,28.457633 58.402486,26.614694 58.386493,26.563775 57.893317,26.224461 57.535508,25.978282 57.485385,25.866038 57.53333,25.41833 l 0.03983,-0.371898 -0.300857,-0.194949 c -0.659577,-0.427391 -1.174848,-1.210376 -1.18039,-1.79367 -0.0025,-0.263749 0.02889,-0.358221 0.191996,-0.57768 0.107246,-0.144301 0.319176,-0.440912 0.470957,-0.659137 L 57.03083,21.423914 56.880316,20.82577 c -0.227947,-0.90587 -0.286345,-1.48658 -0.289803,-2.881811 -0.0033,-1.341665 0.06271,-1.958539 0.248453,-2.320853 0.277749,-0.541794 1.103451,-1.657608 1.629146,-2.201549 1.327548,-1.373626 3.275022,-2.732019 4.344029,-3.030028 0.508437,-0.141737 2.154009,-0.204343 3.413882,-0.129881 1.025137,0.06059 1.10668,0.05752 1.324116,-0.04976 0.199153,-0.09826 0.242234,-0.156681 0.306637,-0.4158121 0.10264,-0.412985 0.507246,-1.195103 0.832697,-1.609635 0.546786,-0.696448 1.865924,-1.493812 2.553619,-1.543555 0.424758,-0.03072 1.162855,0.199447 2.012416,0.627561 l 0.561012,0.282707 0.512533,-0.0763 c 0.281893,-0.04196 0.819096,-0.110926 1.193784,-0.153253 0.669321,-0.07561 0.687272,-0.08168 1.025065,-0.346472 1.090056,-0.854483 2.129861,-0.897257 4.164593,-0.171316 0.352699,0.125834 0.751445,0.285014 0.886102,0.353733 0.134657,0.06872 0.686522,0.224273 1.226366,0.345676 1.137978,0.255915 1.388249,0.336581 2.206979,0.711339 0.331638,0.151802 0.806485,0.348801 1.055214,0.437775 0.248729,0.08897 0.574338,0.223362 0.723576,0.298641 0.455307,0.229666 1.524926,0.964749 1.748641,1.2017341 0.117662,0.124641 0.428299,0.327604 0.702045,0.458701 0.356692,0.170819 0.624974,0.361171 0.980761,0.695871 0.548019,0.515536 1.172135,1.393565 1.237237,1.740588 0.07789,0.415163 -0.09872,0.366207 -0.418862,-0.116113 -0.397473,-0.598817 -1.490189,-1.397692 -2.169543,-1.58613 -0.327124,-0.09074 -0.41667,-0.155538 -0.934618,-0.676345 -0.687491,-0.6912851 -1.080187,-0.9396701 -2.095161,-1.3252151 -0.422946,-0.160659 -0.986065,-0.388281 -1.251376,-0.505826 -0.472319,-0.209261 -1.802421,-0.604042 -1.912038,-0.567502 -0.03049,0.01016 0.03619,0.139999 0.148191,0.288522 0.732609,0.971534 1.301101,2.3282941 1.24062,2.9608601 -0.03309,0.34614 -0.170913,0.234262 -0.417845,-0.339198 -0.51795,-1.2028561 -1.6494,-2.5599011 -2.502752,-3.0017651 -0.746592,-0.386585 -2.284471,-0.70948 -2.984321,-0.626593 -0.457035,0.05413 -1.005244,0.359763 -1.622306,0.904461 -1.502695,1.326468 -2.172164,1.7823071 -3.171238,2.1592881 -0.755781,0.285179 -1.109245,0.355897 -1.109245,0.221928 0,-0.04797 0.09152,-0.130858 0.203366,-0.184196 0.195036,-0.09301 1.714226,-1.2211301 2.028474,-1.5063091 0.211914,-0.19231 0.843356,-0.942811 0.843356,-1.00237 0,-0.07463 -0.729302,0.03889 -1.284943,0.200009 -0.271616,0.07876 -0.91158,0.308049 -1.422143,0.509531 -0.510563,0.201483 -0.954097,0.366332 -0.985629,0.366332 -0.03153,0 -0.746149,0.257774 -1.588035,0.572831 -0.841885,0.3150571 -1.558334,0.5728301 -1.592109,0.5728301 -0.03377,0 -0.06141,0.02137 -0.06141,0.0475 0,0.05592 0.981791,0.336491 1.832735,0.52375 0.274504,0.06041 0.102214,0.161015 -0.334798,0.195504 -0.210334,0.0166 -1.142179,-0.01389 -2.070768,-0.06775 -1.358992,-0.07883 -1.941237,-0.08604 -2.984749,-0.03697 -1.662759,0.07819 -1.745995,0.09174 -2.321472,0.378168 -1.460054,0.72669 -3.838709,2.864871 -4.630562,4.162427 -0.417954,0.684873 -0.49505,1.054846 -0.492777,2.364769 0.0023,1.297741 0.07662,2.747431 0.146759,2.860921 0.03422,0.05537 0.07854,0.05908 0.163398,0.01366 0.157811,-0.08446 0.283926,0.0022 0.233654,0.160641 -0.02197,0.06921 -0.241942,0.54715 -0.488836,1.062095 -0.449169,0.936826 -0.508497,1.159643 -0.37139,1.394814 0.170726,0.292838 0.575754,0.673199 1.014586,0.952796 0.154511,0.09845 0.163026,0.09573 0.452234,-0.144176 0.162117,-0.134481 0.588704,-0.395183 0.947971,-0.579339 0.359267,-0.184156 0.636024,-0.352018 0.615016,-0.373026 -0.02101,-0.02101 -0.224116,-0.03061 -0.451351,-0.02133 -0.735133,0.03001 -0.555086,-0.224663 0.274874,-0.388806 0.768563,-0.152002 1.94678,-0.0372 3.490894,0.340138 0.768289,0.187749 2.848739,0.968409 4.371602,1.640383 2.369689,1.045641 2.860102,1.192764 3.46338,1.039013 0.464247,-0.118318 0.804747,-0.350869 1.631798,-1.114471 0.754897,-0.696982 1.525444,-1.31794 1.898094,-1.529609 l 0.254077,-0.144319 -0.35251,-0.117503 c -0.208631,-0.06954 -0.352509,-0.152368 -0.352509,-0.202925 0,-0.152492 0.386359,-0.238649 0.904469,-0.201695 0.940053,0.06705 1.944261,0.379406 3.786469,1.177772 1.209253,0.524061 1.460332,0.596695 2.062636,0.596695 0.572217,0 0.9386,-0.107586 1.255249,-0.368595 0.338187,-0.278763 1.163143,-1.568891 1.865651,-2.917645 0.345473,-0.663277 0.768166,-1.425538 0.939316,-1.693912 0.171151,-0.268373 0.311184,-0.52971 0.311184,-0.580748 0,-0.205376 -0.805301,-0.671607 -1.281331,-0.741829 -0.220933,-0.03259 -0.286416,-0.06726 -0.286416,-0.151662 0,-0.230308 1.253771,-0.235945 1.769181,-0.008 0.382839,0.169348 0.734791,0.513027 0.927042,0.905252 0.151159,0.308389 0.167109,0.402404 0.165321,0.974448 -0.0019,0.62241 -0.11085,1.212015 -0.204677,1.108108 -0.02627,-0.02909 -0.08118,-0.228854 -0.122026,-0.443916 -0.04085,-0.215062 -0.152906,-0.564462 -0.249023,-0.776444 -0.200825,-0.442911 -0.268725,-0.437202 -0.44886,0.03774 -0.114617,0.302193 -0.625742,1.4761 -1.119293,2.57069 -0.59008,1.308675 -1.324427,2.174767 -2.218309,2.616285 -0.451182,0.222855 -0.456754,0.223877 -1.179757,0.216477 -0.526187,-0.0054 -0.848076,-0.04118 -1.167717,-0.129859 -0.314113,-0.08714 -0.447593,-0.102378 -0.46318,-0.05286 -0.01205,0.03826 -0.06677,0.230947 -0.121624,0.428197 -0.103277,0.371408 -0.379713,0.965601 -0.583552,1.254335 -0.265418,0.375958 -0.754692,0.09211 -1.007126,-0.584285 -0.07352,-0.196909 -0.22814,-0.753158 -0.3436,-1.236025 L 77.3393,23.905839 76.814016,23.681671 c -0.752577,-0.321166 -0.784773,-0.324472 -1.075475,-0.110408 -0.246202,0.181296 -0.250924,0.192065 -0.470416,1.072877 -0.445611,1.788219 -0.737371,2.573099 -1.027039,2.762897 -0.288314,0.188911 -0.469143,0.03112 -0.982358,-0.857185 l -0.352951,-0.610914 -0.443142,0.384412 c -0.648175,0.562272 -0.879269,0.660367 -1.521475,0.645832 l -0.523734,-0.01185 -0.374406,0.609263 c -0.409723,0.666735 -0.72193,1.046396 -0.909419,1.105902 -0.170009,0.05396 -0.36667,-0.149257 -0.558839,-0.577468 -0.202548,-0.451337 -0.393122,-1.310447 -0.394803,-1.779783 l -0.0013,-0.364301 -0.332974,-0.163306 c -0.390858,-0.191694 -0.450343,-0.19929 -0.45253,-0.05778 -0.0024,0.157118 -0.32443,0.88346 -0.541878,1.222324 -0.199496,0.310887 -0.501169,0.541392 -0.708545,0.541392 -0.06727,0 -0.205482,-0.09473 -0.30714,-0.210514 -0.214554,-0.244363 -0.557808,-1.257333 -0.712413,-2.10239 -0.09267,-0.506541 -0.107844,-0.538882 -0.28812,-0.614207 -0.104663,-0.04373 -0.269357,-0.08816 -0.365987,-0.09872 -0.172924,-0.01891 -0.177227,-0.01209 -0.27322,0.433021 -0.123625,0.573248 -0.458678,1.519397 -0.625948,1.76761 -0.188175,0.279232 -0.375129,0.356697 -0.591199,0.244962 -0.361454,-0.18692 -0.692469,-0.90142 -1.097991,-2.370022 -0.285061,-1.032353 -0.336157,-1.103031 -0.692348,-0.957689 l -0.197787,0.08071 -0.01182,0.963927 c -0.0089,0.728965 -0.03871,1.055694 -0.122126,1.340403 -0.116039,0.396048 -0.335234,0.678737 -0.526285,0.678737 -0.255166,0 -1.065757,-0.961228 -1.312086,-1.555918 l -0.07789,-0.18805 -0.347852,0.175595 c -0.310616,0.156799 -0.423326,0.268838 -0.423326,0.420808 0,0.02669 0.173379,0.221194 0.385287,0.432228 0.30584,0.304578 0.40531,0.451232 0.482384,0.711207 0.0534,0.18013 0.09804,0.397202 0.0992,0.482384 0.0012,0.08518 0.04233,0.371948 0.0915,0.637259 0.04917,0.265311 0.156311,0.87445 0.238099,1.353643 0.113773,0.666592 0.198789,0.976722 0.361913,1.320214 0.479664,1.010038 0.880084,1.464751 2.300354,2.612265 1.212103,0.979324 2.597249,1.793 3.548363,2.084415 2.484041,0.761094 4.058808,0.512556 9.46678,-1.494095 1.457702,-0.540887 3.10616,-1.082754 3.293933,-1.082754 0.06601,0 0.104383,0.0253 0.08527,0.05622 -0.01911,0.03092 -0.434507,0.302284 -0.923103,0.603027 -0.488595,0.300743 -0.969411,0.61177 -1.068478,0.691172 l -0.180122,0.144367 0.421314,0.04043 c 0.231723,0.02224 0.787624,0.08093 1.235337,0.130434 1.238405,0.136925 2.63572,0.122317 3.615235,-0.0378 0.943794,-0.154273 1.611182,-0.349402 2.691905,-0.787055 1.144384,-0.463432 1.642064,-0.726733 2.640481,-1.396963 1.250976,-0.839769 1.569584,-0.955968 1.079522,-0.393707 -0.758859,0.870656 -2.451629,2.160239 -3.241043,2.469084 -0.515462,0.201666 -0.285213,0.261874 0.656307,0.171617 0.69332,-0.06646 1.140066,-0.206172 2.198999,-0.68768 0.411101,-0.186932 0.774833,-0.339876 0.808294,-0.339876 0.09858,0 -0.134583,0.230499 -0.674211,0.666506 -1.052382,0.8503 -2.38678,1.319352 -3.564146,1.252824 -0.520859,-0.02943 -0.527306,-0.0031 -0.149361,0.609901 0.517695,0.839675 1.647518,2.172123 2.152768,2.538849 0.224128,0.162679 0.226668,0.163009 0.501306,0.06515 0.310205,-0.110529 0.304839,-0.05229 0.07295,-0.791781 -0.078,-0.248729 -0.229085,-0.586969 -0.335751,-0.751643 -0.106666,-0.164674 -0.220581,-0.395314 -0.253146,-0.512533 -0.118534,-0.426669 -0.04047,-1.038125 0.111827,-0.875898 0.03087,0.03289 0.100875,0.216776 0.15556,0.408642 0.05469,0.191866 0.122393,0.334653 0.150463,0.317306 0.02807,-0.01735 0.07,-0.157996 0.09318,-0.312551 0.04948,-0.329955 0.326903,-0.926433 0.430887,-0.926433 0.05379,0 0.06403,0.180646 0.04015,0.708501 -0.0357,0.789188 0.03585,1.382134 0.240746,1.995063 l 0.134312,0.401781 0.30149,0.03552 c 0.599577,0.07063 0.664802,0.205533 0.161635,0.334303 -0.440026,0.112611 -0.62318,0.214477 -1.277147,0.710316 -0.78031,0.591633 -0.934019,0.677697 -1.561996,0.874577 -0.880136,0.275938 -1.306873,0.608891 -1.534256,1.197077 -0.127328,0.329366 -0.125173,0.375642 0.0175,0.375642 0.199473,0 0.194092,0.105438 -0.009,0.176234 -0.27027,0.09422 -0.469826,0.299133 -0.469859,0.48248 -2.7e-5,0.148877 0.01433,0.155308 0.346713,0.155308 0.190708,0 0.473428,0.02168 0.628267,0.04819 l 0.281525,0.04818 0.07215,-0.349675 c 0.09168,-0.444318 0.291145,-0.982803 0.364044,-0.982803 0.03078,0 0.05815,0.278125 0.06082,0.618054 0.0027,0.33993 0.03659,0.740158 0.07537,0.889395 l 0.07052,0.271341 0.512532,-0.003 c 0.537925,-0.0031 1.072989,-0.138274 1.212331,-0.30617 0.07488,-0.09022 0.06139,-0.198063 -0.107702,-0.861442 -0.02995,-0.117516 -0.01814,-0.138269 0.06135,-0.107767 0.196077,0.07524 0.295861,-0.415945 0.158103,-0.778273 -0.08849,-0.232751 -0.01841,-0.279143 0.76128,-0.503971 0.367596,-0.105997 0.856009,-0.293316 1.085364,-0.416264 0.72638,-0.389384 0.809685,-0.739817 0.539761,-2.270563 -0.211248,-1.197989 -0.501977,-2.115085 -0.881138,-2.779523 -0.486555,-0.852635 0.19236,-0.387097 0.7991,0.547949 0.672773,1.036812 0.97324,2.017175 0.980099,3.197865 0.0046,0.799944 -0.06644,1.131722 -0.302642,1.412428 -0.169787,0.20178 -0.998526,0.641454 -1.324254,0.702561 -0.115099,0.02159 -0.2235,0.06228 -0.24089,0.09042 -0.04823,0.07804 0.602257,0.932528 1.114285,1.463746 1.220885,1.26664 2.459045,2.049687 4.285184,2.71007 1.208837,0.437151 3.090118,0.892923 3.206918,0.776923 0.0227,-0.0225 0.105822,-0.219464 0.184711,-0.437603 l 0.143436,-0.396615 -0.674974,-0.160918 c -1.640806,-0.391176 -2.920351,-0.921907 -3.689379,-1.530283 -0.36359,-0.287634 -0.47673,-0.42256 -0.670841,-0.800015 -0.799448,-1.554542 -1.098335,-3.787045 -0.753266,-5.626421 0.210235,-1.120648 0.900753,-2.70064 1.564968,-3.580842 1.785431,-2.366015 3.901592,-3.981125 5.639553,-4.304256 0.500277,-0.09301 1.467876,-0.09112 1.874306,0.0037 0.17594,0.04104 0.55362,0.194182 0.8393,0.340326 0.84579,0.432676 2.18479,1.734937 2.54391,2.474113 0.0688,0.141583 0.11047,0.272014 0.0926,0.289846 -0.0178,0.01783 -0.27394,-0.20719 -0.56913,-0.500049 -0.96126,-0.953679 -1.82112,-1.575084 -2.53544,-1.832323 -0.995646,-0.358545 -2.660062,-0.101038 -3.689151,0.570759 -0.860063,0.561455 -1.425903,1.029362 -2.308426,1.908893 -1.663229,1.657591 -2.540755,3.229625 -2.777289,4.975346 -0.101484,0.748996 -0.03094,2.670827 0.118587,3.230704 0.14383,0.538543 0.645536,1.900637 0.771244,2.093871 0.360491,0.554137 3.094423,1.625331 4.818733,1.888051 0.597124,0.09098 2.03446,0.07798 2.818942,-0.0255 0.5919,-0.07808 0.70217,-0.05278 0.45223,0.10374 -0.42817,0.268136 -1.469757,0.46004 -2.668107,0.49158 l -0.723491,0.01904 -0.07876,0.472398 c -0.146103,0.876328 -0.308803,1.005818 -1.42834,1.136778 -1.07851,0.12616 -1.862948,0.35021 -2.15666,0.61597 -0.09897,0.0896 -0.09935,0.10328 -0.0057,0.20674 0.127491,0.14087 0.245821,0.13951 0.58706,-0.007 0.506929,-0.2173 0.959215,-0.26382 1.757421,-0.18076 0.66966,0.0697 0.743056,0.067 0.95688,-0.0344 0.250197,-0.11873 0.614811,-0.54373 1.018606,-1.18731 0.139602,-0.2225 0.277192,-0.405658 0.305756,-0.407011 0.02856,-0.0014 0.03404,0.09929 0.01218,0.223651 -0.0574,0.32649 -0.455592,1.51513 -0.521131,1.55563 -0.08851,0.0547 -0.06422,0.36699 0.03493,0.44928 0.09795,0.0813 0.127762,0.54268 0.03507,0.54268 -0.03046,0 -0.114074,-0.095 -0.185812,-0.21104 -0.147567,-0.23877 -0.129104,-0.23381 -0.541329,-0.1454 l -0.306074,0.0656 0.115707,0.19062 c 0.146401,0.2412 0.206533,0.52192 0.15542,0.72557 -0.0583,0.23231 -0.125507,0.19492 -0.233374,-0.12984 -0.122616,-0.36916 -0.390703,-0.6929 -0.747462,-0.90262 -0.240835,-0.14157 -0.347958,-0.16555 -0.734211,-0.16431 -0.455547,0.001 -1.173665,0.1151 -1.327318,0.21007 -0.06231,0.0385 0.0542,0.18951 0.469162,0.60804 0.845341,0.85261 1.184599,1.60116 1.177582,2.59826 l -0.0037,0.52351 0.232756,0.0393 c 0.349938,0.0591 0.575064,-0.0107 0.646695,-0.20046 0.03369,-0.0893 0.109251,-0.29486 0.167905,-0.45686 0.236163,-0.65226 0.812642,-1.35639 1.438016,-1.75643 0.218549,-0.13981 0.375736,-0.29607 0.455912,-0.45322 0.08651,-0.16958 0.219128,-0.29447 0.452638,-0.42625 0.181651,-0.10252 0.381444,-0.25843 0.443985,-0.34647 0.266828,-0.37562 0.583158,-1.35743 0.795138,-2.467933 0.14886,-0.779847 0.26697,-0.453947 0.22107,0.609983 -0.0194,0.4484 -0.0693,0.83558 -0.12853,0.99696 -0.0533,0.14512 -0.0969,0.27401 -0.0969,0.28642 0,0.0124 0.21224,0.0226 0.47164,0.0226 0.49659,0 0.90187,0.1049 1.1555,0.29911 0.21747,0.1665 0.12818,0.19697 -0.24511,0.0836 -0.45899,-0.13935 -1.19564,-0.13079 -1.44839,0.0168 -0.27424,0.16015 -0.29152,0.26356 -0.0442,0.26428 0.11055,3e-4 0.35023,0.0738 0.53264,0.16335 l 0.33163,0.16276 -0.54268,0.0347 c -0.51507,0.033 -0.87224,0.13902 -0.915,0.2717 -0.0107,0.0332 0.15011,0.10977 0.35734,0.17023 0.72616,0.2119 1.24459,0.66033 1.57217,1.35992 0.15809,0.33762 0.19074,0.48796 0.21114,0.97221 0.0133,0.31506 0.0538,0.6095 0.0901,0.65432 0.17294,0.21378 1.17537,-0.1368 1.64832,-0.57646 0.35684,-0.33172 0.40473,-0.65844 0.40913,-2.79127 l 0.004,-1.71849 0.25609,-0.72695 c 0.34961,-0.992451 0.42318,-1.541325 0.29281,-2.18471 -0.14318,-0.706634 -0.28394,-0.989161 -0.6817,-1.368326 -0.19202,-0.183045 -0.36935,-0.332809 -0.39406,-0.332809 -0.0247,0 -0.17405,0.099 -0.33187,0.220001 -0.33067,0.253534 -0.76059,0.463061 -0.78817,0.384128 -0.0104,-0.02967 0.28429,-0.41516 0.65478,-0.856644 1.14945,-1.3697 1.75459,-2.359159 2.09507,-3.42566 0.25252,-0.790968 0.33952,-1.454226 0.29216,-2.227139 -0.0478,-0.77951 -0.0989,-1.005014 -0.4067,-1.792173 -0.13281,-0.339683 -0.29279,-0.797048 -0.35551,-1.016367 -0.10463,-0.365857 -0.10572,-0.397161 -0.0133,-0.379362 0.10242,0.01972 0.74269,1.072997 1.01916,1.676567 0.21514,0.469667 0.44063,1.612369 0.44025,2.231024 -4.8e-4,0.771126 -0.18374,1.548557 -0.53569,2.272452 -0.35361,0.727301 -0.81874,1.435172 -1.22797,1.868843 l -0.29477,0.312373 0.33737,0.409012 c 0.18556,0.224956 0.45987,0.659149 0.60958,0.964873 l 0.2722,0.555862 0.49565,-0.306185 c 1.12031,-0.692071 1.74205,-1.19971 2.93771,-2.39861 1.62414,-1.628531 2.67961,-3.134246 4.25806,-6.074441 0.12878,-0.239874 0.25806,-0.436597 0.2873,-0.43716 0.28481,-0.0055 -1.34115,3.702347 -2.22066,5.064006 -0.13924,0.215565 -0.48727,0.680643 -0.7734,1.033507 -0.49865,0.614944 -0.51563,0.645738 -0.40925,0.742016 0.21844,0.197685 0.49724,0.815213 0.52971,1.173271 0.0612,0.675357 -0.33197,1.537708 -1.28791,2.824533 -0.59447,0.800248 -1.07795,1.700418 -1.49426,2.782138 -0.3752,0.97488 -0.99169,1.74498 -1.6547,2.06699 -0.15366,0.0746 -0.43253,0.13976 -0.6717,0.15687 l -0.40895,0.0293 -0.0361,0.21849 c -0.0199,0.12017 -0.0364,0.30176 -0.0368,0.40352 -10e-4,0.35216 -0.1747,0.78948 -0.39982,1.00814 -0.28112,0.27305 -1.28846,0.79524 -1.69917,0.88083 -0.49495,0.10314 -1.11578,0.0824 -1.49203,-0.0498 -0.27532,-0.0968 -0.3947,-0.10733 -0.707,-0.0625 -0.20666,0.0296 -0.918425,0.0859 -1.581702,0.12502 -1.768134,0.1043 -1.857922,0.10769 -1.989833,0.0752 z m 2.954605,-0.71166 c 0.46429,-0.0156 0.90645,-0.0464 0.98257,-0.0686 0.19301,-0.0562 0.37413,-0.44081 0.37413,-0.79445 0,-0.379 -0.23669,-0.85865 -0.60646,-1.22899 -0.38925,-0.38985 -0.61792,-0.49849 -1.051735,-0.49968 -0.886,-0.002 -1.812693,0.88247 -2.264625,2.16251 -0.114138,0.32328 -0.10125,0.43662 0.05381,0.47321 0.100384,0.0237 0.924341,0.009 2.51231,-0.044 z m -6.36144,-0.51391 c 0.779351,-0.0354 1.448108,-0.0754 1.486126,-0.089 0.03802,-0.0136 0.08734,-0.15708 0.109598,-0.31894 0.0335,-0.24358 0.0036,-0.40794 -0.173358,-0.95398 -0.306779,-0.94645 -0.832214,-1.65425 -1.228496,-1.65488 -0.219911,-3.6e-4 -1.078987,0.58793 -1.43817,0.98483 -0.514328,0.56834 -1.274614,1.88196 -1.2007,2.07458 0.02913,0.0759 0.120772,0.0857 0.531596,0.0567 0.273021,-0.0193 1.134053,-0.064 1.913404,-0.0993 z m -1.9078,-2.29915 c 0.301754,-0.30368 0.774106,-0.69453 1.085364,-0.8981 0.793031,-0.51866 0.787126,-0.51392 0.738366,-0.59281 -0.02429,-0.0393 -0.125603,-0.11358 -0.225126,-0.16505 -0.163884,-0.0847 -0.208175,-0.0845 -0.469531,0.002 -0.60648,0.20144 -1.759866,1.10358 -2.148243,1.68029 -0.324732,0.4822 -0.276703,0.60463 0.213561,0.5444 0.244557,-0.03 0.32408,-0.0864 0.805609,-0.57101 z m 13.80425,-0.0149 c 0.42484,-0.17751 0.79209,-0.69863 1.46263,-2.07543 0.76438,-1.569489 1.32426,-2.528748 1.97433,-3.382653 0.53618,-0.704323 0.63895,-0.92044 0.64291,-1.351981 0.003,-0.311603 -0.18608,-0.766397 -0.31839,-0.766397 -0.0426,0 -0.1709,0.09802 -0.28519,0.217823 -0.55183,0.578451 -2.06255,1.819532 -2.92961,2.406705 -0.47526,0.321852 -0.49206,0.341383 -0.53127,0.617633 -0.0382,0.269035 -0.24371,1.11499 -0.51477,2.11886 -0.10005,0.37055 -0.11082,0.50938 -0.0631,0.81402 0.0316,0.20201 0.061,0.57079 0.0653,0.81952 0.004,0.24873 0.0208,0.49972 0.0367,0.55776 0.0345,0.12636 0.19571,0.1348 0.46056,0.0241 z M 87.102395,44.535296 c 0.01979,-0.103735 -0.237066,-0.955518 -0.360407,-1.195198 -0.04752,-0.09234 -0.07274,-0.09388 -0.259503,-0.01585 -0.113777,0.04754 -0.39851,0.104246 -0.63274,0.126016 -0.23423,0.02177 -0.425873,0.06132 -0.425873,0.08788 0,0.02656 0.142454,0.188704 0.316565,0.360307 0.675247,0.665525 1.300707,0.957986 1.361958,0.636842 z m -2.693484,-0.35512 c 0.02214,-0.223518 0.06962,-0.543349 0.105521,-0.710735 0.0359,-0.167386 0.06527,-0.341599 0.06527,-0.387141 0,-0.106707 -0.286924,-0.192552 -0.800149,-0.239395 -0.493105,-0.04501 -0.520267,-0.0096 -0.375338,0.488917 0.134488,0.462623 0.290741,0.758726 0.554349,1.050508 0.307137,0.339965 0.400817,0.297913 0.450347,-0.202154 z m -4.463582,-2.66798 c 0.02231,-0.132298 0.05985,-0.464441 0.08343,-0.738095 l 0.04287,-0.497552 -0.203708,-0.08511 c -0.11204,-0.04681 -0.339109,-0.08988 -0.504598,-0.09571 -0.534458,-0.01882 -0.531044,-0.02006 -0.491292,0.178699 0.05127,0.256334 0.428726,0.998487 0.649786,1.277599 0.235077,0.296809 0.368873,0.284227 0.423508,-0.03983 z m -1.296721,-0.07108 c 0.02239,-0.0892 0.007,-0.272352 -0.03428,-0.407012 -0.04124,-0.134659 -0.119528,-0.442813 -0.173967,-0.684787 l -0.09898,-0.439952 -0.242451,0.01787 -0.24245,0.01787 0.01196,0.261759 c 0.01726,0.377804 0.516517,1.396435 0.684422,1.396435 0.03027,0 0.07336,-0.07298 0.09575,-0.162176 z m 1.799895,-1.86109 c 0.09504,-0.188725 0.12437,-0.390609 0.141871,-0.976558 0.01329,-0.445099 0.04639,-0.73865 0.08327,-0.73865 0.03367,0 0.153924,0.0814 0.267238,0.180894 l 0.206027,0.180894 0.917446,-0.0013 c 0.761279,-0.0011 0.958501,-0.02021 1.158638,-0.112257 0.225475,-0.103705 0.814022,-0.640535 0.814022,-0.742494 0,-0.02527 -0.108862,-0.188952 -0.241916,-0.363735 -0.133055,-0.174783 -0.342805,-0.512791 -0.466112,-0.751128 -0.23471,-0.453665 -0.314442,-0.470735 -0.316114,-0.06768 -4.82e-4,0.122407 -0.0272,0.238797 -0.05931,0.258644 -0.03211,0.01985 -0.47304,0.101009 -0.979841,0.180362 -0.707139,0.110721 -1.092708,0.20834 -1.657746,0.419709 -0.438534,0.164049 -0.837193,0.275433 -0.985804,0.275433 -0.376271,0 -0.610349,0.141546 -0.828018,0.500699 -0.249586,0.411815 -0.631601,1.360289 -0.590753,1.466736 0.01745,0.04548 0.101092,0.0827 0.185864,0.0827 0.112966,0 0.170628,-0.04428 0.215907,-0.165819 0.186664,-0.501032 0.780822,-1.427837 0.826846,-1.289766 0.01292,0.03877 -0.07387,0.379623 -0.192865,0.757457 -0.118998,0.377833 -0.21636,0.726863 -0.21636,0.77562 0,0.0694 0.115779,0.09419 0.533017,0.114134 0.414898,0.01984 0.578586,0.05464 0.73865,0.157042 0.113098,0.07236 0.232767,0.123782 0.265931,0.114279 0.03316,-0.0095 0.114213,-0.124338 0.180107,-0.255188 z M 69.37344,27.792549 c 0.172051,-0.217857 0.553855,-0.847198 0.553855,-0.912938 0,-0.05216 -1.163997,-0.6523 -1.265162,-0.6523 -0.09553,0 -0.07289,0.295165 0.0622,0.810946 0.141568,0.540494 0.327364,0.939219 0.435386,0.934358 0.04078,-0.0018 0.136955,-0.08286 0.213719,-0.180066 z m -2.63906,-1.642944 c 0.164237,-0.328069 0.298613,-0.632785 0.298613,-0.677145 0,-0.04436 -0.156021,-0.139924 -0.346714,-0.212362 -0.617193,-0.234454 -1.160735,-0.413218 -1.160735,-0.381752 0,0.170836 0.350348,1.349446 0.495353,1.666423 0.179824,0.39309 0.190746,0.404154 0.300735,0.304615 0.06277,-0.05681 0.248511,-0.37171 0.412748,-0.699779 z m 7.437732,0.424419 c 0.08031,-0.125181 0.759914,-2.275498 0.759914,-2.404415 0,-0.112318 -0.224795,0.06612 -0.921628,0.731554 l -0.703455,0.671762 0.216033,0.432714 c 0.210883,0.422397 0.41639,0.704055 0.513702,0.704055 0.02662,0 0.08756,-0.06105 0.135434,-0.13567 z M 63.499417,25.632741 c 0.113646,-0.352847 0.240454,-0.815119 0.281796,-1.027272 0.06582,-0.337758 0.06342,-0.394326 -0.01933,-0.454829 -0.10093,-0.0738 -1.54674,-0.421637 -1.586656,-0.38172 -0.08573,0.08572 0.614601,2.139172 0.855229,2.507649 0.139958,0.214318 0.234262,0.08485 0.468957,-0.643828 z m -3.071454,0.368452 c 0.06121,-0.15889 0.162772,-1.458582 0.141577,-1.811722 l -0.01858,-0.309556 -0.542681,0.334259 c -0.298475,0.183843 -0.566455,0.35726 -0.595511,0.38537 -0.05815,0.05626 0.504569,1.152473 0.704027,1.3715 0.148237,0.162782 0.256051,0.173228 0.311167,0.03015 z m 18.417413,-0.244344 c 0.169032,-0.334852 0.401575,-1.025668 0.35831,-1.064437 -0.01136,-0.01018 -0.291994,-0.132535 -0.623633,-0.271902 -0.331639,-0.139367 -0.633668,-0.266361 -0.671176,-0.282209 -0.03809,-0.01609 0.01751,0.25896 0.125948,0.623086 0.197108,0.661856 0.493949,1.345328 0.584294,1.345328 0.0273,0 0.12912,-0.15744 0.226257,-0.349866 z M 69.574898,9.2549969 c 0.575203,-0.281032 1.477877,-0.685099 2.005941,-0.897926 l 0.960118,-0.386957 -0.236542,-0.118851 c -0.452301,-0.227261 -1.007105,-0.386882 -1.211455,-0.348546 -0.438265,0.08222 -1.186852,0.497054 -1.646792,0.912583 -0.331478,0.299471 -1.062802,1.350666 -0.939667,1.350666 0.01241,0 0.493193,-0.229936 1.068397,-0.510969 z M 103.59223,49.200034 c -0.0932,-0.17336 -0.29844,-0.46556 -0.45614,-0.64933 -0.1577,-0.18376 -0.27565,-0.34519 -0.26211,-0.35873 0.0135,-0.0135 0.13719,0.0328 0.27477,0.103 0.29225,0.1491 0.57705,0.5578 0.63734,0.91462 0.0592,0.35071 -0.002,0.34769 -0.19386,-0.01 z m -3.8663,-1.98779 c -0.176109,-0.0935 -0.372831,-0.18373 -0.43716,-0.20056 -0.183526,-0.048 -0.136786,-0.16247 0.06633,-0.16247 0.213904,0 0.65196,0.2081 0.69965,0.33237 0.071,0.18494 -0.0219,0.1936 -0.328825,0.0307 z m 3.18436,-0.25157 c -0.33499,-0.12951 -0.82899,-0.13814 -1.26505,-0.0221 -0.4993,0.13287 -0.59823,-0.0797 -0.14242,-0.30598 0.30674,-0.1523 1.0551,-0.15738 1.31702,-0.009 0.29105,0.16495 0.40393,0.27109 0.38216,0.35934 -0.0167,0.0676 -0.0695,0.0636 -0.29171,-0.0223 z m -3.52728,-0.89508 c -0.06468,-0.10466 0.238061,-0.20312 0.384151,-0.12493 0.07052,0.0377 0.128223,0.0948 0.128223,0.1268 0,0.077 -0.464676,0.0753 -0.512374,-0.002 z m 2.95445,-0.32579 -0.42209,-0.06805 0.14909,-0.104695 c 0.26705,-0.187537 0.7695,-0.0891 0.86902,0.170266 0.0382,0.0996 0.007,0.0998 -0.59602,0.003 z m -8.01737,-4.034142 c -0.152454,-0.232673 -0.179563,-0.505102 -0.06731,-0.676418 0.132747,-0.202597 0.20898,-0.143491 0.204808,0.158793 -0.0022,0.159827 0.04124,0.305957 0.124393,0.418431 0.161994,0.219111 0.160281,0.238016 -0.02157,0.238016 -0.08935,0 -0.185897,-0.05577 -0.240314,-0.138822 z m -0.153012,-1.329133 c 0,-0.130022 -0.04581,-0.242517 -0.128919,-0.316564 -0.195019,-0.173764 -0.293167,-0.463419 -0.293167,-0.865198 0,-0.44931 -0.16887,-0.796319 -0.306703,-0.630241 -0.08595,0.103567 -0.102793,0.683032 -0.02681,0.922442 0.02443,0.07699 0.01375,0.126491 -0.02729,0.126491 -0.114287,0 -0.242178,-0.400673 -0.242178,-0.75873 0,-0.307233 0.01952,-0.358995 0.199705,-0.529544 0.127597,-0.120774 0.203954,-0.253719 0.211472,-0.368196 0.0065,-0.09854 0.05288,-0.220284 0.103131,-0.270534 0.08162,-0.08162 0.08728,-0.07092 0.05302,0.100336 -0.04206,0.210322 0.07232,0.779885 0.168573,0.839371 0.03328,0.02057 0.131584,-0.03368 0.218455,-0.120549 0.173116,-0.173115 0.201323,-0.413494 0.11411,-0.972434 l -0.04704,-0.30149 0.148699,0.16469 c 0.181555,0.201079 0.259369,0.643207 0.171284,0.973217 -0.05947,0.222798 -0.05284,0.245359 0.113091,0.384981 0.191301,0.16097 0.323832,0.366904 0.270468,0.420267 -0.01839,0.01839 -0.142772,-0.06533 -0.2764,-0.186057 -0.395769,-0.357554 -0.544309,-0.288527 -0.543876,0.252741 3.02e-4,0.339823 0.173558,0.654204 0.390624,0.708685 0.205936,0.05169 0.325577,-0.05977 0.371335,-0.345922 0.04564,-0.285383 0.113016,-0.339084 0.206438,-0.164523 0.05356,0.100073 0.05317,0.188018 -0.0016,0.370894 -0.0513,0.171236 -0.05327,0.258269 -0.0069,0.304658 0.07172,0.07172 0.08826,0.359185 0.02435,0.423096 -0.02232,0.02232 -0.130053,-0.05709 -0.2394,-0.176467 -0.228876,-0.249874 -0.317233,-0.245468 -0.443589,0.02212 -0.116964,0.2477 -0.180894,0.245034 -0.180894,-0.0075 z m 1.274028,-0.546145 c -0.0856,-0.339937 -0.08574,-0.337521 0.02026,-0.337521 0.119454,0 0.224819,0.211632 0.201807,0.405343 -0.03073,0.258662 -0.148946,0.222556 -0.222064,-0.06782 z m -7.75606,0.08398 c -0.106534,-0.04527 -0.107972,-0.05174 -0.01233,-0.05548 0.05954,-0.0023 0.176098,-0.07207 0.259008,-0.154983 0.16614,-0.16614 0.265859,-0.19308 0.265859,-0.07182 0,0.213305 -0.293909,0.375181 -0.512533,0.282286 z m 15.142314,-0.09096 c -0.13277,-0.132769 -0.12315,-0.299465 0.0334,-0.577941 0.15708,-0.279473 0.31535,-0.346286 0.47597,-0.200924 0.15164,0.137231 0.14557,0.302544 -0.022,0.599069 -0.15057,0.266415 -0.33329,0.33383 -0.48732,0.179796 z m 0.35755,-0.5584 c -0.0719,-0.0719 -0.23156,0.156317 -0.18777,0.268407 0.038,0.09724 0.0537,0.09008 0.13356,-0.06095 0.0498,-0.09413 0.0742,-0.187487 0.0542,-0.207454 z m -14.685841,0.22998 c 0,-0.07746 0.240666,-0.20364 0.291484,-0.152821 0.02198,0.02198 -0.01266,0.07845 -0.07699,0.125481 -0.136159,0.09956 -0.214498,0.109547 -0.214498,0.02734 z m 15.133871,-0.908317 c -0.0883,-0.165027 -0.14453,-0.674922 -0.0958,-0.869073 0.0564,-0.224587 0.44656,-0.63665 0.60285,-0.63665 0.20528,0 0.38871,0.164913 0.46439,0.417502 0.0623,0.207855 0.0526,0.26935 -0.0922,0.585547 -0.089,0.194315 -0.21918,0.414432 -0.28937,0.489148 -0.16752,0.178319 -0.49767,0.185889 -0.58991,0.01353 z m 0.53204,-0.386248 c 0.22753,-0.259146 0.27227,-0.39701 0.1949,-0.600523 -0.0912,-0.239732 -0.2379,-0.266421 -0.40388,-0.07345 -0.14207,0.165163 -0.18182,0.452166 -0.10324,0.745385 0.0491,0.183048 0.0988,0.171673 0.31222,-0.07141 z m 3.85157,-0.456197 c 0.0745,-0.866959 0.043,-2.252736 -0.0654,-2.879752 -0.0531,-0.307053 -0.20505,-0.853134 -0.33766,-1.213511 -0.13261,-0.360379 -0.2411,-0.673786 -0.2411,-0.696462 0,-0.21346 0.44797,0.605151 0.70727,1.292443 0.22491,0.596115 0.31779,1.197534 0.31779,2.057617 0,0.817782 -0.15373,1.672783 -0.3425,1.904844 -0.0772,0.09497 -0.0818,0.04015 -0.0384,-0.465179 z m -15.021864,0.227775 c -0.146616,-0.209323 -0.111349,-0.649861 0.05203,-0.649861 0.04927,0 0.07269,0.1263 0.07269,0.391937 0,0.215565 -0.0069,0.391937 -0.01542,0.391937 -0.0085,0 -0.05766,-0.06031 -0.10929,-0.134013 z m 3.260722,-2.036714 c -0.069,-0.448813 -0.09067,-0.457251 -0.539915,-0.210314 -0.460429,0.253083 -0.576785,0.24277 -0.768948,-0.06816 -0.141155,-0.228392 -0.140242,-0.261199 0.03056,-1.097948 0.07099,-0.347807 0.07599,-0.503268 0.02349,-0.730723 -0.0831,-0.360005 -0.03228,-0.572602 0.190003,-0.794886 0.243169,-0.243169 0.32885,-0.219467 0.191406,0.05295 -0.17375,0.344376 -0.198559,0.466717 -0.130788,0.644968 l 0.06214,0.163439 0.20278,-0.125326 c 0.302327,-0.186848 0.388629,-0.15235 0.176725,0.07064 -0.225631,0.23744 -0.391581,0.5618 -0.5255,1.027127 -0.100462,0.349076 -0.09368,0.40618 0.07106,0.598276 0.08246,0.09615 0.110819,0.09148 0.433455,-0.07139 0.314204,-0.15861 0.359634,-0.207493 0.505578,-0.544014 0.21426,-0.494042 0.209326,-0.714402 -0.02094,-0.935008 -0.201041,-0.192608 -0.17429,-0.278224 0.07183,-0.229896 0.160323,0.03148 0.288451,0.131819 0.428796,0.335794 0.06882,0.100021 0.08246,0.09949 0.261834,-0.01009 0.118861,-0.07262 0.249681,-0.243389 0.351785,-0.459219 0.202,-0.426994 0.326207,-0.380669 0.215596,0.08041 -0.08299,0.34594 -0.321565,0.609104 -0.604685,0.667008 -0.168531,0.03447 -0.208997,0.08742 -0.366631,0.479767 -0.133626,0.332591 -0.162371,0.468715 -0.116915,0.553651 0.082,0.153225 0.07132,0.474228 -0.02308,0.693386 l -0.07792,0.180894 z m 13.691262,-0.603455 c -0.0221,-0.08265 -0.0405,-0.234976 -0.041,-0.338507 -0.001,-0.276173 -0.27472,-1.308409 -0.44558,-1.681624 -0.0813,-0.177641 -0.313,-0.609647 -0.51483,-0.960013 -0.20183,-0.350366 -0.36696,-0.668945 -0.36696,-0.707953 0,-0.210162 0.77859,0.840901 1.10204,1.487697 0.33473,0.669378 0.53765,1.784213 0.39042,2.145033 -0.0829,0.203106 -0.0844,0.203787 -0.12409,0.05537 z M 70.178472,34.238834 c -0.09523,-0.03523 -0.130581,-0.09864 -0.130581,-0.234219 0,-0.157616 0.03419,-0.200198 0.224601,-0.279758 0.123531,-0.05161 0.344848,-0.09771 0.491816,-0.102445 0.244042,-0.0079 0.271218,0.0059 0.313379,0.159138 0.09513,0.345651 -0.450672,0.62321 -0.899215,0.457284 z m 0.594204,-0.264692 c 0.04195,-0.05055 0.05902,-0.109163 0.03792,-0.130257 -0.0537,-0.0537 -0.521514,0.09366 -0.521514,0.164284 0,0.09413 0.400624,0.06594 0.483593,-0.03403 z m 43.038004,-0.134238 c -0.0152,-0.05805 0.0358,-0.431144 0.11319,-0.829097 0.33948,-1.744697 0.348,-1.862446 0.34896,-4.823813 l 9e-4,-2.773706 -0.19192,-0.90447 c -0.10556,-0.497458 -0.38216,-1.569254 -0.61468,-2.381769 -0.41385,-1.446219 -0.5458,-2.147289 -0.54689,-2.905818 -7.6e-4,-0.530912 0.1804,-0.547895 0.27088,-0.02539 l 0.0429,0.247951 0.13845,-0.542681 c 0.1633,-0.640069 0.39859,-1.205355 0.77806,-1.869237 0.28984,-0.507078 0.34715,-0.801025 0.18276,-0.937455 -0.15117,-0.125465 -0.86246,0.07676 -1.70285,0.484133 -0.84213,0.408218 -1.11621,0.584101 -1.80221,1.156498 -1.36819,1.141624 -1.99911,2.013698 -2.63218,3.638277 -0.37928,0.973291 -0.60448,1.682885 -0.56843,1.791047 0.0138,0.04137 0.1203,-0.07335 0.23668,-0.254935 0.11638,-0.181584 0.2568,-0.367392 0.31203,-0.412908 0.0888,-0.07319 0.10043,-0.06595 0.10043,0.0627 0,0.512692 -0.39319,1.360427 -1.03795,2.237861 -0.56592,0.770128 -2.35876,2.492033 -2.92414,2.808436 -0.094,0.05262 -0.0955,0.07455 -0.0156,0.228877 0.0486,0.09387 0.41404,0.493199 0.81201,0.88739 0.60845,0.602675 0.69479,0.710058 0.54268,0.674896 -0.38898,-0.08992 -0.90089,-0.41239 -2.19973,-1.385675 -2.43986,-1.82832 -3.16496,-2.264108 -4.794836,-2.881729 -0.896721,-0.339801 -1.385244,-0.467561 -1.792716,-0.468833 -0.262617,-8.2e-4 -0.288109,0.01227 -0.32107,0.164928 -0.162379,0.752039 -0.359196,1.41244 -0.496302,1.665291 -0.139605,0.25746 -0.166598,0.281252 -0.183913,0.162105 -0.01116,-0.0768 0.02954,-0.631315 0.09045,-1.232248 0.193681,-1.91092 0.119382,-3.268475 -0.227555,-4.157717 -0.258381,-0.66226 -1.700756,-2.641918 -2.136173,-2.931891 -0.216226,-0.144001 -0.224696,-0.144933 -0.306033,-0.0337 -0.04601,0.06292 -0.08365,0.174044 -0.08365,0.246941 0,0.0729 -0.05077,0.195236 -0.112818,0.271863 l -0.112817,0.139324 -0.09116,-0.177867 c -0.205703,-0.401357 -0.351216,-1.098362 -0.40849,-1.956657 -0.0805,-1.206379 -0.243959,-1.950445 -0.579418,-2.637556 -0.362495,-0.742488 -0.330108,-0.878522 0.103511,-0.434773 0.179779,0.183978 0.420463,0.492691 0.534853,0.68603 0.262423,0.443539 0.697202,1.634563 0.788888,2.161065 0.06916,0.397125 0.07526,0.406404 0.612944,0.931232 1.441706,1.407246 1.932391,2.029487 2.36404,2.997854 0.435896,0.977897 0.470906,1.139404 0.480263,2.215539 0.0045,0.519645 0.02788,0.96448 0.05193,0.988523 0.02404,0.02404 0.331422,0.107148 0.683064,0.184679 1.466955,0.323437 3.552108,1.356432 5.120988,2.536965 0.83226,0.626257 0.90486,0.635112 1.54408,0.188362 0.85242,-0.595748 2.19686,-1.774856 2.65367,-2.32734 0.20178,-0.244035 0.21688,-0.294136 0.28465,-0.94426 0.21881,-2.099092 1.23602,-4.152062 2.76459,-5.579581 1.202,-1.122528 2.70253,-1.927073 3.95823,-2.122292 0.4809,-0.07476 0.83054,-0.03634 0.9739,0.107014 0.20772,0.207726 0.0904,0.795146 -0.35244,1.764085 -0.33844,0.740583 -0.5575,1.438678 -0.67096,2.138259 -0.1239,0.763943 -0.11353,1.043674 0.0589,1.588999 0.77673,2.456246 1.0075,3.532148 1.12801,5.258929 0.10096,1.446403 -0.0558,3.796541 -0.34639,5.191864 -0.18025,0.865616 -0.65391,2.231025 -0.77395,2.231025 -0.0121,0 -0.0345,-0.04749 -0.0497,-0.105546 z M 71.776065,33.600252 c -0.134487,-0.02014 -0.196576,-0.08298 -0.289461,-0.292964 -0.167022,-0.377579 -0.07902,-0.53957 0.430524,-0.792491 0.580849,-0.288314 1.105999,-0.239916 1.344379,0.123899 0.152235,0.23234 0.129321,0.312159 -0.156959,0.546743 -0.471819,0.38662 -0.810524,0.492379 -1.328483,0.414813 z m 0.653596,-0.306838 c 0.635191,-0.366238 0.673177,-0.416502 0.438818,-0.580653 -0.191325,-0.134009 -0.428581,-0.116363 -0.771437,0.05738 -0.319595,0.161951 -0.438056,0.376452 -0.29986,0.542968 0.09893,0.119209 0.408278,0.109579 0.632479,-0.01969 z m 23.546355,0.123536 c 0,-0.09169 0.05427,-0.267965 0.120596,-0.391718 0.133367,-0.248833 0.15278,-0.494732 0.05861,-0.742413 -0.03409,-0.08967 -0.05154,-0.173476 -0.03878,-0.186239 0.05996,-0.05996 0.217755,0.06655 0.284755,0.228302 0.05284,0.127566 0.102553,0.168804 0.17134,0.14213 0.0533,-0.02067 0.229457,-0.05343 0.391466,-0.07281 0.381771,-0.04566 0.361381,0.08491 -0.03447,0.220722 -0.364864,0.125181 -0.44855,0.203854 -0.657818,0.618412 -0.192249,0.380843 -0.295702,0.44508 -0.295702,0.183609 z m 15.116864,-0.902442 c -0.0264,-0.04083 -0.10119,-0.228601 -0.1661,-0.417268 -0.18311,-0.532218 -0.39522,-0.846085 -0.98096,-1.451559 -0.29759,-0.307615 -0.50887,-0.559301 -0.46951,-0.559301 0.15626,0 0.57108,0.262 0.80968,0.511391 0.47836,0.499983 0.91279,1.396791 0.87329,1.802731 -0.0117,0.119864 -0.0358,0.161277 -0.0664,0.114006 z m 0.53695,-2.982357 c -0.0959,-0.133461 -0.34994,-0.368616 -0.56448,-0.522566 -0.30688,-0.220211 -0.3639,-0.283889 -0.26738,-0.298571 0.30995,-0.04715 0.9143,0.47496 1.01523,0.877059 0.0558,0.222228 0.006,0.206908 -0.18337,-0.05592 z M 90.554491,29.132354 c 0.03262,-0.09358 0.237865,-0.395954 0.456092,-0.671934 0.517783,-0.654808 1.011169,-1.415416 1.2236,-1.886307 0.263213,-0.583458 0.587156,-1.643697 0.762801,-2.496584 0.141656,-0.687844 0.159168,-0.906456 0.156248,-1.95048 -0.0021,-0.74753 -0.03768,-1.400788 -0.0977,-1.793468 -0.180724,-1.182306 -0.09276,-1.479262 0.217479,-0.734149 0.228258,0.548226 0.392535,1.216096 0.476255,1.936227 0.09696,0.834064 0.03899,2.32906 -0.116466,3.003308 -0.355712,1.542808 -1.131431,2.919808 -2.305607,4.092743 -0.692107,0.691377 -0.882106,0.81448 -0.772702,0.500644 z m 11.611569,-0.942357 c -0.0185,-0.0481 -0.13668,-0.140854 -0.26272,-0.206133 -0.17111,-0.08862 -0.20506,-0.128192 -0.13404,-0.156208 0.18919,-0.07463 0.5983,0.17403 0.5983,0.363646 0,0.112604 -0.15822,0.111579 -0.20154,-0.0013 z m -1.94794,-0.696026 c -0.229372,-0.09255 -0.22154,-0.176863 0.0129,-0.13882 0.20092,0.0326 0.21616,0.02464 0.19732,-0.103044 -0.0298,-0.202356 -0.30073,-0.374289 -0.64122,-0.407006 -0.380756,-0.03659 -0.466143,0.06767 -0.218021,0.26621 0.159921,0.127963 0.164194,0.140493 0.04801,0.140765 -0.166698,4.22e-4 -0.445292,-0.220965 -0.445292,-0.353805 0,-0.172372 0.129702,-0.248954 0.419071,-0.247436 0.449002,0.0024 0.742792,0.09719 0.922562,0.297801 0.33055,0.368877 0.1399,0.720935 -0.29532,0.545335 z m 5.69812,-0.0864 c -0.0964,-0.211511 -0.0153,-0.446601 0.24304,-0.704967 0.23213,-0.232125 0.47697,-0.335237 0.64391,-0.271175 0.12134,0.04656 0.0543,0.157673 -0.0952,0.157673 -0.17133,0 -0.61335,0.44285 -0.56577,0.566836 0.0352,0.0916 0.0515,0.09234 0.18001,0.0082 0.27091,-0.177507 0.28916,-0.04601 0.0296,0.213517 -0.2146,0.214595 -0.34738,0.223725 -0.43567,0.02996 z m 5.52621,-0.109519 c -0.18848,-0.101503 -0.21643,-0.135161 -0.12789,-0.154 0.0659,-0.01402 0.17884,0.04142 0.26997,0.132557 0.18791,0.18791 0.1716,0.190372 -0.14208,0.02144 z M 98.362992,26.980517 c -0.0661,-0.100874 -0.153875,-0.150227 -0.267195,-0.150227 -0.288677,0 -0.7244,-0.1835 -0.882844,-0.3718 -0.211242,-0.251046 -0.209715,-0.573847 0.0031,-0.654758 0.222009,-0.08441 0.660734,-0.07244 0.892357,0.02434 0.349521,0.146039 0.462857,0.355839 0.450037,0.833081 -0.0062,0.229102 -0.0305,0.428486 -0.0541,0.443073 -0.0236,0.01459 -0.08721,-0.04108 -0.141349,-0.123704 z m 0.02494,-0.480914 c 0,-0.04922 -0.0755,-0.173994 -0.167775,-0.277269 -0.27806,-0.311203 -0.928111,-0.313152 -0.82951,-0.0025 0.04479,0.141127 0.207678,0.246386 0.484752,0.313252 0.316116,0.07629 0.512533,0.06345 0.512533,-0.0335 z m 9.044698,-0.77576 c 0,-0.239932 0.1624,-0.51755 0.34289,-0.586173 0.0859,-0.03267 0.16789,-0.04773 0.18215,-0.03346 0.0222,0.02217 -0.3266,0.556358 -0.47542,0.728154 -0.0278,0.03212 -0.0496,-0.01556 -0.0496,-0.108516 z m -37.013293,-2.12671 c -0.306753,-0.183833 -0.270057,-0.324657 0.05507,-0.211318 0.26063,0.09086 0.535737,0.08219 0.719146,-0.02266 0.173818,-0.09936 0.482384,-0.118891 0.482384,-0.03053 0,0.03296 -0.112607,0.141492 -0.250239,0.241192 -0.323718,0.2345 -0.641665,0.241865 -1.006357,0.02331 z m 24.605839,-0.302875 c -0.03165,-0.0616 -0.07593,-0.188809 -0.09841,-0.282692 -0.06103,-0.254937 0.153227,-0.190717 0.227478,0.06818 0.06753,0.235463 -0.03271,0.402056 -0.129072,0.214509 z m 14.921754,-0.602546 c -0.0205,-0.0205 0.005,-0.118867 0.0565,-0.218596 0.0516,-0.09973 0.14454,-0.468324 0.20659,-0.819102 0.11844,-0.669515 0.21471,-0.974116 0.30786,-0.974116 0.0306,0 0.0423,0.08818 0.0258,0.195968 -0.0164,0.107783 -0.0463,0.410075 -0.0663,0.671762 -0.0248,0.323696 -0.0821,0.56585 -0.17918,0.757511 -0.15025,0.296507 -0.28884,0.449015 -0.35128,0.386573 z M 94.890653,21.834379 c 0,-0.170627 -0.04517,-0.294441 -0.155066,-0.425045 -0.271268,-0.322383 -0.02286,-0.43425 0.283656,-0.127739 0.156954,0.156954 0.177287,0.215906 0.161182,0.46731 -0.01574,0.245729 -0.03822,0.290507 -0.154101,0.306965 -0.12126,0.01722 -0.135671,-0.0063 -0.135671,-0.221491 z m -31.184816,-1.15617 c -0.343276,-0.177232 -0.483698,-0.299801 -0.343467,-0.299801 0.125094,0 0.57251,0.236523 0.68725,0.363309 0.146122,0.161463 0.06178,0.145882 -0.343783,-0.06351 z M 90.99754,20.531671 C 90.84436,20.29789 90.754029,19.5867 90.848536,19.35854 c 0.07847,-0.189449 0.281596,-0.290891 0.451738,-0.225601 0.231491,0.08883 0.33884,1.079856 0.154319,1.424636 -0.09189,0.171703 -0.336666,0.15783 -0.457053,-0.0259 z m 0.348181,-0.555172 c -0.0015,-0.345913 -0.104,-0.643459 -0.208987,-0.606696 -0.09578,0.03354 -0.08369,0.702763 0.01605,0.889144 0.104498,0.195257 0.194438,0.06359 0.192934,-0.282448 z m -32.513252,0.153938 c 0.28406,-0.246007 0.946884,-0.638378 1.314113,-0.777914 0.645034,-0.245094 1.276043,-0.21094 1.92477,0.104179 0.346435,0.168281 0.913815,0.648177 0.846236,0.715756 -0.01978,0.01978 -0.248949,-0.0602 -0.509264,-0.177736 -1.212837,-0.547611 -1.768234,-0.533092 -3.034641,0.07933 -0.277577,0.134233 -0.560389,0.242957 -0.628471,0.241609 -0.106458,-0.0021 -0.09424,-0.02803 0.08726,-0.185222 z m 51.856251,-0.254051 c 0,-0.273171 0.1771,-0.523044 0.3707,-0.523044 0.17603,0 0.16422,0.07572 -0.0421,0.270348 -0.13473,0.127058 -0.20796,0.252015 -0.20796,0.354827 0,0.08728 -0.0271,0.158699 -0.0603,0.158699 -0.0332,0 -0.0603,-0.117374 -0.0603,-0.26083 z M 90.545404,18.372691 c -0.39065,-0.26326 -0.698207,-0.892767 -0.841809,-1.723014 -0.08079,-0.467116 -0.0348,-0.7068 0.160151,-0.834534 0.12495,-0.08187 0.185791,-0.08588 0.387283,-0.02551 0.524578,0.157167 0.986817,0.896702 1.096245,1.753881 0.07438,0.582671 0.03621,0.755598 -0.192974,0.874113 -0.241427,0.124847 -0.371161,0.115273 -0.608896,-0.04494 z m 0.559784,-0.468395 c -0.02246,-0.359246 -0.1295,-0.830636 -0.239191,-1.053319 -0.153218,-0.311046 -0.638543,-0.753725 -0.826336,-0.753725 -0.06028,0 -0.03022,0.56677 0.04957,0.934619 0.13079,0.602929 0.365167,0.973062 0.702396,1.109235 0.268218,0.108307 0.332113,0.06005 0.313557,-0.23681 z M 62.511537,17.348435 c 0.0015,-0.326588 0.16813,-0.929613 0.364274,-1.318172 0.645836,-1.279395 2.482362,-1.810597 3.351076,-0.969274 l 0.229477,0.222241 -0.167818,0.01946 c -0.0923,0.0107 -0.232944,-0.02322 -0.312543,-0.07537 -0.25167,-0.1649 -0.329863,-0.125011 -0.329863,0.168274 0,0.184648 -0.06743,0.395914 -0.226118,0.708501 -0.222959,0.439179 -0.232854,0.44872 -0.708501,0.683194 -0.518914,0.255802 -0.823494,0.295926 -1.454772,0.191645 l -0.309112,-0.05106 -0.167781,0.308269 c -0.194087,0.356602 -0.269574,0.388196 -0.268319,0.112301 z m 1.958792,-1.05712 c 0.468123,-0.248666 0.59243,-0.425542 0.655501,-0.932713 0.02932,-0.235744 0.01878,-0.286415 -0.05954,-0.286415 -0.176952,0 -1.050734,0.496394 -1.354449,0.76946 -0.258267,0.232204 -0.477618,0.52822 -0.477618,0.644548 0,0.01823 0.183155,0.03229 0.407011,0.03124 0.351811,-0.0016 0.464257,-0.03232 0.829097,-0.226117 z m -4.456571,0.567656 c -0.03373,-0.179784 -0.0673,-0.211558 -0.262162,-0.248114 -0.33758,-0.06333 -0.411096,-0.121997 -0.581574,-0.464103 -0.129147,-0.259164 -0.156659,-0.398486 -0.156659,-0.793344 0,-0.386359 -0.0204,-0.493998 -0.105521,-0.556685 -0.09426,-0.06942 -0.09529,-0.08168 -0.0096,-0.114925 0.171097,-0.06639 0.782938,0.210809 1.045391,0.47363 0.406017,0.406588 0.571953,1.13277 0.360612,1.578139 -0.155365,0.327405 -0.24528,0.366225 -0.290458,0.125402 z m -0.09593,-0.699702 c 0,-0.1033 -0.288934,-0.690013 -0.416568,-0.84589 l -0.123432,-0.150745 -0.0013,0.252341 c -0.0016,0.30354 0.07206,0.514485 0.237443,0.67987 0.128301,0.1283 0.303898,0.165526 0.303898,0.06442 z m 17.447161,0.637394 C 76.956533,16.489347 76.450054,15.88858 76.238396,15.460339 75.96548,14.908157 75.873628,14.397291 75.87589,13.444142 c 0.0021,-0.904987 0.141334,-2.027738 0.298046,-2.404208 0.114665,-0.27546 0.109211,-0.298282 -0.07653,-0.32027 -0.397203,-0.04702 -0.08419,-0.328824 0.723552,-0.651405 1.195797,-0.4775561 2.652508,-0.4693641 3.804177,0.02139 0.401208,0.170966 1.222617,0.751071 1.424605,1.006102 0.344516,0.434987 0.349953,0.90696 0.0079,0.682817 -0.07782,-0.05099 -0.151173,-0.08302 -0.163013,-0.07118 -0.01184,0.01184 0.0088,0.142895 0.04594,0.291233 0.0371,0.148339 0.0691,0.676718 0.0711,1.174176 0.004,0.998836 -0.108239,1.55825 -0.435214,2.168774 -0.222556,0.415556 -0.869838,1.046877 -1.314835,1.282414 -0.773593,0.409464 -1.442821,0.460025 -2.224217,0.168043 -0.198984,-0.07435 -0.416056,-0.155151 -0.482384,-0.179549 -0.07744,-0.02848 -0.03967,0.03352 0.105521,0.17325 0.124365,0.119687 0.226118,0.230814 0.226118,0.246949 0,0.09265 -0.212701,-0.0036 -0.521633,-0.236019 z m 1.139036,-3.446478 c 0.09084,-0.02166 0.245723,-0.131131 0.344177,-0.243264 0.466938,-0.531814 0.308499,-1.261819 -0.326499,-1.504326 -0.481616,-0.183931 -0.979125,0.02175 -1.18648,0.490505 -0.162549,0.367468 -0.108818,0.68436 0.167986,0.990749 0.199237,0.220532 0.54411,0.371455 0.7452,0.326115 0.04975,-0.01122 0.164774,-0.03812 0.255616,-0.05978 z m 2.866289,-1.548141 c -0.03685,-0.308562 -0.08906,-0.475495 -0.178492,-0.570687 -0.184311,-0.19619 -1.042532,-0.602706 -1.496261,-0.708739 -0.743354,-0.173715 -2.658711,-0.06538 -2.868208,0.162229 -0.06383,0.06935 -0.206989,0.673152 -0.206989,0.873034 0,0.05727 0.06246,0.03582 0.199066,-0.06838 0.526703,-0.401735 1.339092,-0.616355 2.111488,-0.557819 0.890737,0.06751 1.583644,0.378726 2.103151,0.944636 0.175827,0.191533 0.335132,0.351305 0.35401,0.35505 0.01888,0.0037 0.01088,-0.189452 -0.01776,-0.429328 z m -11.675942,4.352031 c -0.111523,-0.06799 -0.191458,-0.13493 -0.177634,-0.148753 0.01382,-0.01382 0.172904,-0.0016 0.353513,0.02714 0.180609,0.02875 0.350657,0.03873 0.377885,0.02218 0.02723,-0.01655 0.175906,-0.01114 0.330396,0.01202 0.259538,0.03892 0.272089,0.04856 0.165088,0.1268 -0.182104,0.133158 -0.80455,0.10979 -1.049248,-0.03939 z m 1.197686,-0.281496 c -0.04975,-0.01884 -0.179577,-0.111669 -0.288514,-0.206282 -0.22386,-0.194426 -0.466242,-0.22136 -0.736124,-0.0818 -0.218135,0.112803 -0.292356,0.01897 -0.103318,-0.130621 0.0767,-0.06069 0.157166,-0.156948 0.17882,-0.213901 0.03591,-0.09446 0.05796,-0.09578 0.251124,-0.01507 0.251706,0.10517 0.548411,0.113335 0.80961,0.02228 0.228568,-0.07968 0.233407,-0.113093 0.04237,-0.292561 -0.128699,-0.120907 -0.194094,-0.135218 -0.512594,-0.11218 -0.295916,0.0214 -0.398078,0.05803 -0.539293,0.193319 -0.241556,0.231426 -0.288477,0.110421 -0.121144,-0.312423 0.14773,-0.373312 0.30533,-0.55562 0.480318,-0.55562 0.09803,0 0.09368,0.0175 -0.03683,0.148005 -0.233092,0.233091 -0.190745,0.277692 0.228858,0.241046 0.207275,-0.0181 0.431131,-0.04853 0.497459,-0.06762 0.394566,-0.113543 0.283938,-0.321434 -0.17105,-0.321434 -0.292407,0 -0.302002,-0.005 -0.201506,-0.105521 0.06858,-0.06858 0.198578,-0.105522 0.37136,-0.105522 0.218247,0 0.302035,0.03508 0.468027,0.195969 0.111203,0.107782 0.249728,0.195968 0.307833,0.195968 0.127306,0 0.474102,0.171284 0.535893,0.26468 0.06373,0.09633 0.05627,0.278002 -0.01141,0.278002 -0.03166,0 -0.126742,-0.06919 -0.211303,-0.153746 -0.134826,-0.134826 -0.196309,-0.151522 -0.499613,-0.13567 -0.276527,0.01445 -0.350005,0.03981 -0.366506,0.126493 -0.03784,0.198786 0.103409,0.283519 0.472634,0.283519 0.379698,0 0.421154,0.03721 0.421154,0.378001 v 0.187243 l -0.165819,-0.157307 c -0.0912,-0.08652 -0.269441,-0.176368 -0.396089,-0.199664 -0.192206,-0.03536 -0.244545,-0.02197 -0.316639,0.08095 -0.0475,0.06782 -0.167739,0.141182 -0.267189,0.163025 -0.214441,0.0471 -0.233864,0.12634 -0.04515,0.184194 0.219004,0.06714 0.307769,0.157008 0.213897,0.216555 -0.08797,0.0558 -0.157381,0.05764 -0.289269,0.0077 z m 2.472216,-0.863808 c -0.08291,-0.02484 -0.252497,-0.04786 -0.376862,-0.05117 -0.26532,-0.0071 -0.29574,-0.10312 -0.06093,-0.192397 0.200174,-0.07611 0.518385,-0.02491 0.622128,0.100091 0.102304,0.12327 0.0039,0.199865 -0.18434,0.143476 z M 68.445983,14.64361 c -0.07196,-0.116439 0.240731,-0.362129 0.506207,-0.397736 0.278284,-0.03733 0.613317,0.07175 0.613317,0.199677 0,0.06106 -0.08951,0.07996 -0.346713,0.07321 -0.221435,-0.0058 -0.416286,0.02709 -0.53926,0.09105 -0.134148,0.06977 -0.204983,0.08003 -0.233551,0.0338 z m 5.68371,0.02823 c -0.0605,-0.06049 0.01488,-0.142335 0.13109,-0.142335 0.05803,0 0.158183,0.03984 0.222558,0.08853 0.109998,0.0832 0.104035,0.08864 -0.09902,0.09045 -0.118838,0.0011 -0.233419,-0.01544 -0.254627,-0.03664 z M 87.33602,14.046386 c -0.08484,-0.06673 -0.17206,-0.202434 -0.193832,-0.30156 -0.02653,-0.12077 -0.18878,-0.314483 -0.491814,-0.58717 -0.378766,-0.340835 -0.497976,-0.413674 -0.733844,-0.448387 -0.228591,-0.03364 -0.324189,-0.08903 -0.507732,-0.294171 -0.294191,-0.328807 -0.303916,-0.498909 -0.01397,-0.244331 0.371343,0.326043 0.692321,0.328996 0.692321,0.0064 0,-0.147303 -0.06909,-0.249968 -0.336046,-0.499351 -0.382505,-0.357324 -0.462651,-0.476476 -0.411011,-0.611046 0.05393,-0.140551 0.130198,-0.115665 0.228583,0.07459 0.138278,0.2674 0.624034,0.614469 0.860008,0.614469 0.227069,0 0.2545,-0.08371 0.115509,-0.35249 -0.076,-0.146964 -0.45158,-0.378003 -0.84898,-0.522247 -0.230984,-0.08384 0.03592,-0.107931 0.369269,-0.03333 0.200408,0.04485 0.412746,0.147441 0.560275,0.270698 0.138012,0.115306 0.336657,0.214324 0.474037,0.236292 0.251547,0.04022 0.516387,0.214199 0.619571,0.406999 0.106556,0.199103 -0.0017,0.25882 -0.175603,0.09684 -0.325184,-0.302953 -0.61146,-0.372242 -0.611411,-0.147982 1.9e-5,0.08757 0.104625,0.225746 0.295042,0.389728 0.299704,0.258098 0.5491,0.671703 0.5491,0.910641 0,0.212994 -0.116328,0.151501 -0.235628,-0.124558 -0.204832,-0.47398 -1.031851,-1.010734 -1.182283,-0.767328 -0.158708,0.256794 0.517262,0.97289 0.994484,1.053516 0.280864,0.04745 0.305072,0.103119 0.08788,0.202079 -0.190131,0.08663 -0.158501,0.250904 0.101007,0.524594 0.09583,0.10107 0.174242,0.202823 0.174242,0.226118 0,0.08635 -0.22987,0.03847 -0.379175,-0.07898 z m 1.496176,-0.235766 c -0.06097,-0.192094 -0.491415,-0.537667 -0.72409,-0.581317 -0.254261,-0.0477 -0.251961,-0.169409 0.0037,-0.19417 0.404291,-0.03916 0.969939,0.454203 0.886514,0.773222 -0.03938,0.150604 -0.11867,0.151685 -0.166093,0.0023 z M 61.518661,13.670259 c 0.143861,-0.473636 0.41055,-1.069508 0.52809,-1.179932 0.157017,-0.14751 0.490636,-0.234626 0.547315,-0.142917 0.02076,0.03359 -0.07216,0.148125 -0.206486,0.254516 -0.159259,0.126136 -0.317675,0.342036 -0.45531,0.620529 -0.11609,0.2349 -0.240276,0.462277 -0.275967,0.505283 -0.10303,0.124143 -0.182702,0.09087 -0.137642,-0.05748 z m 28.126069,-0.01464 c -0.214539,-0.158724 -0.266392,-0.273425 -0.142304,-0.314788 0.10857,-0.03619 0.399654,0.247141 0.375219,0.365225 -0.01948,0.09413 -0.04498,0.08861 -0.232915,-0.05044 z m -20.068342,-1.67249 c 0.02367,-0.165176 0.307941,-0.283965 0.456022,-0.190558 0.184641,0.116469 0.15608,0.20442 -0.06638,0.20442 -0.11688,0 -0.229279,0.02713 -0.249776,0.0603 -0.06827,0.110465 -0.159397,0.06215 -0.139864,-0.07416 z m -6.824551,-0.08122 c 0,-0.170688 0.343473,-0.457748 0.52238,-0.436583 0.234554,0.02775 0.234397,0.133649 -3.02e-4,0.218526 -0.111806,0.04043 -0.252078,0.127425 -0.311716,0.193325 -0.130582,0.144291 -0.210339,0.153669 -0.210339,0.02473 z m 8.032107,-0.157749 c -0.106258,-0.106257 -0.08987,-0.192894 0.06289,-0.332581 0.381114,-0.348481 0.855801,-0.418428 1.110579,-0.16365 0.19517,0.19517 0.113851,0.328797 -0.131939,0.216808 -0.309136,-0.140852 -0.614453,-0.06621 -0.845567,0.206716 -0.09621,0.113616 -0.139134,0.129542 -0.195968,0.07271 z"
       id="path411" /></g></svg>
