<?xml version="1.0" encoding="UTF-8" standalone="no"?>
<!-- Created with Inkscape (http://www.inkscape.org/) -->

<svg
   width="140mm"
   height="140mm"
   viewBox="0 0 140 140"
   version="1.1"
   id="svg5"
   xml:space="preserve"
   inkscape:version="1.2.1 (9c6d41e4, 2022-07-14)"
   sodipodi:docname="mosa.svg"
   xmlns:inkscape="http://www.inkscape.org/namespaces/inkscape"
   xmlns:sodipodi="http://sodipodi.sourceforge.net/DTD/sodipodi-0.dtd"
   xmlns="http://www.w3.org/2000/svg"
   xmlns:svg="http://www.w3.org/2000/svg"><sodipodi:namedview
     id="namedview7"
     pagecolor="#ffffff"
     bordercolor="#000000"
     borderopacity="0.25"
     inkscape:showpageshadow="2"
     inkscape:pageopacity="0.0"
     inkscape:pagecheckerboard="0"
     inkscape:deskcolor="#d1d1d1"
     inkscape:document-units="mm"
     showgrid="false"
     inkscape:zoom="1.1525392"
     inkscape:cx="298.4714"
     inkscape:cy="208.66968"
     inkscape:window-width="1381"
     inkscape:window-height="847"
     inkscape:window-x="59"
     inkscape:window-y="25"
     inkscape:window-maximized="1"
     inkscape:current-layer="layer1" /><defs
     id="defs2" /><g
     inkscape:label="Livello 1"
     inkscape:groupmode="layer"
     id="layer1"><path
       style="fill:#000000;stroke-width:0.338199"
       d="m 55.602139,86.146988 c 0,-0.169942 0.608759,-0.903425 1.352797,-1.629958 0.744039,-0.726534 1.352797,-1.507324 1.352797,-1.735088 0,-0.227764 0.380475,-0.713394 0.845499,-1.079184 0.465024,-0.365789 0.845498,-0.828845 0.845498,-1.029019 0,-0.200173 0.457519,-0.70221 1.016708,-1.115634 0.70012,-0.517621 0.956583,-0.941118 0.823624,-1.360039 -0.134827,-0.424791 0.349258,-1.182043 1.604336,-2.509658 1.057025,-1.118118 1.756377,-2.149142 1.697781,-2.502966 -0.110169,-0.665245 1.401298,-2.027285 2.249695,-2.027285 0.398507,0 0.34315,-0.135736 -0.214706,-0.526475 -0.413408,-0.289563 -0.751651,-0.66653 -0.751651,-0.837703 0,-0.608813 1.630556,-1.36457 3.749267,-1.737773 1.73735,-0.306029 2.005856,-0.43209 1.398711,-0.656688 -1.774528,-0.656441 0.04995,-1.983529 2.734277,-1.988862 l 0.949166,-0.002 -0.609763,-1.032249 c -0.461909,-0.78195 -0.774067,-0.981681 -1.287369,-0.823701 -0.372682,0.114697 -1.761291,0.493379 -3.085798,0.841511 -1.324507,0.348132 -2.90432,0.934681 -3.510701,1.303444 -1.471681,0.894983 -2.133037,0.623132 -1.835868,-0.754635 0.369564,-1.713399 1.342337,-3.326474 2.947606,-4.887791 1.3546,-1.31751 1.467464,-1.544827 1.127056,-2.269957 -0.20806,-0.443203 -0.720716,-0.989531 -1.139237,-1.214061 -0.418522,-0.224534 -0.760949,-0.558299 -0.760949,-0.741708 0,-0.183406 -0.266978,-0.09185 -0.593283,0.203447 -1.026052,0.928563 -5.737338,3.002053 -7.254101,3.192611 -0.799205,0.100405 -1.917799,0.528373 -2.485768,0.951034 -1.076894,0.801387 -2.983087,1.445609 -4.716716,1.594075 -0.949979,0.08135 -1.02723,0.19459 -1.212925,1.777884 -0.10908,0.930048 -0.375412,2.119424 -0.591849,2.643061 -0.216437,0.523634 -0.396863,1.436772 -0.400949,2.029196 -0.01133,1.643314 -1.05626,3.602614 -3.201354,6.00272 -1.069934,1.197127 -2.619743,3.120003 -3.444022,4.27306 -1.437022,2.010199 -2.435308,2.744907 -3.138851,2.310094 -0.63613,-0.39315 -0.769047,-2.620385 -0.415631,-6.964538 0.374881,-4.607986 0.848817,-6.141781 2.903518,-9.396638 1.454927,-2.304757 1.365172,-1.442055 -0.168837,1.622798 -1.29388,2.585095 -2.494938,7.164141 -2.075783,7.913945 0.08846,0.158247 0.606518,0.198588 1.151234,0.08964 0.610334,-0.122067 0.911391,-0.07025 0.784522,0.135029 -0.11323,0.183351 -0.659614,0.333248 -1.214187,0.333248 h -1.008317 l 0.09823,2.786404 c 0.123869,3.513776 0.639298,3.774568 2.374151,1.20125 0.663482,-0.984146 1.980443,-2.702497 2.926579,-3.818554 2.918038,-3.442102 3.473124,-4.400501 3.762061,-6.495487 0.148639,-1.077722 0.514953,-2.613242 0.814029,-3.412262 0.840622,-2.245809 0.457432,-2.626591 -2.595263,-2.578942 -1.383426,0.02161 -2.728579,0.172333 -2.989229,0.334977 -0.26065,0.162646 -0.685974,0.327782 -0.945166,0.366973 -1.29882,0.196382 -5.473783,3.603141 -7.651544,6.243639 -1.490975,1.807784 -6.137334,5.033803 -7.250066,5.033803 -0.89654,0 -3.387002,-1.530078 -3.935807,-2.418064 -0.369672,-0.598143 -0.454205,-3.304867 -0.109859,-3.517682 0.154403,-0.09543 0.195002,-0.396915 0.09022,-0.669973 -0.104782,-0.273056 -0.03832,-0.496467 0.147686,-0.496467 0.473046,0 0.787391,0.945355 0.361546,1.087304 -0.194451,0.06482 -0.05332,0.481826 0.318435,0.940932 0.547843,0.676557 0.757959,0.749578 1.170853,0.406904 0.51662,-0.428755 1.570345,-0.232431 1.645801,0.306639 0.02325,0.166106 0.06471,0.492252 0.09214,0.724764 0.02743,0.232512 0.350829,0.371982 0.718673,0.309936 0.960453,-0.162011 1.312748,-0.607883 0.673977,-0.853003 -0.359224,-0.137846 -0.465409,-0.07715 -0.308678,0.176446 0.147173,0.238133 0.08898,0.293915 -0.151534,0.145266 -0.21475,-0.132723 -0.390454,-0.465971 -0.390454,-0.740551 0,-0.385848 0.146087,-0.421055 0.643202,-0.155007 0.554508,0.296763 0.61739,0.245526 0.456014,-0.37158 -0.135046,-0.516417 -0.05514,-0.669506 0.286846,-0.54958 0.260719,0.09142 0.454902,0.404144 0.431519,0.694932 -0.02561,0.318458 0.142503,0.457705 0.422749,0.350164 0.255896,-0.0982 0.465264,-0.385763 0.465264,-0.639037 0,-0.285011 0.2082,-0.38061 0.546327,-0.250856 0.541043,0.207617 0.518414,-0.134235 -0.121621,-1.837322 -0.261148,-0.694895 0.392605,-0.478123 0.871706,0.289038 0.244486,0.391486 0.281095,0.610788 0.08135,0.487342 -0.199742,-0.123449 -0.363167,-0.07226 -0.363167,0.11375 0,0.546439 0.590274,0.752169 0.775227,0.270191 0.09334,-0.243233 0.09154,-0.851119 -0.004,-1.350856 -0.200706,-1.04993 -0.02907,-1.142356 0.624698,-0.336393 0.31539,0.388814 0.328662,0.490815 0.04141,0.318239 -0.427165,-0.256633 -0.59673,0.175623 -0.217612,0.554741 0.321207,0.321208 1.082036,-0.546293 0.898529,-1.024507 -0.106119,-0.276539 0.0235,-0.356269 0.365708,-0.22495 0.451347,0.173199 0.482918,0.03894 0.212539,-0.903814 -0.399177,-1.391849 -0.196295,-1.60623 0.741543,-0.783571 0.405133,0.35538 0.615292,0.439602 0.46702,0.187163 -0.20735,-0.353022 -0.09595,-0.40387 0.482551,-0.220262 0.772064,0.245042 0.782304,0.05491 0.09547,-1.772702 -0.197906,-0.526614 0.464364,-0.561269 0.785833,-0.04112 0.160226,0.25925 0.338059,0.19901 0.554559,-0.187857 0.250848,-0.448239 0.420889,-0.48467 0.798697,-0.171118 0.388505,0.322432 0.479998,0.263565 0.479998,-0.30883 0,-0.503772 0.152778,-0.648569 0.531127,-0.503383 0.449661,0.172549 0.494207,0.0024 0.29042,-1.109761 l -0.240708,-1.313576 0.724179,0.644267 c 0.715383,0.63644 0.724178,0.635412 0.724178,-0.08455 0,-0.416077 0.213536,-0.728816 0.497629,-0.728816 0.275049,0 0.630449,-0.491627 0.794579,-1.099148 0.362822,-1.342976 0.243993,-1.534695 -0.529186,-0.853798 -0.326657,0.287672 -1.379745,0.91675 -2.340196,1.397957 -1.363285,0.683031 -1.709631,1.015034 -1.579198,1.513811 0.09768,0.373517 -0.03906,0.717997 -0.329193,0.829332 -0.358894,0.137718 -0.449136,0.01021 -0.326003,-0.460661 0.43057,-1.646503 -2.068895,0.310886 -3.075187,2.408249 -0.870862,1.815092 -1.674651,2.076575 -2.360361,0.767851 l -0.49716,-0.948865 -0.623601,1.147179 c -0.34298,0.630948 -1.232359,1.862264 -1.976397,2.736255 -0.744039,0.873995 -1.549438,1.878843 -1.789776,2.232999 -0.405294,0.597226 -0.424906,0.582609 -0.270471,-0.201581 0.153991,-0.781933 0.131674,-0.798931 -0.296839,-0.226113 -0.44913,0.600381 -0.467968,0.600381 -0.613949,0 -0.08283,-0.340661 -0.100024,-0.206765 -0.03821,0.297551 0.06182,0.504313 -0.01887,0.998057 -0.17929,1.097203 -0.478965,0.296019 -0.636563,-0.586377 -0.360896,-2.020663 0.142312,-0.74045 0.276252,-1.224569 0.297643,-1.075819 0.02139,0.148751 0.300459,0.124075 0.62015,-0.05483 0.439722,-0.246081 0.555526,-0.681685 0.475581,-1.788925 -0.101147,-1.400873 -0.07894,-1.439759 0.517889,-0.906824 0.524575,0.468416 0.690681,0.48356 1.046317,0.09539 0.232512,-0.253778 0.422749,-0.62901 0.422749,-0.833847 0,-0.204837 0.133445,-0.289958 0.296543,-0.189158 0.163099,0.1008 1.381101,-1.478459 2.706672,-3.509464 l 2.410128,-3.692741 -0.362565,-1.69058 c -0.410517,-1.914178 -1.181917,-2.847926 -1.694561,-2.051203 -0.269785,0.419286 -0.357873,0.416317 -0.645444,-0.02175 -0.285098,-0.434299 -0.333765,-0.42213 -0.338199,0.08455 -0.0071,0.815811 -0.704433,0.746599 -0.923648,-0.09168 -0.140443,-0.537054 -0.278601,-0.600652 -0.644736,-0.296787 -0.340316,0.282437 -0.46599,0.284358 -0.46599,0.0071 0,-0.208784 -0.15219,-0.379608 -0.3382,-0.379608 -0.186009,0 -0.338199,0.228284 -0.338199,0.507298 0,0.279015 -0.168472,0.507299 -0.374383,0.507299 -0.205911,0 -0.296515,-0.202919 -0.201344,-0.450931 0.09517,-0.248015 -0.04728,-0.450935 -0.316569,-0.450935 -0.269285,0 -0.413611,0.198047 -0.320726,0.440103 0.09289,0.242056 0.03957,0.520018 -0.118469,0.617694 -0.158043,0.09768 -0.390138,-0.231937 -0.515765,-0.732479 -0.179993,-0.717145 -0.295182,-0.806267 -0.543376,-0.420412 -0.273564,0.425302 -0.36026,0.422982 -0.659589,-0.01762 -0.302074,-0.444661 -0.399572,-0.435675 -0.789627,0.07278 -0.316737,0.412884 -0.549553,0.475528 -0.80774,0.21734 -0.258186,-0.258184 -0.472679,-0.157313 -0.744169,0.349969 -0.582611,1.08862 -1.031671,0.852259 -1.055467,-0.55554 -0.01958,-1.158295 -0.04965,-1.197695 -0.346841,-0.454479 -0.315094,0.787988 -0.340863,0.793345 -0.813305,0.1691 -0.463327,-0.612198 -0.488443,-0.597825 -0.498657,0.285379 -0.01511,1.306305 -0.520945,1.156351 -1.140855,-0.338199 l -0.526044,-1.268247 -0.01743,1.268247 c -0.02048,1.490759 -0.496071,1.655364 -0.977141,0.338199 -0.332908,-0.911501 -0.340215,-0.904358 -0.366383,0.35816 -0.03308,1.595844 -0.527286,1.376319 -1.380005,-0.612996 -0.448789,-1.046981 -0.54871,-1.768776 -0.360428,-2.603594 0.584456,-2.591415 1.858181,-3.48255 7.124923,-4.984821 4.127733,-1.177382 5.482896,-1.72789 7.341644,-2.982398 1.858573,-1.25439 4.237928,-1.730539 5.094647,-1.019527 0.827759,0.68698 3.540439,0.906874 4.582518,0.371467 0.730968,-0.375563 1.064953,-0.398531 1.426915,-0.09813 0.368474,0.305806 0.671161,0.235989 1.374111,-0.316952 0.969602,-0.762689 1.82492,-0.928673 1.82492,-0.354146 0,0.549063 0.837987,-0.03509 2.796211,-1.949215 1.354654,-1.324147 2.086619,-2.458464 3.122276,-4.83855 1.512113,-3.475051 3.727291,-6.237165 6.132605,-7.646774 0.812284,-0.476029 1.476879,-1.052802 1.476879,-1.281718 0,-0.228915 0.376014,-0.769455 0.835583,-1.2012 0.674914,-0.634046 0.93069,-0.706061 1.330171,-0.37452 0.402583,0.334114 0.593584,0.259388 1.02675,-0.401707 0.793953,-1.211726 1.97761,-1.753301 2.832284,-1.295892 0.462051,0.247283 0.769285,0.258538 0.908501,0.03328 0.115691,-0.187195 0.564894,-0.25137 0.998226,-0.142611 0.433331,0.108759 0.880782,0.04742 0.994339,-0.136318 0.123477,-0.199789 -0.08686,-0.257359 -0.523289,-0.143229 -0.527912,0.138052 -0.657388,0.07375 -0.468122,-0.232488 0.149075,-0.241212 0.632697,-0.352387 1.124199,-0.25843 0.662779,0.126698 1.113274,-0.100931 1.944936,-0.98275 1.325326,-1.405255 2.186195,-1.505482 2.186195,-0.254527 0,0.859348 0.0507,0.83551 1.34119,-0.630561 1.315315,-1.494276 3.192923,-2.605158 3.642819,-2.155264 0.125141,0.125141 0.04804,0.703053 -0.171338,1.284249 l -0.398866,1.056719 0.921441,-0.866045 c 1.24964,-1.174514 3.152153,-2.285003 3.917349,-2.286542 0.519866,-10e-4 0.586052,0.159503 0.382879,0.928784 -0.50017,1.893822 -0.468646,1.931737 1.785367,2.14738 2.051822,0.196299 2.158405,0.166973 3.297443,-0.907276 0.647395,-0.610573 1.177083,-1.176799 1.177083,-1.258279 0,-0.302803 -3.140698,0.452137 -4.639915,1.115312 -0.85371,0.377638 -1.607938,0.630875 -1.676065,0.562751 -0.269193,-0.269196 3.961281,-1.928217 5.430395,-2.129582 1.924161,-0.263735 2.03715,0.188711 0.462836,1.85336 -1.063275,1.124288 -1.071554,1.154761 -0.25365,0.93375 1.739231,-0.469967 4.305277,-0.625027 4.522662,-0.273293 0.120216,0.194513 -0.195537,0.679399 -0.701673,1.077525 -1.285428,1.011117 -0.647716,1.279296 2.595629,1.091541 4.235997,-0.245218 5.586985,0.392006 3.222062,1.51976 -1.084121,0.516981 -1.551455,1.087336 -0.930048,1.135073 2.856824,0.219465 5.833934,1.083439 5.833934,1.693039 0,0.167081 -0.38047,0.399277 -0.8455,0.515991 -1.27092,0.318982 -1.016412,0.814277 0.42275,0.822705 1.49798,0.0088 4.28297,1.183405 3.97753,1.677617 -0.11698,0.189283 -0.44098,0.344152 -0.71999,0.344152 -0.8468,0 -0.18824,0.618627 1.41225,1.326594 0.83237,0.3682 1.48676,0.791055 1.45419,0.939678 -0.11792,0.538096 0.46973,1.45392 0.93293,1.45392 0.65271,0 2.60625,1.917393 2.35981,2.316142 -0.10988,0.177779 0.36097,0.654083 1.04633,1.058453 0.90325,0.532933 1.12345,0.811023 0.80031,1.010734 -0.33891,0.209456 -0.2872,0.325852 0.21567,0.485456 0.98759,0.313449 2.20311,1.562182 2.01014,2.065062 -0.0931,0.242543 0.12131,0.703909 0.47639,1.02526 0.35509,0.321351 0.57853,0.692835 0.49652,0.825521 -0.082,0.132686 0.29058,0.662484 0.82796,1.177328 0.53738,0.514845 0.9177,1.108845 0.84514,1.320001 -0.0726,0.211155 0.35746,0.69602 0.95557,1.077471 0.59811,0.381455 1.04839,0.92764 1.00061,1.213743 -0.0478,0.286104 0.2083,0.787298 0.56904,1.113769 0.36075,0.32647 0.5797,0.792171 0.48656,1.034896 -0.0932,0.242722 -0.004,0.543317 0.19742,0.667991 0.20173,0.124671 0.27688,0.372121 0.16702,0.549885 -0.10987,0.177768 0.002,0.281392 0.24813,0.230283 0.24634,-0.05111 0.44993,0.159685 0.45244,0.46844 0.002,0.308753 0.26191,0.845752 0.57647,1.193337 0.31456,0.347581 0.57277,0.932009 0.5738,1.298726 0.001,0.366719 0.55386,2.264751 1.22852,4.217852 0.85797,2.483787 1.24321,4.211806 1.28175,5.749388 l 0.0551,2.198296 1.55008,0.760032 c 1.66769,0.817702 6.0594,5.111761 6.0594,5.92467 0,0.999839 -6.13748,1.507567 -8.82577,0.730118 -0.37405,-0.108176 -0.92234,0.463485 -1.78499,1.861094 -1.50884,2.444511 -3.2351,3.971265 -6.32765,5.596357 -3.10391,1.63106 -6.25943,2.290106 -8.93449,1.866018 -2.34741,-0.372141 -7.113701,-1.925917 -9.248053,-3.014794 -0.808563,-0.412505 -1.528864,-0.691265 -1.60066,-0.619466 -0.0718,0.0718 0.0027,0.594697 0.165275,1.161999 0.578605,2.017484 0.07952,1.962236 -5.410786,-0.598968 -2.866422,-1.337172 -5.766244,-2.866679 -6.444043,-3.398903 -0.708416,-0.55626 -1.647098,-0.967676 -2.207839,-0.967676 -1.375308,0 -5.378171,1.996789 -7.56446,3.773455 -3.897314,3.167115 -7.041235,5.32689 -10.252031,7.042822 -4.554212,2.433885 -8.335744,3.866509 -8.335744,3.157956 z m 6.425787,-3.540409 c 0,-0.158315 0.279014,-0.287845 0.620031,-0.287845 0.893742,0 1.095004,-0.327776 0.70221,-1.143614 -0.322068,-0.668941 -0.312179,-0.67582 0.149074,-0.103651 0.471707,0.585139 0.58336,0.56625 2.470604,-0.41795 1.087111,-0.566931 3.117991,-1.835929 4.513063,-2.819998 2.302058,-1.62385 2.525642,-1.88217 2.419055,-2.794943 -0.136071,-1.165272 -0.330745,-1.458194 -0.661897,-0.995933 -0.129395,0.180622 -0.528294,0.353994 -0.886444,0.385267 -0.501938,0.04383 -0.366296,-0.20413 0.591849,-1.081906 0.683667,-0.626322 1.243031,-1.324081 1.243031,-1.550573 0,-0.226496 0.08847,-0.323336 0.196606,-0.215203 0.339085,0.339085 3.523587,-1.888343 3.523587,-2.464604 0,-1.043423 -2.701459,0.150644 -5.231308,2.312286 -1.939975,1.657619 -2.937605,2.110417 -1.744083,0.791589 0.547517,-0.604998 0.525974,-0.64332 -0.474037,-0.843324 -1.219709,-0.24394 -3.282326,0.505097 -3.588586,1.303194 -0.298271,0.77728 0.02959,0.959603 1.738267,0.966671 0.836641,0.0035 1.521163,0.05919 1.521163,0.123856 0,0.405622 -9.256136,9.211862 -10.407492,9.901633 -2.165324,1.297238 -1.695585,1.431737 0.937912,0.268544 1.302067,-0.575108 2.367395,-1.175185 2.367395,-1.333496 z m 5.28387,-4.528411 c -0.326356,-0.850466 -0.23008,-1.06991 0.168602,-0.384309 0.197404,0.339467 0.287673,0.688458 0.200597,0.775535 -0.08708,0.08708 -0.253217,-0.08898 -0.369199,-0.391226 z m 3.164328,-1.347897 c -0.235292,-0.283509 -0.362306,-0.580965 -0.282258,-0.661017 0.08005,-0.08005 0.331314,0.151912 0.55836,0.515473 0.491001,0.786219 0.327252,0.872541 -0.276102,0.145544 z m -8.532748,3.964873 c 1.889387,-1.598695 2.261474,-2.295977 1.014598,-1.901343 -1.222618,0.386958 -2.260748,1.277335 -2.272219,1.948826 -0.0059,0.342204 -0.353053,0.924509 -0.771575,1.294015 -1.466486,1.294732 0.271591,0.145693 2.029196,-1.341498 z m 51.592014,-3.078493 c 1.0787,-0.423578 2.37231,-1.134334 2.8747,-1.579458 l 0.91343,-0.809318 -1.1837,0.16381 c -1.15819,0.160283 -1.16227,0.156776 -0.18926,-0.162735 0.68689,-0.225555 1.1366,-0.20856 1.45411,0.05495 0.36039,0.2991 0.81457,0.03193 2.10288,-1.237001 1.54512,-1.521887 3.04751,-3.738073 2.70502,-3.990211 -0.7478,-0.550544 -6.297,-2.416863 -7.76375,-2.611122 -1.47475,-0.19532 -1.61488,-0.259754 -0.6764,-0.311025 l 1.1837,-0.06467 -1.1837,-0.629149 c -1.79819,-0.955761 -2.66923,-2.071887 -4.56897,-5.854568 -1.47786,-2.942639 -1.85741,-3.45842 -2.52479,-3.431008 -0.66723,0.02739 -0.7063,-0.02564 -0.25953,-0.352313 0.77844,-0.56921 0.14656,-1.490914 -0.88669,-1.293392 -0.9344,0.17862 -2.5824,-0.765893 -2.5824,-1.480048 0,-0.403049 -0.13357,-0.409222 -0.84044,-0.03886 -1.2429,0.651226 -13.217923,-0.847433 -14.214045,-1.778868 -1.514991,-1.416612 -4.015389,-1.978817 -6.547995,-1.472296 -0.837286,0.167456 -1.056872,0.382879 -1.056872,1.036831 0,0.454002 -0.167047,1.137587 -0.371215,1.51908 -0.291893,0.545403 -0.253145,0.811658 0.181329,1.24601 0.344517,0.344426 0.643438,0.425066 0.793964,0.214196 0.13278,-0.18601 0.545799,-0.563863 0.917818,-0.839672 0.670058,-0.496767 0.670338,-0.494369 0.03027,0.255723 -0.355376,0.416459 -0.566328,0.837006 -0.468781,0.934553 0.09755,0.09755 1.479774,0.498885 3.071614,0.891865 l 2.894259,0.714507 1.463817,-0.711672 c 1.36663,-0.664423 1.410809,-0.66764 0.665404,-0.04844 l -0.798431,0.663233 h 0.937803 c 0.515791,0 1.636026,-0.390303 2.489411,-0.867339 1.424566,-0.796321 1.038258,-0.231772 -0.522038,0.762899 -0.570075,0.363419 -0.532613,0.404615 0.382652,0.420758 0.558029,0.0098 2.523234,-0.209495 4.367124,-0.487413 4.532612,-0.683173 5.084742,-0.655204 3.580556,0.181383 l -1.183694,0.658339 3.18073,-0.217696 c 2.36553,-0.161896 3.11887,-0.117561 2.9393,0.172989 -0.15536,0.251373 -1.39474,0.390678 -3.47581,0.390678 -2.857938,0 -3.184605,0.05993 -2.806982,0.514935 0.235045,0.283215 0.672202,0.437491 0.971457,0.34284 0.299259,-0.09465 1.000665,0.129192 1.558695,0.497433 0.55803,0.368242 0.85822,0.670534 0.6671,0.671759 -0.19112,0.0014 -0.69558,-0.241579 -1.12102,-0.539567 -0.42544,-0.297987 -0.852916,-0.462399 -0.94995,-0.36536 -0.09704,0.09704 1.42415,1.250316 3.38043,2.562834 1.95628,1.312518 3.92992,2.884684 4.38588,3.493704 1.25158,1.671746 1.97661,3.266298 1.85942,4.089438 -0.0859,0.60353 -0.24372,0.460654 -0.86575,-0.783838 -0.85096,-1.702532 -1.04507,-0.995841 -0.24947,0.908289 0.62981,1.507357 0.41624,1.864408 -0.33434,0.558958 -0.5506,-0.957631 -0.5515,-0.95546 -0.37331,0.900148 0.12048,1.254476 0.073,1.694927 -0.14575,1.352798 -0.17841,-0.279015 -0.34472,-1.039963 -0.36958,-1.690997 l -0.0452,-1.183698 -0.25817,1.014598 c -0.19986,0.785424 -0.26721,0.84769 -0.29819,0.275667 -0.022,-0.406414 0.11644,-1.150422 0.30765,-1.653352 0.43923,-1.155255 0.33652,-1.244235 -0.92752,-0.803585 -1.44864,0.504996 -4.15494,4.010712 -4.15494,5.382266 0,0.378563 -0.15219,0.688296 -0.3382,0.688296 -0.67478,0 -0.30799,-1.006707 1.16961,-3.210204 l 1.50782,-2.248542 -1.08169,0.237578 c -0.59492,0.130667 -1.53977,0.559889 -2.09966,0.953827 -1.763143,1.240549 -2.464204,1.061094 -1.182895,-0.302797 l 0.680575,-0.724439 -2.96342,-0.567851 c -1.629881,-0.312316 -3.370278,-0.566838 -3.867549,-0.565604 -0.891487,0.0024 -0.89705,0.01644 -0.397976,1.016844 0.522457,1.047291 0.939115,1.263729 1.302104,0.676398 0.114961,-0.186009 0.370863,-0.338199 0.568669,-0.338199 0.240341,0 0.230892,0.155142 -0.02848,0.467662 -0.314038,0.378394 -0.176688,0.501323 0.71954,0.643982 0.725522,0.115488 1.237204,0.01248 1.483146,-0.298566 0.206518,-0.261181 0.496436,-0.474879 0.644266,-0.474879 0.14783,0 -0.0067,0.30438 -0.34335,0.676399 -0.595752,0.658298 -0.590364,0.67764 0.201232,0.722759 0.447353,0.0255 1.079698,0.04532 1.405215,0.04405 0.325516,-0.0014 0.591848,0.130061 0.591848,0.291839 0,0.161781 0.327969,0.294145 0.728815,0.294145 0.71514,0 0.71695,0.01312 0.0965,0.698683 -0.950009,1.049753 -0.756275,3.582487 0.35938,4.698136 2.07354,2.073547 8.78601,2.631055 12.78264,1.061675 z m -8.1934,-1.938413 c -0.76219,-0.968965 -0.82394,-1.608564 -0.35475,-3.674583 0.27382,-1.205701 0.29361,-1.12343 0.18208,0.75661 -0.10169,1.714041 1.4e-4,2.268695 0.54333,2.959244 0.36767,0.467411 0.59239,0.849837 0.49938,0.849837 -0.093,0 -0.48452,-0.401 -0.87004,-0.891108 z m 12.15063,-0.664609 c 0,-0.18601 0.14742,-0.485627 0.32761,-0.665813 0.18019,-0.180189 0.69743,-1.058094 1.14942,-1.950896 0.452,-0.892805 0.91556,-1.4716 1.03014,-1.286209 0.11457,0.185387 -0.27478,1.070901 -0.86525,1.967806 -1.31671,2.000073 -1.64192,2.383358 -1.64192,1.935112 z m -4.98844,-3.345085 c -0.60453,-0.262754 -1.09915,-0.566531 -1.09915,-0.67506 0,-0.108528 0.29437,-0.03978 0.65416,0.152775 1.15771,0.619588 4.04289,0.423027 5.12757,-0.349329 0.54024,-0.384689 0.98225,-0.534639 0.98225,-0.333231 0,0.632037 -2.14554,1.707061 -3.38199,1.694554 -0.65103,-0.0066 -1.67831,-0.226955 -2.28284,-0.489709 z m -3.97145,-7.946899 c -0.11849,-0.191712 0.0173,-0.248408 0.31824,-0.132916 0.5859,0.224831 0.6931,0.467243 0.20662,0.467243 -0.17503,0 -0.41122,-0.150448 -0.52486,-0.334327 z m -1.27064,-3.609849 c 0.23251,-0.09382 0.61298,-0.09382 0.8455,0 0.23251,0.09382 0.0423,0.170585 -0.42275,0.170585 -0.46503,0 -0.65526,-0.07676 -0.42275,-0.170585 z M 82.658083,55.041164 c 0,-0.167449 0.266332,-0.543337 0.591848,-0.835308 0.325517,-0.291974 0.784251,-0.820414 1.019407,-1.174309 0.235157,-0.353899 0.207144,-0.1758 -0.06225,0.395777 -0.503176,1.067601 -1.549003,2.157201 -1.549003,1.61384 z M 66.054185,76.484796 c 1.094869,-0.97655 2.063401,-1.927736 2.15229,-2.113746 0.180125,-0.376916 -1.617709,-0.382719 -2.526731,-0.0082 -0.835271,0.344178 -3.055018,3.156847 -2.807473,3.557383 0.416739,0.674302 1.225664,0.309364 3.181914,-1.43548 z m 28.661693,0.266484 c -0.104358,-0.271956 -0.52499,-1.717758 -0.934738,-3.212893 -0.620133,-2.262811 -0.86364,-2.725004 -1.452888,-2.75766 -0.612029,-0.03392 -0.623812,-0.06093 -0.087,-0.199491 0.483081,-0.12469 0.572328,-0.359935 0.402113,-1.059916 -0.410442,-1.687879 -2.815499,-5.3033 -4.736353,-7.119968 -1.654085,-1.564365 -1.790298,-1.781465 -0.992016,-1.581109 0.896749,0.225068 0.910182,0.208107 0.434728,-0.548857 -0.269839,-0.429608 -1.870641,-1.465959 -3.557336,-2.303002 -3.697817,-1.835086 -4.096368,-2.149449 -4.728709,-3.729824 -0.507938,-1.269458 -2.094451,-2.322665 -3.603804,-2.392382 -0.496406,-0.02293 -0.349783,-0.129811 0.434224,-0.316537 0.84265,-0.200695 1.39264,-0.146501 1.908898,0.188089 0.662881,0.429625 0.710168,0.412529 0.550271,-0.198918 -0.210049,-0.803227 -1.589916,-1.944122 -2.68322,-2.218524 -0.434802,-0.109126 -0.790547,-0.336146 -0.790547,-0.504488 0,-0.168339 0.55603,-0.07375 1.235625,0.210204 0.679594,0.283952 1.293101,0.458798 1.363352,0.388547 0.208344,-0.208341 -1.684067,-1.385508 -2.598977,-1.616684 l -0.845498,-0.213633 0.904098,-0.04002 c 0.518408,-0.02293 1.333963,0.321692 1.911735,0.807856 1.124544,0.946242 2.544916,3.421313 2.243385,3.909206 -0.107385,0.173753 -0.03408,0.315915 0.16291,0.315915 0.802757,0 0.46959,-3.364796 -0.431552,-4.358435 -0.467571,-0.515565 -0.552364,-0.751006 -0.234626,-0.65146 0.273654,0.08573 0.806318,0.774395 1.183698,1.530359 l 0.686138,1.374482 2.2197,-0.17493 c 2.239945,-0.176523 3.045035,0.05549 6.066183,1.748179 0.465024,0.260546 3.489212,0.803146 6.720416,1.205786 l 5.874912,0.732066 1.18837,-1.125774 1.18838,-1.125771 -0.20771,1.106192 c -0.2408,1.282496 0.64342,2.444901 1.85982,2.444901 0.70449,0 0.70863,-0.02229 0.1239,-0.668424 -0.33271,-0.367633 -0.73677,-0.586935 -0.89792,-0.487339 -0.44453,0.274736 -0.35027,-0.680876 0.11284,-1.143993 0.22321,-0.223211 0.71783,-0.396194 1.09915,-0.384401 0.65408,0.02023 0.65025,0.03875 -0.0676,0.3273 -0.41852,0.168227 -0.76095,0.479242 -0.76095,0.691144 0,0.211905 0.19024,0.307504 0.42275,0.212443 0.23251,-0.09506 0.72713,-0.284006 1.09915,-0.419881 l 0.6764,-0.247045 -0.6764,0.525545 c -0.67172,0.521903 -0.67075,0.531555 0.13993,1.394487 0.80348,0.855283 0.82373,0.85837 1.28742,0.196355 0.2591,-0.369925 0.64336,-0.67259 0.85389,-0.67259 0.21054,0 0.0416,0.317917 -0.37553,0.706485 -0.41708,0.388567 -0.71101,0.807089 -0.65319,0.930048 0.0578,0.122959 0.60834,1.189579 1.22336,2.370263 1.04684,2.009672 1.15633,2.112217 1.7152,1.606447 0.32833,-0.297139 0.73718,-0.536868 0.90854,-0.532732 0.17136,0.0041 -0.0617,0.294399 -0.51796,0.645031 -0.72182,0.554734 -0.78011,0.745959 -0.44896,1.472746 0.71101,1.560513 2.56676,3.328943 4.53698,4.32351 1.08037,0.545366 2.12814,0.991576 2.32837,0.991576 0.20024,0 0.75212,-0.418521 1.2264,-0.930048 l 0.86233,-0.930048 -0.71915,0.987988 c -0.39554,0.543395 -0.59514,1.112007 -0.44356,1.263588 0.15158,0.151577 1.41151,0.687995 2.79985,1.19204 2.1462,0.779198 3.07718,0.919186 6.21622,0.934712 2.52812,0.01251 3.73347,-0.106204 3.82362,-0.376574 0.23275,-0.698074 -3.79851,-4.471313 -5.71011,-5.344632 -2.0361,-0.9302 -3.13438,-1.767686 -3.4313,-2.616523 -0.11108,-0.317572 -0.81146,-0.962156 -1.55638,-1.432409 -0.74493,-0.470253 -1.50871,-1.143303 -1.69729,-1.49567 -0.18858,-0.352366 -0.99412,-0.898325 -1.79009,-1.213246 -1.4399,-0.569686 -1.90487,-0.926842 -4.26715,-3.277736 -0.68115,-0.67787 -1.59235,-1.338569 -2.02489,-1.468228 -0.43254,-0.129659 -0.71532,-0.306858 -0.6284,-0.393776 0.0869,-0.08692 0.70715,0.0714 1.37828,0.351822 1.45346,0.607295 1.68673,0.07463 0.45931,-1.048803 -1.04693,-0.958234 -1.92766,-1.167072 -3.2828,-0.778423 -0.63445,0.181958 -1.21649,0.267887 -1.29342,0.190957 -0.0769,-0.07693 0.47582,-0.324343 1.22834,-0.5498 1.08754,-0.325838 1.58227,-0.321256 2.41178,0.02235 1.35516,0.561326 2.37344,1.878078 2.37344,3.069118 0,0.65332 0.21216,1.013536 0.68541,1.16374 0.37698,0.119645 0.91492,0.56781 1.19543,0.995919 0.2805,0.428107 1.19132,1.038573 2.02404,1.356592 0.83272,0.318016 1.669,0.867769 1.8584,1.221668 0.45831,0.856368 2.34923,1.856971 2.36408,1.250985 0.006,-0.237287 0.37805,0.318851 0.82718,1.235865 0.44913,0.917014 1.04395,1.79453 1.32183,1.95004 0.61858,0.346178 0.49638,-0.763437 -0.58461,-5.308335 -0.64321,-2.704283 -0.73471,-2.8929 -0.82035,-1.690997 -0.053,0.744039 -0.26796,1.691007 -0.47764,2.104371 -0.3652,0.719935 -0.42815,0.676578 -1.49554,-1.029861 -0.61286,-0.97979 -1.26074,-2.433226 -1.43973,-3.229854 -0.33918,-1.5096 -0.72371,-2.21826 -0.72371,-1.333777 0,0.652342 -2.01041,3.451513 -2.28309,3.178833 -0.11225,-0.112245 0.18263,-0.621018 0.65529,-1.130603 0.73849,-0.796189 1.6278,-2.690788 1.6278,-3.467872 0,-0.13317 -0.33272,-0.665113 -0.73938,-1.182098 -0.68297,-0.868256 -0.75856,-0.891088 -0.99083,-0.299256 -0.3689,0.940025 -0.30592,-1.853332 0.0656,-2.910381 0.25191,-0.716671 0.27448,-0.66514 0.14814,0.338199 -0.11344,0.90096 0.0495,1.426045 0.68202,2.198296 l 0.83107,1.014598 0.012,-1.352797 c 0.0101,-1.138213 0.0702,-1.252579 0.37905,-0.720984 0.20189,0.347497 0.2889,1.214745 0.19333,1.927215 -0.11466,0.85486 -0.006,1.502606 0.31936,1.904681 0.44054,0.544332 0.4783,0.355932 0.35422,-1.767348 -0.12331,-2.110205 -0.31289,-2.659941 -1.69116,-4.90389 -0.85376,-1.389996 -1.72007,-2.487042 -1.92513,-2.437885 -0.27014,0.06476 -0.26923,-0.104221 0.003,-0.613467 0.39372,-0.735822 -0.043,-1.674205 -0.77929,-1.674205 -0.19206,0 -0.0593,0.342426 0.29506,0.760948 l 0.64427,0.760949 -0.78176,-0.6631 c -0.45102,-0.382565 -0.71694,-0.910989 -0.62854,-1.249033 0.0843,-0.322262 -0.13464,-0.84645 -0.48648,-1.164863 -0.35184,-0.318412 -0.63972,-0.419436 -0.63972,-0.224498 0,0.194938 0.25007,0.450392 0.55571,0.567676 0.30564,0.117284 0.46589,0.30306 0.35611,0.412835 -0.10977,0.109776 -2.01917,-1.625959 -4.24311,-3.857187 -2.22394,-2.231229 -4.65482,-4.400346 -5.40195,-4.82026 -1.29332,-0.726883 -2.10778,-2.063378 -1.4041,-2.304076 0.86389,-0.295504 0.17487,-0.728893 -1.10779,-0.696788 -1.39099,0.03482 -1.40735,0.04783 -0.5073,0.403486 0.51153,0.202129 0.93005,0.486552 0.93005,0.63205 0,0.357786 -1.18072,-0.116104 -3.215569,-1.290593 -3.70267,-2.137133 -8.808877,-3.241021 -15.04719,-3.252982 -3.978103,-0.0076 -4.387101,0.05581 -6.933085,1.075391 -1.488077,0.595924 -3.66557,1.683341 -4.838871,2.416482 -1.173305,0.733142 -2.340093,1.332985 -2.592863,1.332985 -0.25277,0 -0.510312,0.119785 -0.572317,0.266188 -0.062,0.146403 -0.797586,0.678926 -1.634629,1.183383 -0.837044,0.504458 -2.054561,1.315044 -2.705595,1.801303 l -1.183697,0.884108 1.24577,-1.153853 c 0.872842,-0.808444 1.158972,-1.294293 0.955823,-1.622995 -0.245043,-0.396486 -0.375956,-0.397759 -0.845319,-0.0082 -0.591771,0.491126 -1.606471,2.240853 -1.734996,2.991793 -0.121157,0.707877 -1.097613,1.644949 -2.182221,2.094209 -0.544582,0.225574 -0.99015,0.538999 -0.99015,0.696501 0,0.157502 -0.418521,0.51342 -0.930048,0.790927 l -0.930048,0.50456 1.183698,0.01543 c 1.677566,0.02186 3.534057,0.593315 4.454078,1.371021 0.758195,0.640914 0.726266,0.639571 -0.843825,-0.03548 -2.280031,-0.980288 -5.01331,-1.232837 -5.606546,-0.518032 -0.249658,0.300821 -0.641002,0.546945 -0.869652,0.546945 -0.22865,0 -0.893485,0.456569 -1.477407,1.014598 -0.583925,0.558029 -1.23389,1.014598 -1.444368,1.014598 -0.267749,0 -0.256237,0.152367 0.03833,0.507299 0.325456,0.392152 0.330059,0.616901 0.02029,0.990166 -0.326055,0.392873 0.02489,0.912878 1.883053,2.790145 2.519219,2.545122 2.727672,3.307653 1.324145,4.843772 -1.140432,1.248171 -1.908432,2.559106 -1.650396,2.817142 0.460844,0.460841 1.159171,0.204614 1.456178,-0.534297 0.241569,-0.600994 0.310369,-0.634039 0.327299,-0.157202 0.01704,0.479986 0.149075,0.535441 0.64408,0.270522 0.997834,-0.534027 2.520427,-4.32818 2.793794,-6.961856 l 0.245725,-2.367395 -0.06633,2.536495 c -0.05063,1.936346 -0.279404,2.996608 -0.966871,4.48114 -0.734123,1.585283 -0.804397,1.944646 -0.380289,1.944646 0.286141,0 0.599848,0.30438 0.697134,0.676399 0.204915,0.783591 0.859814,0.881182 1.416013,0.211006 0.212433,-0.255966 0.837071,-1.283247 1.388082,-2.282845 0.551011,-0.999599 1.004594,-1.580916 1.007962,-1.291817 0.0034,0.2891 -0.420432,1.202238 -0.941787,2.029196 -1.529665,2.426313 -1.500144,2.358785 -0.936589,2.142526 0.28491,-0.109329 0.842837,-0.724351 1.239839,-1.36671 0.397002,-0.642363 0.797917,-1.091836 0.890922,-0.998831 0.09301,0.093 -0.152643,0.689686 -0.545878,1.325954 -0.812483,1.314625 -0.870514,1.584318 -0.340901,1.584318 0.42144,0 1.519851,-1.282523 2.436821,-2.845267 0.548843,-0.935371 0.567319,-0.682804 0.04417,0.603824 -0.138574,0.340807 0.03403,0.421573 0.649488,0.30392 0.572135,-0.109374 1.216858,-0.773685 2.031035,-2.092761 1.196962,-1.939235 2.308738,-2.754302 3.696252,-2.709811 0.560808,0.01799 0.408166,0.173929 -0.617292,0.630667 -0.74928,0.333732 -1.809204,1.192666 -2.355386,1.908749 l -0.993061,1.30197 1.203614,-0.918042 c 0.661968,-0.504922 1.548855,-0.918039 1.970843,-0.918039 0.617545,0 0.446345,0.214459 -0.877424,1.099148 -1.241746,0.82987 -1.882428,1.590138 -2.615174,3.103296 -0.924028,1.908161 -0.941178,2.025594 -0.358109,2.451945 0.935947,0.68438 1.159517,0.549713 1.159517,-0.698435 0,-0.670271 0.287814,-1.477762 0.693126,-1.944646 l 0.693129,-0.798415 -0.52403,1.082353 c -1.153425,2.382344 -0.142243,5.494542 2.174473,6.692562 1.265849,0.654595 1.359892,0.644537 1.359892,-0.14547 0,-0.361041 0.124654,-0.73348 0.277006,-0.827638 0.152352,-0.09416 0.210292,0.283337 0.128756,0.83888 -0.09058,0.617173 0.05452,1.235107 0.373044,1.588586 0.286712,0.318178 0.631722,1.020855 0.766694,1.561501 0.134972,0.540648 0.985834,1.751179 1.890805,2.690074 1.643658,1.705265 1.645955,1.70629 2.165689,0.964267 0.286154,-0.408545 0.854904,-0.915901 1.263885,-1.127458 0.641263,-0.33171 0.6156,-0.248066 -0.186443,0.607737 -0.511526,0.545813 -0.923848,1.136248 -0.916269,1.312082 0.0076,0.175829 1.26314,1.350964 2.790144,2.611405 3.087364,2.548424 8.211976,5.259531 8.810457,4.66105 0.552485,-0.552486 1.03588,-0.42302 0.560271,0.150055 -0.357988,0.431347 -0.147509,0.632386 1.395934,1.333317 2.149182,0.976017 2.459988,1.028096 2.207403,0.369882 z m -6.03362,-6.838748 c 0.244135,-0.0977 0.535832,-0.08568 0.648216,0.02668 0.11238,0.11238 -0.08737,0.192313 -0.443887,0.177629 -0.393985,-0.01623 -0.474121,-0.09637 -0.204329,-0.204327 z m 25.010952,-6.502474 c 0.60746,-0.574797 1.27964,-1.045083 1.49371,-1.045083 0.21408,0 0.32582,0.0442 0.24832,0.09823 -0.0775,0.05403 -0.74968,0.524314 -1.49372,1.045083 l -1.35279,0.946853 z m -30.422141,0.414886 c 0.244136,-0.0977 0.535833,-0.08568 0.648216,0.02668 0.112381,0.11238 -0.08737,0.192314 -0.443886,0.177629 -0.393986,-0.01623 -0.474122,-0.09637 -0.20433,-0.204326 z m -7.025231,-0.732841 c -0.01742,-0.586657 2.142993,-2.75672 2.742782,-2.755059 0.251113,6.76e-4 -0.02919,0.297453 -0.622902,0.659462 -0.593712,0.362008 -1.310519,1.084341 -1.592908,1.605181 -0.282387,0.520844 -0.519525,0.741529 -0.526972,0.490416 z m 6.687032,-0.619956 c 0.244135,-0.0977 0.535832,-0.08568 0.648216,0.02668 0.11238,0.11238 -0.08737,0.192314 -0.443887,0.177629 -0.393985,-0.01623 -0.474121,-0.09637 -0.204329,-0.204327 z m 1.352797,-0.338199 c 0.244136,-0.0977 0.535833,-0.08568 0.648216,0.02668 0.11238,0.11238 -0.08737,0.192313 -0.443886,0.177629 -0.393986,-0.01623 -0.474122,-0.09637 -0.20433,-0.204327 z m 26.104763,-3.296267 c 0,-0.093 0.30438,-0.332 0.6764,-0.531098 0.37202,-0.199098 0.6764,-0.285903 0.6764,-0.192898 0,0.093 -0.30438,0.332 -0.6764,0.531098 -0.37202,0.199098 -0.6764,0.285903 -0.6764,0.192898 z m 3.88929,-0.177105 c 0.64925,-0.294148 2.46069,-0.485934 2.17012,-0.229759 -0.0775,0.06833 -0.74968,0.216928 -1.49372,0.330222 -0.94283,0.143562 -1.14781,0.113117 -0.6764,-0.100463 z M 71.508261,55.750179 c 0.0182,-0.53796 0.792018,-1.370475 1.680241,-1.807642 l 0.845499,-0.416141 -0.824114,0.663649 c -0.453265,0.365005 -1.023976,0.936971 -1.268248,1.271034 -0.244274,0.334063 -0.439293,0.464158 -0.433378,0.2891 z m -3.36368,-1.549072 c -0.016,-0.490916 0.283905,-1.251865 0.666425,-1.690996 l 0.695497,-0.798414 -0.403874,0.825747 c -0.222133,0.454161 -0.522024,1.21511 -0.666425,1.690997 l -0.262551,0.865249 -0.02909,-0.892583 z m 7.68795,0.31157 c 0.180355,-0.180355 0.610416,-0.26804 0.95569,-0.194854 0.464963,0.09856 0.37992,0.183602 -0.327918,0.327922 -0.617153,0.125827 -0.839532,0.07869 -0.627772,-0.133068 z m 34.388799,-1.279083 c -0.936,-0.238174 -0.9491,-0.26087 -0.1691,-0.293006 0.46503,-0.01918 1.07378,0.112691 1.3528,0.293006 0.57559,0.371978 0.27815,0.371978 -1.1837,0 z m -8.75762,-1.014598 c 0.14259,-0.279015 0.54306,-0.897558 0.88995,-1.37454 0.34689,-0.476983 0.91919,-1.770595 1.27176,-2.874694 0.35258,-1.104099 0.64923,-1.74683 0.65924,-1.428291 0.0322,1.026686 -1.3704,4.330572 -2.23792,5.271395 -0.46325,0.502385 -0.72561,0.685144 -0.58303,0.40613 z M 73.103953,51.656814 c 0.232512,-0.09382 0.612986,-0.09382 0.845498,0 0.232512,0.09382 0.04228,0.170584 -0.422749,0.170584 -0.465024,0 -0.655261,-0.07676 -0.422749,-0.170584 z m 27.490677,0.03497 c 0.0213,-0.567123 0.97858,-2.034401 0.97987,-1.501987 6.7e-4,0.279014 -0.22222,0.802719 -0.49531,1.163788 -0.2731,0.361068 -0.49115,0.513258 -0.48456,0.338199 z M 61.170482,50.697099 c 0.540399,-1.443716 1.872042,-6.995501 1.872042,-7.804768 0,-0.469099 -0.235813,-1.339963 -0.524027,-1.935257 l -0.524029,-1.082353 0.693129,0.798416 c 0.509886,0.587341 0.690072,1.257904 0.681576,2.536493 -0.01562,2.352173 -1.135067,6.927282 -1.861993,7.609921 -0.550501,0.516964 -0.572977,0.508787 -0.336698,-0.122452 z M 104.90093,50.47103 c 0.19653,-0.196528 0.55696,-0.290781 0.80095,-0.209451 0.25329,0.08443 0.1,0.237734 -0.35733,0.357325 -0.56254,0.147106 -0.69459,0.103093 -0.44362,-0.147874 z m 1.68476,-0.505213 c 0.23251,-0.09382 0.61298,-0.09382 0.8455,0 0.23251,0.09382 0.0423,0.170585 -0.42275,0.170585 -0.46503,0 -0.65526,-0.07677 -0.42275,-0.170585 z M 67.637363,47.991504 c 0.488408,-1.116057 1.116254,-2.557412 1.395215,-3.203007 0.327174,-0.757175 0.442067,-1.717508 0.32369,-2.705595 -0.121779,-1.016456 -0.08491,-1.304226 0.109594,-0.855384 0.56947,1.314151 0.342403,3.223953 -0.634195,5.334066 -1.307665,2.825432 -2.352396,4.076276 -1.194304,1.42992 z m 41.597277,-0.169099 c 0.2509,-0.941892 0.41084,-1.195887 0.62082,-0.985905 0.0778,0.07778 -0.0807,0.521672 -0.35231,0.986415 l -0.49373,0.844988 z m -1.52243,-0.275883 c -0.0151,-0.244741 0.15124,-0.777405 0.36955,-1.183698 0.21832,-0.406292 0.50711,-1.195284 0.64178,-1.753313 0.22236,-0.921376 0.24722,-0.936913 0.2706,-0.169099 0.0263,0.864092 -1.23225,3.913595 -1.28193,3.10611 z M 82.066971,46.300508 c 0.0038,-0.744039 0.07301,-1.008595 0.153908,-0.587906 0.08089,0.42069 0.07782,1.029449 -0.0068,1.352798 -0.08465,0.323349 -0.150837,-0.02087 -0.147083,-0.764892 z M 64.480608,45.962309 c 0.0038,-0.744039 0.07301,-1.008595 0.153908,-0.587906 0.08089,0.42069 0.07782,1.029448 -0.0068,1.352797 -0.08465,0.323349 -0.150837,-0.02087 -0.147083,-0.764891 z m 10.398891,0.648223 c -1.011375,-0.561195 -2.975511,-0.615976 -4.290024,-0.119648 -0.751929,0.283908 -0.865699,0.272193 -0.541217,-0.05574 0.684887,-0.692165 3.893255,-0.794579 5.114121,-0.163245 0.588453,0.304301 1.069917,0.625462 1.069917,0.713691 0,0.253633 -0.439253,0.131854 -1.352797,-0.375059 z m 12.201875,-0.676406 c 0.01623,-0.393985 0.09637,-0.474121 0.204327,-0.204329 0.0977,0.244135 0.08568,0.535832 -0.02668,0.648216 -0.112384,0.11238 -0.192314,-0.08737 -0.177629,-0.443887 z m -1.660846,-1.511862 c -0.08741,-1.847843 -1.598387,-4.505825 -3.876998,-6.820089 -1.136407,-1.154187 -1.586462,-1.756925 -1.000126,-1.339416 2.746638,1.955778 5.28598,6.026222 5.065092,8.11909 l -0.131113,1.24226 z m 11.534037,-0.320052 c 0,-0.837043 0.06596,-1.17947 0.146565,-0.760948 0.08061,0.418522 0.08061,1.103375 0,1.521897 -0.08061,0.418521 -0.146565,0.07609 -0.146565,-0.760949 z M 59.88936,44.863161 c -0.08211,-0.139507 -0.258219,-0.786314 -0.391354,-1.437347 -0.133139,-0.651034 -0.458923,-1.526125 -0.723967,-1.944646 -0.296787,-0.468647 -0.342362,-0.760949 -0.118647,-0.760949 0.199791,0 0.563143,0.494617 0.807448,1.099148 0.714033,1.766868 1.038725,4.083966 0.42652,3.043794 z m 56.27716,-0.620031 c 0.0162,-0.393985 0.0964,-0.474122 0.20433,-0.20433 0.0977,0.244136 0.0857,0.535833 -0.0267,0.648216 -0.11238,0.112381 -0.19231,-0.08737 -0.17763,-0.443886 z M 67.649995,43.920038 c -0.115985,-0.302249 -0.201235,-0.727335 -0.189442,-0.944635 0.0118,-0.217296 0.16725,-0.03057 0.345464,0.414961 0.178214,0.445527 0.263464,0.870613 0.189442,0.944634 -0.07402,0.07402 -0.229482,-0.112711 -0.345464,-0.41496 z m 11.976182,-1.126471 c -0.193809,-0.719756 -0.673595,-1.717004 -1.06619,-2.216107 -0.392592,-0.499102 -0.633779,-0.987487 -0.535969,-1.085299 0.242648,-0.242647 1.797293,2.529196 2.064007,3.680003 0.33059,1.426423 -0.0626,1.104109 -0.461848,-0.378597 z m 33.197583,-0.551451 c 0.007,-0.558029 0.0827,-0.745369 0.16843,-0.416312 0.0858,0.329056 0.0801,0.785626 -0.0125,1.014597 -0.0926,0.228971 -0.1628,-0.04026 -0.15591,-0.598285 z m -4.80072,-0.206309 c 0,-1.257231 -2.09722,-4.700558 -4.37927,-7.190119 -3.43801,-3.750627 -3.859496,-4.437271 -0.67937,-1.106751 3.20773,3.359411 5.39683,6.627642 5.39683,8.057187 0,0.52431 -0.0761,0.953291 -0.16909,0.953291 -0.093,0 -0.1691,-0.321124 -0.1691,-0.713608 z M 79.545232,39.267143 c -1.174857,-1.531576 -4.36524,-4.53863 -5.841797,-5.506107 -0.480832,-0.315054 -0.802703,-0.644362 -0.715272,-0.731796 0.471038,-0.471037 6.662462,5.186679 7.606687,6.950983 0.633187,1.18312 0.156533,0.859295 -1.049618,-0.71308 z M 66.479193,38.359907 c -1.557935,-0.870018 -1.718749,-1.095006 -0.472031,-0.660398 0.579968,0.202178 1.234146,0.584073 1.453729,0.848655 0.502696,0.60571 0.40729,0.587414 -0.981698,-0.188257 z m 32.607813,-3.310614 -2.341134,-2.614957 2.112028,2.029196 c 1.7768,1.707118 3.04368,3.230602 2.66669,3.206806 -0.053,-0.0033 -1.14996,-1.182819 -2.437584,-2.621045 z m -7.039354,-0.936947 c -1.845892,-1.721441 -3.983051,-4.614433 -3.974305,-5.379865 0.0024,-0.196095 0.390643,0.328317 0.863118,1.16536 0.472475,0.837044 1.878396,2.456637 3.124272,3.599097 1.245872,1.14246 2.189126,2.15539 2.096122,2.250956 -0.09301,0.09557 -1.042148,-0.64043 -2.109207,-1.635548 z m -5.356776,-1.086161 -0.8199,-0.930048 0.930048,0.819901 c 0.86927,0.766322 1.085143,1.040195 0.8199,1.040195 -0.06058,0 -0.4791,-0.418522 -0.930048,-0.930048 z m -20.942758,0.253649 c -0.450931,-0.291414 -0.450931,-0.327841 0,-0.327841 0.279014,0 0.735583,0.147528 1.014598,0.327841 0.450931,0.291415 0.450931,0.327842 0,0.327842 -0.279015,0 -0.735584,-0.147529 -1.014598,-0.327842 z m 11.498776,-0.676398 c 0.279014,-0.180313 0.811678,-0.319476 1.183697,-0.30925 l 0.676399,0.01859 -0.676399,0.290659 c -0.372019,0.159862 -0.904683,0.299025 -1.183697,0.30925 -0.450931,0.01652 -0.450931,-0.01784 0,-0.309249 z m 18.55782,-0.591849 c -0.420676,-0.536403 -0.408713,-0.548365 0.127691,-0.127689 0.563355,0.441813 0.74251,0.719538 0.464158,0.719538 -0.07023,0 -0.336559,-0.266332 -0.591849,-0.591849 z M 80.967086,31.907078 c 0,-0.196987 0.15219,-0.264101 0.338199,-0.14914 0.18601,0.11496 0.3382,0.276131 0.3382,0.358158 0,0.08203 -0.15219,0.149141 -0.3382,0.149141 -0.186009,0 -0.338199,-0.161172 -0.338199,-0.358159 z m 1.352797,0 c 0,-0.196987 0.15219,-0.264101 0.3382,-0.14914 0.186009,0.11496 0.338199,0.276131 0.338199,0.358158 0,0.08203 -0.15219,0.149141 -0.338199,0.149141 -0.18601,0 -0.3382,-0.161172 -0.3382,-0.358159 z m 3.000653,-0.57189 c -0.420676,-0.536403 -0.408714,-0.548365 0.127691,-0.127688 0.563355,0.441813 0.74251,0.719537 0.464158,0.719537 -0.07023,0 -0.336559,-0.266332 -0.591849,-0.591849 z m 8.635091,-0.845498 -0.644267,-0.760948 0.760949,0.644265 c 0.715102,0.605451 0.91491,0.877632 0.644266,0.877632 -0.06418,0 -0.406603,-0.342427 -0.760948,-0.760949 z M 78.89475,27.276797 c -0.420676,-0.536403 -0.408714,-0.548365 0.12769,-0.127689 0.563356,0.441813 0.74251,0.719538 0.464158,0.719538 -0.07023,0 -0.336559,-0.266332 -0.591848,-0.591849 z M 100.115,76.274964 c -0.55232,-0.610308 -0.868296,-3.03099 -0.535471,-4.102209 0.09182,-0.295519 -0.05416,-0.507299 -0.349681,-0.507299 -0.279014,0 -0.590959,-0.111849 -0.69321,-0.248556 -0.102252,-0.136707 -0.656002,-0.342576 -1.230555,-0.457486 -0.962309,-0.192462 -1.075454,-0.115579 -1.435525,0.975452 -0.668995,2.027075 -0.199158,2.902646 2.13833,3.984884 2.448792,1.133776 2.875882,1.205809 2.106112,0.355214 z M 74.648414,74.746536 c 1.79362,-1.346507 5.216687,-2.911321 6.393577,-2.922745 l 1.108793,-0.01076 -1.860096,-1.669467 c -2.065806,-1.854096 -2.514468,-2.003652 -3.043794,-1.014598 -0.326318,0.609733 -0.25249,0.680937 0.74905,0.722455 0.794373,0.03294 0.894159,0.08783 0.350098,0.192621 -0.586157,0.112901 -0.771176,0.39364 -0.805469,1.222192 l -0.04452,1.075626 -0.232282,-1.183698 -0.232282,-1.183698 -0.369094,1.183698 c -0.276224,0.885856 -0.376771,0.992226 -0.399596,0.422749 -0.04364,-1.08868 -0.617826,-0.943214 -1.929535,0.48884 -0.817806,0.892833 -1.144761,1.568988 -1.144761,2.367395 0,0.614684 0.08625,1.117607 0.191665,1.117607 0.105416,0 0.676128,-0.363696 1.268247,-0.808212 z m 20.598278,-1.199897 c -0.0802,-0.546429 0.08213,-1.450429 0.36072,-2.008884 0.278592,-0.558455 0.421299,-1.100609 0.317123,-1.204784 -0.239215,-0.239212 -1.595986,-0.24837 -1.831992,-0.01238 -0.29564,0.295644 0.119757,1.857803 0.441188,1.659148 0.16474,-0.101815 0.299526,0.331162 0.299526,0.962174 0,0.942933 0.207093,1.598222 0.505091,1.598222 0.02979,0 -0.01147,-0.44708 -0.09166,-0.993512 z M 31.285597,72.470215 c 0.818449,-0.580435 3.061416,-2.673043 4.984371,-4.650241 1.922955,-1.977197 3.597041,-3.597098 3.720192,-3.599783 0.123151,-0.0027 1.060955,-0.478823 2.084007,-1.058087 1.023053,-0.579264 2.879144,-1.385731 4.124647,-1.792152 2.513509,-0.820181 3.989455,-1.804253 3.997314,-2.665166 0.0045,-0.48768 0.05005,-0.496335 0.324847,-0.06165 0.274219,0.43376 0.392159,0.409718 0.829563,-0.1691 0.280445,-0.371113 0.514736,-0.848708 0.520654,-1.061317 0.0059,-0.212612 0.223053,-0.468034 0.482529,-0.567603 0.497407,-0.190873 3.025633,-4.961638 2.766633,-5.220637 -0.08298,-0.08298 -0.498956,0.09293 -0.924393,0.390921 -0.425435,0.297987 -0.907765,0.541795 -1.071842,0.541795 -0.164077,0 0.744877,-0.804657 2.019899,-1.788127 2.884853,-2.2252 3.060348,-2.900929 1.206817,-4.646828 -0.737305,-0.694489 -1.549812,-1.395056 -1.805572,-1.556816 -0.820515,-0.518954 -1.624733,-2.381112 -1.20822,-2.797625 0.26944,-0.269442 0.16177,-0.371181 -0.392819,-0.371181 -0.472498,0 -0.675702,0.142863 -0.532586,0.374432 0.15707,0.254143 -0.0089,0.298173 -0.516495,0.137055 -0.411348,-0.130557 -1.64958,-0.275341 -2.751623,-0.321742 -1.102046,-0.0464 -2.102203,-0.182852 -2.222573,-0.303221 -0.12037,-0.120371 -0.461142,-0.02994 -0.757271,0.20096 -0.48636,0.379226 -0.489369,0.356923 -0.03112,-0.230683 0.471663,-0.604803 0.453812,-0.636714 -0.254117,-0.454289 -0.418778,0.107915 -0.685984,0.07416 -0.593791,-0.07501 0.09219,-0.149171 -0.06555,-0.360697 -0.350535,-0.470057 -0.30052,-0.11532 -0.603575,0.02376 -0.721521,0.331118 -0.149342,0.389179 -0.270532,0.421271 -0.456226,0.120811 -0.33753,-0.546136 -3.373198,0.583983 -3.373198,1.255774 0,0.363089 0.152274,0.391756 0.654165,0.123153 0.931716,-0.49864 1.600497,-0.432952 1.600497,0.1572 0,0.279015 -0.15219,0.507299 -0.338199,0.507299 -0.18601,0 -0.242095,0.09611 -0.124632,0.213566 0.117461,0.117464 0.0533,0.513022 -0.142571,0.879017 -0.292884,0.547258 -0.57609,0.626877 -1.594548,0.44827 -0.681125,-0.119449 -1.771074,-0.225136 -2.422107,-0.234859 l -1.183698,-0.01769 1.183698,-0.390508 c 1.447246,-0.477457 2.029196,-0.837653 2.029196,-1.255967 0,-0.554535 -0.932649,-0.343211 -1.165708,0.264129 -0.184765,0.481495 -0.274443,0.499906 -0.517706,0.1063 -0.243551,-0.394074 -0.38605,-0.399872 -0.827305,-0.03365 -0.427145,0.354497 -0.533075,0.35656 -0.533075,0.01039 0,-0.290533 -0.221526,-0.231548 -0.676399,0.180105 -0.372019,0.336674 -0.676398,0.507096 -0.676398,0.378715 0,-0.128377 -0.329585,-0.05703 -0.732412,0.158562 -0.703437,0.376466 -6.97529,0.801004 -6.622561,0.448276 0.09457,-0.09457 1.293506,-0.239908 2.664309,-0.322984 3.019828,-0.183009 3.667816,-0.304163 5.100818,-0.953705 0.611458,-0.277156 1.644407,-0.609694 2.29544,-0.738973 1.59151,-0.316034 3.34929,-1.231208 2.751876,-1.432743 -0.389223,-0.131302 -0.389223,-0.201007 0,-0.447603 0.336357,-0.213102 0.249858,-0.293481 -0.31989,-0.29726 -0.435455,-0.0029 -0.688444,0.144432 -0.57189,0.333021 0.117259,0.189728 -0.148765,0.338199 -0.605972,0.338199 -0.448244,0 -1.302038,0.169786 -1.897319,0.377302 -1.154298,0.40239 -1.867499,0.134075 -1.038007,-0.390512 0.343978,-0.217539 -0.05042,-0.31623 -1.278042,-0.319811 -1.368633,-0.004 -1.775546,-0.124166 -1.775546,-0.524377 0,-0.438195 -0.118719,-0.453256 -0.760948,-0.09653 -0.418522,0.232465 -0.837044,0.440809 -0.930048,0.462987 -0.09301,0.02218 -0.625669,0.239164 -1.183698,0.482191 l -1.014598,0.441867 0.845498,0.23425 c 0.742554,0.205729 0.660369,0.267047 -0.675,0.503617 -0.836275,0.148152 -3.868033,1.086712 -6.737241,2.085689 -2.869209,0.998976 -5.263317,1.81632 -5.320241,1.81632 -0.396359,0 -1.187239,1.8694 -1.307602,3.090779 -0.112692,1.143533 -0.07394,1.303945 0.172484,0.713963 0.35372,-0.846872 0.773159,-1.064699 0.455338,-0.236469 -0.16327,0.425475 -0.01763,0.483983 0.771563,0.309949 1.828097,-0.40313 2.050824,-0.569548 1.141923,-0.853219 -0.786114,-0.24535 -0.770907,-0.260982 0.216516,-0.222539 0.773048,0.0301 1.011444,0.173131 0.876157,0.525684 -0.120826,0.314867 -0.01908,0.423814 0.290782,0.311367 0.262153,-0.09514 0.438594,-0.344186 0.392092,-0.553447 -0.0465,-0.209261 0.06764,-0.380474 0.253649,-0.380474 0.18601,0 0.338199,0.239445 0.338199,0.532096 0,0.330603 0.224123,0.483084 0.591849,0.402663 0.325517,-0.07119 0.563039,-0.282917 0.527828,-0.470509 -0.0361,-0.192324 0.369517,-0.277446 0.930048,-0.195179 0.551832,0.08099 0.994069,0.354508 0.994069,0.614813 0,0.257901 0.15219,0.468913 0.338199,0.468913 0.489377,0 0.562308,0.01451 1.667118,0.331351 0.732131,0.209971 1.110574,0.158382 1.400464,-0.190913 0.218478,-0.263251 0.721025,-0.457912 1.116771,-0.432581 0.689163,0.04412 0.687415,0.05225 -0.04141,0.192621 -1.495794,0.288102 -0.725803,0.753596 1.183697,0.715596 2.17526,-0.04329 2.743969,-0.223147 2.065303,-0.653171 -0.336245,-0.213055 -0.258359,-0.29213 0.291478,-0.295924 0.52907,-0.0037 0.692929,0.144418 0.555665,0.502121 -0.133986,0.349164 0.02124,0.507299 0.497954,0.507299 0.874347,0 1.307061,-0.656638 0.69132,-1.049067 -0.324838,-0.207029 -0.189853,-0.27617 0.445436,-0.228156 0.701181,0.05299 0.828195,0.169279 0.550438,0.503954 -0.275024,0.331384 -0.190008,0.43507 0.356734,0.43507 0.412587,0 0.717809,-0.215711 0.717809,-0.507299 0,-0.279015 0.147414,-0.507299 0.327585,-0.507299 0.180172,0 0.247285,0.20926 0.149139,0.465024 -0.123622,0.322151 0.0957,0.465024 0.71385,0.465024 0.490762,0 0.972596,-0.209261 1.070742,-0.465024 0.09815,-0.255764 0.323335,-0.465024 0.500422,-0.465024 0.177086,0 0.227917,0.152189 0.112956,0.338199 -0.11496,0.18601 0.01927,0.338199 0.298281,0.338199 0.279014,0 0.601357,-0.152189 0.716317,-0.338199 0.114961,-0.18601 0.361209,-0.338199 0.547218,-0.338199 0.18601,0 0.244141,0.152189 0.129181,0.338199 -0.123293,0.199494 0.250882,0.338199 0.912321,0.338199 0.616737,0 1.599554,0.13715 2.184037,0.304779 0.666345,0.191103 1.186474,0.181001 1.394567,-0.02709 0.2154,-0.215399 0.74677,-0.21731 1.514089,-0.0054 0.650221,0.179536 1.581604,0.250081 2.069744,0.156769 0.6049,-0.115637 0.891105,-0.02249 0.898775,0.292512 0.0074,0.303368 0.213069,0.220847 0.598596,-0.240156 0.323038,-0.386284 0.78261,-0.637245 1.02127,-0.55769 0.313396,0.104463 0.264553,0.273079 -0.175846,0.607027 -0.399934,0.303267 -0.456644,0.466086 -0.164791,0.473141 0.617136,0.01491 1.711515,-0.596851 3.098615,-1.732152 0.646915,-0.529478 1.319076,-0.962688 1.493695,-0.962688 0.455216,0 -2.140893,2.271587 -3.346296,2.927994 -1.829033,0.996011 -4.91884,3.538194 -4.710363,3.875518 0.112212,0.181562 0.8597,-0.24767 1.66108,-0.953854 1.732419,-1.526615 4.006312,-2.971362 3.826201,-2.431024 -0.0702,0.2106 -0.806389,0.754854 -1.635975,1.209448 -0.829586,0.454597 -1.812718,1.164406 -2.184737,1.577355 -0.372019,0.412944 -1.41855,1.342272 -2.325621,2.065173 -1.275588,1.016587 -1.556704,1.141487 -1.240846,0.551302 0.850791,-1.589719 0.02102,-1.014544 -1.262685,0.875253 -1.24293,1.829777 -3.020124,3.669683 -7.937871,8.217966 -1.069555,0.989199 -1.944646,2.013737 -1.944646,2.276744 0,0.263011 -0.13185,0.396715 -0.293,0.297119 -0.16115,-0.0996 -0.565212,0.119705 -0.897915,0.487338 -0.332703,0.367629 -0.478704,0.66842 -0.324446,0.66842 0.154258,0 -0.07697,0.380475 -0.513835,0.845499 -0.436867,0.465024 -1.139268,0.845498 -1.56089,0.845498 -0.868512,0 -1.368752,0.536736 -0.724062,0.776891 0.233671,0.08704 -0.259998,0.469766 -1.097041,0.850494 -1.493568,0.679347 -1.502382,0.692676 -0.473492,0.71612 0.659334,0.01502 1.600646,-0.367755 2.536495,-1.031447 z m 2.340371,-3.518528 c 0.235292,-0.283509 0.497451,-0.445824 0.582575,-0.3607 0.234541,0.234542 -0.241996,0.876173 -0.650728,0.876173 -0.224258,0 -0.198601,-0.194052 0.06815,-0.515473 z m 2.191512,-1.851922 c 0.336673,-0.372019 0.669995,-0.676398 0.740715,-0.676398 0.07072,0 -0.03432,0.304379 -0.233416,0.676398 -0.199098,0.37202 -0.53242,0.676399 -0.740714,0.676399 -0.208294,0 -0.103257,-0.304379 0.233415,-0.676399 z m 6.350902,-5.176624 c 1.260881,-1.215556 3.087157,-2.659985 4.058392,-3.209843 0.971234,-0.549854 2.37464,-1.35536 3.118678,-1.790007 1.065812,-0.622619 1.249809,-0.661887 0.867322,-0.185104 -0.267011,0.332839 -1.605645,1.21995 -2.974744,1.971354 -1.369098,0.751404 -3.281291,2.074061 -4.249316,2.939233 -2.814465,2.515431 -3.320525,2.684687 -0.820332,0.274367 z M 26.178801,49.380486 c 0,-0.07311 0.236188,-0.22355 0.524864,-0.334327 0.300972,-0.115492 0.436724,-0.0588 0.31824,0.132915 -0.198611,0.321361 -0.843104,0.475323 -0.843104,0.201412 z m 4.39659,-0.225245 c 0,-0.196987 0.15219,-0.264099 0.3382,-0.149139 0.186009,0.114961 0.338199,0.276133 0.338199,0.35816 0,0.08203 -0.15219,0.149139 -0.338199,0.149139 -0.18601,0 -0.3382,-0.161172 -0.3382,-0.35816 z m 12.344275,0.0042 c -0.471416,-0.213579 -0.266433,-0.244024 0.676398,-0.100462 0.744039,0.113294 1.41621,0.261892 1.493714,0.330221 0.290574,0.256176 -1.520868,0.06439 -2.170112,-0.229759 z m -10.814,-1.688751 c 0.110352,-0.178555 0.401309,-0.324644 0.64657,-0.324644 0.24526,0 0.626929,-0.218091 0.848152,-0.48465 0.326112,-0.39294 0.221956,-0.582365 -0.550438,-1.001056 -0.550559,-0.298441 -0.730135,-0.522122 -0.425453,-0.529948 0.831665,-0.02137 1.802497,0.847192 1.583847,1.416984 -0.108427,0.282555 -0.67103,0.678938 -1.25023,0.88085 -0.611921,0.213316 -0.969035,0.231105 -0.852448,0.04246 z m -6.281408,-0.608072 c -0.736636,-0.596492 -0.691856,-1.407568 0.07771,-1.407568 0.228063,0 0.206824,0.184142 -0.05805,0.503298 -0.334308,0.402815 -0.325695,0.532505 0.04314,0.649603 0.253461,0.08047 0.917407,0.298538 1.475436,0.484599 1.014219,0.338169 1.014265,0.338304 0.122017,0.364995 -0.49092,0.01468 -1.238035,-0.253031 -1.660257,-0.594927 z m 15.74261,-0.392971 c -0.539864,-0.231987 -0.415909,-0.295457 0.614083,-0.314427 0.709764,-0.01309 1.622903,-0.184555 2.029196,-0.381066 0.694923,-0.336116 0.691384,-0.316067 -0.0597,0.338199 -0.848313,0.738919 -1.489158,0.827544 -2.583579,0.357254 z M 21.274911,46.131408 c 0.11496,-0.186009 0.361208,-0.338199 0.547218,-0.338199 0.186009,0 0.244141,0.15219 0.12918,0.338199 -0.11496,0.18601 -0.361208,0.338199 -0.547218,0.338199 -0.186009,0 -0.244141,-0.152189 -0.12918,-0.338199 z m 18.706648,-0.231027 c 0.244138,-0.0977 0.535835,-0.08568 0.648216,0.02668 0.11238,0.112383 -0.08737,0.192313 -0.443887,0.177629 -0.393983,-0.01623 -0.474121,-0.09637 -0.204329,-0.204327 z M 40.72137,45.11681 c -0.412426,-0.266531 -0.368722,-0.328811 0.23369,-0.333021 0.407544,-0.0027 0.836582,-0.15985 0.953417,-0.348893 0.116836,-0.189044 0.352359,-0.257235 0.523385,-0.151534 0.171026,0.105697 0.226229,-0.02861 0.122674,-0.298474 -0.103555,-0.26986 -0.02464,-0.591792 0.175362,-0.7154 0.622204,-0.384543 0.824726,0.850006 0.236014,1.43872 -0.383884,0.383883 -0.553545,0.421555 -0.553545,0.122915 0,-0.236848 -0.154672,-0.335037 -0.343716,-0.218203 -0.189044,0.116835 -0.256157,0.354102 -0.14914,0.52726 0.254466,0.411734 -0.549117,0.396062 -1.198141,-0.02337 z m -8.180195,-0.569226 c 0.244137,-0.0977 0.535834,-0.08568 0.648215,0.02668 0.112381,0.112383 -0.08737,0.192313 -0.443886,0.177629 -0.393983,-0.01623 -0.474122,-0.09637 -0.204329,-0.204327 z M 44.960261,44.11481 c -0.617756,-0.682614 -0.504788,-1.703594 0.188496,-1.703594 0.284594,0 0.290074,0.120673 0.02024,0.445797 -0.272826,0.328737 -0.234261,0.639562 0.146866,1.183698 0.642973,0.917974 0.445354,0.95915 -0.355608,0.0741 z M 44.37815,41.841988 c 0.244138,-0.0977 0.535835,-0.08568 0.648215,0.0267 0.112381,0.112381 -0.08737,0.192314 -0.443886,0.177629 -0.393983,-0.01623 -0.474122,-0.09637 -0.204329,-0.204329 z M 29.073404,72.323196 c 0.623907,-0.499852 0.616672,-0.506555 -0.145776,-0.135087 -0.441247,0.214977 -1.247808,0.301758 -1.792359,0.192848 -0.61012,-0.122022 -0.911084,-0.07018 -0.784221,0.13509 0.31708,0.513045 1.989111,0.394601 2.722356,-0.192851 z m -3.443541,-0.644297 c -0.139498,-0.363523 0.0093,-0.455574 0.563674,-0.348805 0.414251,0.07978 0.669179,0.06104 0.566506,-0.04162 -0.102672,-0.102674 -0.252063,-0.13595 -0.33198,-0.07394 -0.07992,0.062 -0.38343,-0.0849 -0.674473,-0.32644 -0.682217,-0.56619 -1.160059,0.08975 -0.577092,0.792184 0.521368,0.628212 0.694756,0.627688 0.453365,-0.0014 z m 2.038573,-0.894591 c -0.724474,-0.800535 -0.997063,-0.601565 -0.48547,0.354355 0.210413,0.39316 0.537037,0.619372 0.725831,0.502689 0.211631,-0.130795 0.11946,-0.459443 -0.240361,-0.857044 z m 45.072865,-0.963946 c 1.76417,-1.263293 1.822029,-1.349385 1.038989,-1.545916 -1.387976,-0.348358 -6.681905,0.791657 -6.67765,1.437993 0.002,0.328896 2.323879,1.369664 3.152613,1.413234 0.339812,0.01786 1.458535,-0.569524 2.486048,-1.305311 z m -40.46813,0.484122 c 0.653528,-0.787453 0.187213,-0.935848 -0.512206,-0.162998 -0.337705,0.373159 -0.456866,0.678472 -0.264803,0.678472 0.192063,0 0.541717,-0.231961 0.777009,-0.515474 z m 68.774249,-1.494932 c -0.0799,-0.08267 -0.48357,0.205581 -0.89692,0.640563 l -0.751552,0.790879 0.896922,-0.640566 c 0.49331,-0.352312 0.83151,-0.708206 0.75155,-0.790876 z M 76.846571,68.233535 c 0.781457,-0.209275 0.780648,-0.212606 -0.329109,-1.357587 -1.036094,-1.068977 -1.217615,-1.132646 -2.64347,-0.92721 -2.206916,0.317968 -2.765929,0.678752 -1.700087,1.097227 0.465024,0.18258 1.378162,0.567799 2.029195,0.856043 1.345411,0.595677 1.557702,0.6223 2.643471,0.331527 z m 26.591069,-0.425492 c 0.20062,-0.324614 -2.54902,-1.384676 -3.591636,-1.384676 -0.784951,0 -0.800962,0.873349 -0.0243,1.325707 0.737876,0.429774 3.360336,0.472542 3.615946,0.05897 z m 3.2326,-1.10322 c 0,-0.154801 -0.13317,-0.281456 -0.29593,-0.281456 -0.16275,0 -0.77151,-0.09512 -1.35279,-0.211375 -0.89587,-0.179175 -1.05688,-0.110479 -1.05688,0.450931 0,0.364271 0.0846,0.746914 0.18801,0.850315 0.26147,0.261472 2.51759,-0.462982 2.51759,-0.808415 z m -9.638687,-0.456562 c -1.116058,-0.643076 -2.314092,-1.17113 -2.662295,-1.173461 -1.206364,-0.008 0.232312,1.466872 1.85319,1.899899 2.651635,0.708399 2.904797,0.481102 0.809105,-0.726438 z m -68.992656,0.513305 c 0.11496,-0.18601 0.04785,-0.338199 -0.14914,-0.338199 -0.196988,0 -0.358159,0.152189 -0.358159,0.338199 0,0.18601 0.06711,0.338199 0.14914,0.338199 0.08203,0 0.243198,-0.152189 0.358159,-0.338199 z m 65.779522,-0.388408 c 2.94e-4,-0.268906 -2.826325,-1.966724 -2.995898,-1.799495 -0.06679,0.06587 0.198483,0.569061 0.589505,1.118202 0.491631,0.690427 0.972432,0.983349 1.558555,0.949518 0.46618,-0.02692 0.84771,-0.147607 0.847838,-0.268225 z m 9.469831,-0.287991 c 0,-0.76433 0.10933,-0.791812 1.52957,-0.384495 0.74247,0.21294 1.13832,0.16289 1.46331,-0.185015 0.61037,-0.653398 0.2264,-1.065714 -3.31399,-3.558713 -1.59049,-1.119957 -3.469837,-2.589693 -4.176336,-3.266075 l -1.284545,-1.229784 -4.803042,-0.02648 c -2.641674,-0.01458 -5.758881,-0.225525 -6.927123,-0.468785 -1.168242,-0.24326 -2.200554,-0.365813 -2.294026,-0.272342 -0.09347,0.09347 0.862364,0.78695 2.124078,1.54106 2.499668,1.494022 3.527019,2.667347 2.753885,3.145169 -0.343529,0.212314 -0.217763,0.517161 0.539405,1.307471 0.54306,0.566833 1.151862,1.030605 1.352898,1.030605 0.201033,0 0.933508,0.38596 1.627723,0.857691 0.988343,0.671596 1.262204,0.744975 1.262204,0.338199 0,-0.816863 1.287788,-0.620748 3.270096,0.497998 1.382924,0.780473 1.802893,0.898643 1.802893,0.507299 0,-0.682185 1.149841,-0.625695 3.04379,0.149532 1.98149,0.811053 2.02921,0.811445 2.02921,0.01667 z M 28.038897,64.73237 c -0.126973,-0.400056 -0.306954,-0.651277 -0.399959,-0.558272 -0.09301,0.09301 -0.06521,0.496415 0.06176,0.896471 0.126973,0.400056 0.306954,0.651278 0.399959,0.558273 0.09301,-0.09301 0.06521,-0.496416 -0.06176,-0.896472 z m 38.947338,0.36023 c 0.58796,-0.358512 2.109856,-0.966415 3.381993,-1.350897 3.218633,-0.972773 3.432246,-1.15006 2.320571,-1.925964 -0.499963,-0.348954 -1.435027,-1.073948 -2.077916,-1.6111 l -1.168891,-0.976638 -0.865405,0.807538 c -1.348938,1.258741 -2.19326,2.584543 -2.683662,4.214025 -0.507708,1.686985 -0.41191,1.760855 1.09331,0.843036 z M 29.942132,64.81692 c 0.420676,-0.536404 0.408714,-0.548367 -0.127689,-0.127691 -0.325517,0.25529 -0.591849,0.521622 -0.591849,0.591849 0,0.278352 0.277725,0.0992 0.719538,-0.464158 z m 6.382647,0.44271 c 0,-0.08203 -0.152189,-0.2432 -0.338199,-0.35816 -0.18601,-0.114961 -0.338199,-0.04785 -0.338199,0.149139 0,0.196987 0.152189,0.35816 0.338199,0.35816 0.18601,0 0.338199,-0.06711 0.338199,-0.149139 z m -6.532957,-1.943469 c -0.107962,-0.269792 -0.188101,-0.189656 -0.204329,0.204329 -0.01468,0.356517 0.06525,0.556267 0.177629,0.443887 0.112381,-0.112384 0.124396,-0.404081 0.0267,-0.648216 z m 8.562153,0.252472 c 0,-0.08203 -0.15219,-0.243199 -0.338199,-0.35816 -0.18601,-0.11496 -0.338199,-0.04785 -0.338199,0.149139 0,0.196988 0.152189,0.35816 0.338199,0.35816 0.186009,0 0.338199,-0.06711 0.338199,-0.149139 z m -3.6106,-3.834372 c 1.134842,-1.134841 1.159164,-0.888984 0.05951,0.601518 -0.465024,0.630306 -0.84493,1.306677 -0.844234,1.503053 7.1e-4,0.196375 0.293583,-0.122354 0.650862,-0.708288 0.75819,-1.24342 3.027897,-2.881583 5.529627,-3.991019 0.971261,-0.43072 2.055849,-1.105286 2.410195,-1.499031 0.762315,-0.847081 1.908998,-1.043822 1.215831,-0.208605 -0.280569,0.338064 -0.297176,0.507299 -0.04978,0.507299 0.259959,0 0.271781,0.278785 0.03944,0.930048 -0.313106,0.877644 -0.302686,0.892485 0.184933,0.263353 0.284204,-0.366679 0.442057,-0.861296 0.350786,-1.099148 -0.09127,-0.237849 -0.002,-0.432452 0.1983,-0.432452 0.219599,0 0.286106,-0.369341 0.167475,-0.930048 -0.18574,-0.877898 -0.175416,-0.887381 0.184118,-0.1691 0.434585,0.868219 0.953927,1.006312 0.953927,0.25365 0,-0.279015 -0.15219,-0.507299 -0.3382,-0.507299 -0.186009,0 -0.338199,-0.755595 -0.338199,-1.679099 0,-1.397504 -0.127614,-1.746062 -0.760948,-2.078407 -0.738394,-0.387472 -0.743406,-0.379517 -0.1691,0.268381 0.33525,0.378212 0.580273,1.169341 0.565149,1.824758 -0.01469,0.636386 -0.103462,0.966831 -0.197283,0.734318 -0.269885,-0.668846 -0.937973,-0.500497 -2.295687,0.57848 -1.297489,1.031112 -2.471761,1.560459 -2.779335,1.252883 -0.09627,-0.09627 0.309813,-0.425769 0.902414,-0.732215 1.40828,-0.728251 1.100188,-0.985685 -0.624009,-0.521405 -2.570161,0.692071 -7.405985,7.288868 -6.63283,9.048184 0.200438,0.456099 0.320516,0.247292 0.488869,-0.850101 0.140095,-0.913196 0.560053,-1.791587 1.128174,-2.359708 z m 18.199841,0.404067 c 1.071723,-0.651037 2.869361,-2.188565 3.994749,-3.416733 1.125392,-1.228164 2.046167,-2.025009 2.046167,-1.770761 0,0.315398 0.22079,0.241478 0.694942,-0.232677 0.605921,-0.605922 0.641781,-0.811621 0.279924,-1.605808 -0.564512,-1.238963 -0.988252,-0.994942 -2.031363,1.169818 -0.488069,1.012883 -1.159625,2.066408 -1.492345,2.341165 -0.692903,0.572185 -0.658978,0.463931 0.611833,-1.952391 0.657848,-1.250841 0.79929,-1.775547 0.478619,-1.775547 -0.250352,0 -0.816947,0.772383 -1.259106,1.716406 -0.442158,0.944026 -1.084824,1.866742 -1.428151,2.050482 -0.445003,0.23816 -0.327884,-0.07501 0.407912,-1.09075 1.150487,-1.588198 1.275005,-2.172376 0.524433,-2.460397 -0.361897,-0.138871 -0.789855,0.360673 -1.4901,1.739362 -1.499007,2.951337 -2.892128,4.673093 -4.58282,5.663905 -0.844886,0.495138 -1.536155,0.981333 -1.536155,1.080436 0,0.514553 3.082436,-0.424407 4.781461,-1.45651 z m 2.358132,0.192182 c 0.991025,-0.512284 4.185013,-2.86119 5.486283,-4.034687 l 0.958,-0.863934 -0.417477,0.923548 c -0.22961,0.507952 -0.660709,1.005081 -0.958,1.104735 -0.297287,0.09965 -0.920998,0.49183 -1.386022,0.871502 l -0.845498,0.690316 1.183697,-0.230273 c 2.35985,-0.459079 7.172744,-3.237078 7.752759,-4.474888 0.343655,-0.733392 0.503258,-2.097833 0.245391,-2.097833 -0.76617,0 -2.235075,0.884648 -2.52482,1.520574 -0.480564,1.054719 -2.740267,3.552415 -3.213925,3.552415 -0.202115,0 0.198361,-0.579477 0.889951,-1.287727 l 1.257432,-1.287728 -1.117417,-0.532857 c -1.091102,-0.520313 -1.143374,-0.509666 -2.219751,0.452078 -0.606287,0.541714 -1.270679,0.880894 -1.476433,0.753731 -0.206788,-0.127802 -0.279711,-0.07849 -0.163056,0.110267 0.240862,0.38972 -3.025291,3.519224 -4.925869,4.719784 -0.697536,0.440623 -1.268248,0.864691 -1.268248,0.942379 0,0.203197 1.792727,-0.340178 2.743003,-0.831402 z m 6.579221,-5.505056 c 0.127004,-0.333539 0.316111,-0.52124 0.42024,-0.417112 0.104128,0.104129 2.16e-4,0.377022 -0.230916,0.606436 -0.334013,0.331523 -0.372858,0.292677 -0.189324,-0.189324 z m -27.527066,3.259612 c 0.626035,-0.566551 0.891697,-2.354655 0.29505,-1.985906 -0.177885,0.109938 -0.228117,0.448266 -0.111626,0.751837 0.14158,0.368952 0.08062,0.470872 -0.18387,0.30741 -0.237469,-0.146765 -0.395673,-0.03372 -0.395673,0.282717 0,0.289993 -0.152189,0.52726 -0.338199,0.52726 -0.18601,0 -0.338199,0.15219 -0.338199,0.338199 0,0.491779 0.368415,0.415688 1.072517,-0.221517 z M 121.88815,54.82008 c -6.7e-4,-1.592743 -0.22992,-2.579372 -0.95745,-4.122981 l -0.95639,-2.029196 -0.22376,2.642649 c -0.18433,2.176955 -0.11991,2.825063 0.3656,3.677772 0.32415,0.569318 0.73506,1.310022 0.91314,1.646009 0.54814,1.034207 0.85996,0.37551 0.85886,-1.814253 z M 36.316245,54.408207 c -0.860162,-0.9156 -1.590031,-3.490599 -0.804636,-2.838781 0.382455,0.317411 0.474971,0.254377 0.474971,-0.323619 0,-0.616974 -0.198318,-0.717808 -1.41175,-0.717808 h -1.41175 l 0.757168,0.80597 c 0.532418,0.56673 0.865879,1.538411 1.123407,3.273526 l 0.366238,2.467556 0.815352,-0.947905 0.815352,-0.947902 z m 46.494027,1.933415 C 82.633563,56.19094 82.032414,55.884095 81.474385,55.659741 l -1.014598,-0.407913 0.798414,0.681878 c 0.439132,0.375036 1.040281,0.681881 1.335888,0.681881 0.31325,0 0.403438,-0.114291 0.216183,-0.273965 z M 47.388848,54.71535 c -0.324305,-0.324306 -1.288676,0.559625 -1.043448,0.956414 0.122177,0.197687 0.420813,0.116912 0.737093,-0.199369 0.292436,-0.292434 0.430295,-0.633105 0.306355,-0.757045 z m -9.721899,-0.382609 c -0.01231,-0.293773 -1.680369,-1.56385 -1.680369,-1.279448 0,0.104213 0.188798,0.491792 0.419552,0.861289 0.404399,0.647543 1.282632,0.938817 1.260817,0.418159 z m 9.818407,-1.81173 c 0,-0.724135 -0.15219,-1.316613 -0.338199,-1.316613 -0.18601,0 -0.3382,0.163059 -0.3382,0.362357 0,0.199294 -0.239155,0.123199 -0.531456,-0.1691 -0.758489,-0.75849 -0.821341,-0.69247 -0.821341,0.86275 0,1.200952 0.07032,1.33585 0.507299,0.973189 0.423426,-0.351413 0.507299,-0.304099 0.507299,0.286174 0,0.489672 0.156039,0.647317 0.507299,0.512527 0.330723,-0.126912 0.507299,-0.652948 0.507299,-1.511284 z m -8.266677,1.050782 c 0.344653,0 0.415906,-0.276387 0.265336,-1.029235 -0.158491,-0.792455 -0.02628,-1.220376 0.574707,-1.860096 l 0.780554,-0.830861 h -1.253265 c -1.486837,0 -1.864321,0.628343 -1.290606,2.148289 0.344952,0.913882 0.33202,0.975698 -0.111369,0.532309 -0.275903,-0.275903 -0.535919,-0.915814 -0.577814,-1.42202 -0.0419,-0.50621 -0.164731,-0.920379 -0.272969,-0.920379 -0.430999,0 -1.008474,0.849306 -1.008474,1.48319 0,0.871387 1.353454,2.309117 1.956074,2.077869 0.256653,-0.09849 0.678675,-0.179066 0.937826,-0.179066 z m 1.715647,-0.640002 c 0.786325,0.652593 3.231392,-0.280857 3.100235,-1.183572 -0.135338,-0.931492 -1.613917,-1.718705 -2.710982,-1.44336 -0.916409,0.230002 -1.657318,1.66278 -1.339602,2.590535 0.129695,0.378723 0.210636,0.396573 0.319349,0.07043 0.113503,-0.340506 0.25268,-0.348014 0.631,-0.03404 z m 8.365885,-0.852458 c 0.244295,0.09374 0.618327,-0.0394 0.831186,-0.295877 0.303385,-0.36556 0.260285,-0.468798 -0.199467,-0.477771 -0.681738,-0.01329 -1.77487,0.849127 -1.759891,1.388477 0.0056,0.203681 0.161869,0.110321 0.347145,-0.207471 0.185272,-0.317789 0.536736,-0.5011 0.781027,-0.407358 z M 17.385619,50.697099 c 0,-0.279015 -0.15219,-0.507299 -0.338199,-0.507299 -0.18601,0 -0.3382,0.228284 -0.3382,0.507299 0,0.279014 0.15219,0.507299 0.3382,0.507299 0.186009,0 0.338199,-0.228285 0.338199,-0.507299 z m 5.980417,-0.570711 c -0.107962,-0.269792 -0.188101,-0.189656 -0.204329,0.204329 -0.01469,0.356517 0.06525,0.556267 0.177629,0.443887 0.11238,-0.112384 0.124396,-0.404081 0.0267,-0.648216 z m 24.28842,0.401611 c 0.11496,-0.186009 -0.104343,-0.338199 -0.48734,-0.338199 -0.382997,0 -0.696358,0.15219 -0.696358,0.338199 0,0.18601 0.219303,0.3382 0.48734,0.3382 0.268036,0 0.581397,-0.15219 0.696358,-0.3382 z m 1.860096,0 c 0,-0.186009 -0.143207,-0.338199 -0.318239,-0.338199 -0.175032,0 -0.412299,0.15219 -0.527259,0.338199 -0.114961,0.18601 0.02824,0.3382 0.318238,0.3382 0.289993,0 0.52726,-0.15219 0.52726,-0.3382 z m -29.19231,-0.739811 c -0.107962,-0.269792 -0.188101,-0.189655 -0.204329,0.20433 -0.01469,0.356516 0.06525,0.556267 0.177629,0.443887 0.112381,-0.112384 0.124396,-0.404081 0.0267,-0.648217 z M 46.132559,50.1898 c 0,-0.18601 -0.06711,-0.338199 -0.14914,-0.338199 -0.08203,0 -0.243199,0.152189 -0.358159,0.338199 -0.11496,0.18601 -0.04785,0.338199 0.14914,0.338199 0.196987,0 0.358159,-0.152189 0.358159,-0.338199 z M 23.980505,49.175202 c 0.114961,-0.18601 -0.03723,-0.338199 -0.338199,-0.338199 -0.30097,0 -0.45316,0.152189 -0.338199,0.338199 0.11496,0.18601 0.26715,0.338199 0.338199,0.338199 0.07105,0 0.223239,-0.152189 0.338199,-0.338199 z m 95.245075,-3.81038 c -0.33401,-0.331523 -0.37286,-0.292678 -0.18932,0.189324 0.127,0.333539 0.31611,0.521239 0.42024,0.417111 0.10412,-0.104128 2.1e-4,-0.377021 -0.23092,-0.606435 z m -0.71837,-1.3903 c 0,-0.07023 -0.26633,-0.336559 -0.59184,-0.591849 -0.53641,-0.420676 -0.54837,-0.408714 -0.1277,0.127691 0.44182,0.563355 0.71954,0.742509 0.71954,0.464158 z M 41.397769,43.087614 c 0,-0.186009 -0.161172,-0.338199 -0.358159,-0.338199 -0.196987,0 -0.264101,0.15219 -0.14914,0.338199 0.11496,0.18601 0.276131,0.3382 0.358159,0.3382 0.08203,0 0.14914,-0.15219 0.14914,-0.3382 z m 10.484178,-2.018581 c 0,-0.180172 -0.228285,-0.239984 -0.507299,-0.132916 -0.279014,0.107068 -0.507299,0.254481 -0.507299,0.327585 0,0.0731 0.228285,0.132916 0.507299,0.132916 0.279014,0 0.507299,-0.147413 0.507299,-0.327585 z m -3.889292,-0.348814 c 0.264533,-0.428024 -0.183178,-0.428024 -0.845498,0 -0.437186,0.282532 -0.428259,0.328558 0.06459,0.333021 0.314539,0.0028 0.665947,-0.147011 0.780908,-0.333021 z m 1.606447,0.114217 c -0.232512,-0.09382 -0.612987,-0.09382 -0.845499,0 -0.232512,0.09382 -0.04227,0.170583 0.42275,0.170583 0.465024,0 0.655261,-0.07676 0.422749,-0.170583 z m 4.138555,-0.783517 c 0.121122,-0.195982 0.351382,-0.275271 0.511685,-0.176198 0.160303,0.09907 0.401588,0.002 0.536185,-0.215838 0.152839,-0.2473 0.09813,-0.305367 -0.145731,-0.154657 -0.214749,0.132723 -0.390454,0.0904 -0.390454,-0.09405 0,-0.331374 1.295865,-0.912082 1.763374,-0.790211 0.132815,0.03462 0.157804,-0.155102 0.05554,-0.421608 -0.102265,-0.266506 -0.743595,-0.543476 -1.425175,-0.615489 -1.141264,-0.120582 -1.116538,-0.135428 0.312753,-0.187786 1.069376,-0.03917 1.910715,-0.323898 2.705594,-0.915623 1.444402,-1.075245 3.216881,-2.319199 4.535601,-3.183156 0.558029,-0.365591 1.378687,-1.256725 1.823686,-1.980296 1.102777,-1.793124 2.042788,-2.369434 2.606752,-1.598169 0.392,0.536097 0.495364,0.522255 1.467562,-0.196521 1.075528,-0.795172 2.217471,-2.274011 1.957058,-2.534426 -0.08067,-0.08067 -0.777686,0.537892 -1.548923,1.374584 -1.719286,1.865206 -1.840683,1.633792 -0.195905,-0.373444 1.166405,-1.423445 2.827055,-2.099785 2.395706,-0.975711 -0.104781,0.273058 -0.05092,0.582739 0.119685,0.688181 0.416104,0.257167 2.694576,-1.242054 2.699869,-1.776497 0.007,-0.707953 -0.567184,-0.476112 -1.465813,0.591848 -1.184516,1.407721 -1.469689,1.276384 -0.367166,-0.169099 0.906678,-1.188716 1.984353,-1.549225 2.274721,-0.760949 0.09892,0.26855 0.695159,-0.08712 1.634629,-0.975099 2.147349,-2.029651 2.84267,-2.324255 3.447529,-1.460699 l 0.486743,0.694924 1.271457,-0.862834 c 1.450172,-0.984113 2.695083,-1.11188 3.137137,-0.32197 0.271689,0.48548 0.4492,0.466118 1.733501,-0.189084 1.793769,-0.915111 3.249077,-0.823124 3.21661,0.203316 -0.02219,0.70185 0.01955,0.70921 1.352798,0.238501 1.787278,-0.631005 4.043101,-0.316104 3.820955,0.533384 -0.132422,0.50638 0.07143,0.562361 1.589405,0.436478 1.331592,-0.110426 1.85019,-0.0132 2.204075,0.4132 0.341953,0.41203 0.36374,0.656629 0.08345,0.936919 -0.495104,0.495102 0.748238,1.621212 1.78998,1.621212 1.31132,0 1.28414,-0.496625 -0.04948,-0.904057 -1.041762,-0.318265 -1.131422,-0.402488 -0.453194,-0.425723 0.746648,-0.02558 0.638248,-0.173933 -0.92719,-1.268913 -1.872596,-1.309833 -2.194352,-1.943426 -0.469502,-0.924532 0.783073,0.462574 1.196461,0.521231 1.794069,0.25457 0.745997,-0.332872 0.725847,-0.363231 -0.512142,-0.771804 -0.708774,-0.233917 -1.68574,-0.3494 -2.171036,-0.25663 -0.58733,0.112275 -1.342164,-0.121935 -2.257521,-0.700466 -0.75635,-0.478031 -2.364407,-1.319591 -3.573469,-1.870138 -5.395591,-2.456882 -9.420399,-2.864581 -13.792001,-1.397083 -3.493514,1.172734 -8.847249,3.965019 -11.063141,5.77007 -0.999338,0.814057 -1.941389,1.481066 -2.09344,1.482242 -0.152055,0.0012 -0.538295,0.462243 -0.858316,1.024592 -0.320021,0.56235 -1.016979,1.272182 -1.548801,1.577404 -0.531821,0.305223 -1.196258,0.954505 -1.47653,1.442849 -0.28027,0.488343 -1.02911,1.142681 -1.66409,1.454084 -1.021301,0.500859 -1.198673,0.50768 -1.537261,0.05911 -0.296158,-0.392351 -0.423111,-0.40918 -0.561137,-0.07438 -0.09811,0.237978 -0.426412,1.041447 -0.729553,1.785486 l -0.551164,1.352797 1.051834,-1.131434 c 0.578507,-0.622289 1.134922,-1.048343 1.236477,-0.946787 0.101558,0.101556 -0.556084,0.965305 -1.461427,1.919441 -2.598808,2.738877 -5.716282,4.707039 -7.395461,4.668995 -0.558029,-0.01264 -0.748266,-0.09259 -0.42275,-0.177654 0.325517,-0.08507 0.591849,-0.371791 0.591849,-0.637167 0,-0.690068 -0.369885,-0.59985 -1.48995,0.363411 -0.540458,0.464797 -1.364819,0.845085 -1.831913,0.845085 -1.489645,0 -0.495023,0.41694 1.533248,0.642729 3.520473,0.391902 6.46003,0.40982 6.688119,0.04077 z m 5.922874,-8.123882 c 0,-0.423737 0.35891,-0.423737 1.014598,0 0.410222,0.265106 0.361683,0.328833 -0.25365,0.333021 -0.418522,0.0028 -0.760948,-0.147011 -0.760948,-0.333021 z m -24.688549,7.450999 c 0,-0.180172 -0.228284,-0.239984 -0.507299,-0.132916 -0.279014,0.107068 -0.507299,0.254481 -0.507299,0.327585 0,0.0731 0.228285,0.132916 0.507299,0.132916 0.279015,0 0.507299,-0.147413 0.507299,-0.327585 z m 15.883584,-1.363411 c 0.366256,0 0.689825,-1.311863 0.372016,-1.50828 -0.138966,-0.08589 -0.604416,0.319609 -1.034332,0.9011 -0.634496,0.858205 -0.671251,1.014889 -0.195222,0.832219 0.322544,-0.123772 0.708436,-0.225039 0.857538,-0.225039 z m -2.355612,-1.095951 c 0,-0.407776 -0.188353,-0.307453 -0.877631,0.467459 -0.641978,0.721734 -0.641564,0.722646 0.116683,0.256847 0.418521,-0.257103 0.760948,-0.58304 0.760948,-0.724306 z m 3.257532,-0.922426 c 0.240954,0.240954 0.541501,-0.07527 0.965779,-1.016145 0.784805,-1.740388 1.367018,-2.253296 1.980153,-1.744438 0.359875,0.29867 0.546179,0.09779 0.898018,-0.9683 0.435925,-1.32086 1.6917,-2.867655 1.6917,-2.083741 0,0.778321 0.549759,0.3654 0.943332,-0.708532 0.221551,-0.604531 0.766789,-1.551239 1.211646,-2.103796 0.671749,-0.834379 0.894987,-0.933147 1.317178,-0.58276 0.42489,0.352629 0.542482,0.285872 0.71629,-0.406632 0.23863,-0.950766 1.806542,-2.931943 2.229765,-2.817473 0.156018,0.0422 0.640069,-0.444208 1.075669,-1.080902 0.9223,-1.348074 1.631755,-1.698368 1.651042,-0.815204 0.01011,0.462723 0.145527,0.376482 0.533766,-0.339916 0.286124,-0.527971 0.461889,-1.018282 0.390594,-1.089579 -0.196866,-0.196866 -5.28801,1.760065 -5.918441,2.274926 -1.870621,1.527707 -3.930197,3.832266 -5.441258,6.088485 -1.824943,2.724892 -4.303393,5.822781 -6.079244,7.598631 -0.580235,0.580235 -0.957665,1.152279 -0.838734,1.27121 0.118931,0.118931 0.690245,-0.243187 1.269583,-0.804706 0.725549,-0.70323 1.162209,-0.912082 1.403162,-0.671128 z m 62.014934,1.029872 c 0,-0.35081 -2.71568,-1.819739 -2.94334,-1.592074 -0.33944,0.339438 1.9406,2.216602 2.45334,2.019844 0.2695,-0.103417 0.49,-0.295914 0.49,-0.42777 z M 53.804796,35.926476 c 0.757702,-0.711825 1.139985,-2.569147 0.439713,-2.136356 -0.450721,0.278562 -1.770169,2.871708 -1.461187,2.871708 0.1313,0 0.590963,-0.330909 1.021474,-0.735352 z m 5.706545,0.238808 c 0.361068,-0.273098 0.49534,-0.501383 0.29838,-0.507299 -0.196961,-0.0059 -0.65353,0.212689 -1.014598,0.485788 -0.361069,0.273098 -0.495341,0.501383 -0.29838,0.507299 0.19696,0.0059 0.653529,-0.212689 1.014598,-0.485788 z m -9.65859,-0.557973 c 0,-0.18601 -0.15219,-0.244141 -0.338199,-0.129181 -0.18601,0.11496 -0.338199,0.361208 -0.338199,0.547218 0,0.18601 0.152189,0.244141 0.338199,0.129181 0.186009,-0.114961 0.338199,-0.361209 0.338199,-0.547218 z m 13.030406,-2.005024 c 0.324188,-0.524549 -0.175525,-0.370866 -1.225773,0.376975 -0.540239,0.384686 -0.982255,0.851618 -0.982255,1.037628 0,0.348041 1.851928,-0.838422 2.208028,-1.414603 z m -12.206705,0.184846 c 0.507387,-1.214341 1.01797,-1.508745 1.319712,-0.760948 0.09382,0.232512 0.182597,0.07543 0.197281,-0.349062 0.0425,-1.228636 0.986771,-3.192058 1.459236,-3.034205 0.244298,0.08162 0.576224,-0.304252 0.774398,-0.900261 0.20087,-0.604127 0.568165,-1.027361 0.872757,-1.005687 0.338125,0.02406 0.650364,-0.428809 0.874425,-1.268248 0.191678,-0.718119 0.290151,-1.305671 0.218835,-1.305671 -0.07132,0 -0.826123,0.641966 -1.67734,1.426591 -1.375812,1.268178 -3.470916,4.763752 -4.539061,7.573183 -0.482059,1.267915 -0.05186,0.944512 0.499757,-0.375692 z m 60.671968,0.887638 c 0.32347,-0.205048 0.0848,-0.432627 -0.84549,-0.806158 -1.5616,-0.627022 -1.92597,-0.428736 -0.83598,0.454932 0.89533,0.72586 1.04212,0.756521 1.68147,0.351226 z M 51.53857,33.682624 c -0.0045,-0.492849 -0.05049,-0.501776 -0.333022,-0.06459 -0.428025,0.66232 -0.428025,1.110031 0,0.845498 0.18601,-0.11496 0.335869,-0.466369 0.333022,-0.780908 z m 58.17546,-1.047397 c 0,-0.334441 -3.06473,-1.476381 -3.30839,-1.232727 -0.0824,0.08244 0.3619,0.4619 0.9874,0.843248 1.18784,0.724171 2.32099,0.914324 2.32099,0.389479 z m -56.062222,-2.00508 c -0.13251,-0.345317 -0.301843,-0.256762 -0.625591,0.327157 -0.674018,1.215673 -0.561208,1.836332 0.169705,0.933692 0.350666,-0.433055 0.555817,-1.000437 0.455886,-1.260849 z m 54.878522,0.620492 c -0.11496,-0.18601 -0.46637,-0.327503 -0.7809,-0.314429 -0.46621,0.01938 -0.4469,0.07748 0.10451,0.314429 0.90499,0.388888 0.91674,0.388888 0.67639,0 z M 59.904765,29.64488 c 0.346208,-0.511905 0.573697,-1.279221 0.50553,-1.705147 l -0.123937,-0.774412 -0.603293,0.774412 c -0.628043,0.806181 -1.713531,2.793352 -1.713531,3.13691 0,0.43613 1.344873,-0.558864 1.935231,-1.431763 z m 46.378835,0.628257 c 0.58775,-0.372415 0.2073,-0.597509 -1.47603,-0.873314 l -1.35022,-0.221227 0.79841,0.697822 c 0.86671,0.757508 1.31884,0.845962 2.02784,0.396719 z M 55.602139,28.480404 c 0,-0.484092 -0.59727,-0.291181 -0.809314,0.2614 -0.36973,0.963498 -0.19415,1.338857 0.31277,0.668648 0.273099,-0.361068 0.496544,-0.77959 0.496544,-0.930048 z m 50.391701,0.402839 c 0,-0.186009 -0.13974,-0.338199 -0.31054,-0.338199 -0.1708,0 -0.58932,-0.08852 -0.93005,-0.196708 -0.56689,-0.180003 -0.56375,-0.151282 0.037,0.338199 0.75179,0.61256 1.20361,0.686402 1.20361,0.196708 z M 68.241124,22.117065 c 1.113382,-0.727482 3.109938,-1.81122 4.436796,-2.408306 2.335891,-1.051151 2.424033,-1.134793 2.776842,-2.634999 0.200407,-0.852164 0.319288,-1.598658 0.264185,-1.658876 -0.510069,-0.5574 -4.55964,3.355337 -4.55964,4.405571 0,0.170239 -0.156861,0.212581 -0.348576,0.09409 -0.20599,-0.127308 -0.257518,-0.723428 -0.125969,-1.457306 l 0.22261,-1.241875 -1.093804,1.014598 c -0.601593,0.558029 -1.559803,1.833324 -2.129357,2.833988 -0.899519,1.580395 -1.08885,1.746499 -1.441297,1.264497 -0.484116,-0.662066 -0.712258,-0.439686 -1.867172,1.820003 -0.723002,1.414613 -0.792029,1.464392 -0.979202,0.706152 -0.180503,-0.731229 -0.31439,-0.603686 -1.292289,1.231038 -0.600007,1.12573 -1.090923,2.161714 -1.090923,2.302186 0,0.140471 1.170782,-0.915379 2.601737,-2.346333 1.430951,-1.430954 3.512679,-3.196948 4.626059,-3.924431 z m -11.125773,4.077379 c 0.28379,-0.548792 0.515984,-1.115319 0.515984,-1.258949 0,-0.345818 -0.843774,0.911963 -1.116886,1.664903 -0.341484,0.941418 0.03604,0.686377 0.600902,-0.405954 z m 44.820089,0.848663 c 0,-0.356961 -0.64904,-0.506931 -0.84209,-0.194576 -0.11684,0.189044 0.0248,0.343716 0.31483,0.343716 0.28999,0 0.52726,-0.06711 0.52726,-0.14914 z m 1.84394,-0.891608 c -0.17191,-0.278168 -2.34315,-0.984465 -3.02764,-0.984882 -0.18601,-1.13e-4 0.10426,0.353832 0.64504,0.786546 0.92369,0.739107 2.81407,0.896469 2.3826,0.198336 z M 77.049754,24.83687 c 0.879751,-0.377105 1.549937,-0.88893 1.549937,-1.183697 0,-0.748181 -0.364362,-0.650797 -1.96257,0.524538 -2.062637,1.516882 -1.962294,1.677173 0.412633,0.659159 z m 20.109679,0.358814 c 0.730554,-0.462726 0.113208,-1.047231 -1.106071,-1.047231 -1.499914,0 -1.773084,0.378848 -0.636241,0.882382 1.175686,0.520742 1.179808,0.521132 1.742312,0.164849 z M 59.99873,22.347518 c 0,-0.622581 -0.06056,-0.649572 -0.485045,-0.216182 -0.266772,0.272371 -0.581757,0.951789 -0.699965,1.509818 l -0.214925,1.014598 0.699967,-0.798415 c 0.384983,-0.439129 0.699968,-1.118547 0.699968,-1.509819 z m 32.805331,1.462736 0.845499,-0.661358 -1.690997,-0.0023 c -2.273842,-0.0031 -3.065601,0.495939 -1.499958,0.945503 0.638967,0.183476 1.237854,0.343934 1.330859,0.356574 0.093,0.01264 0.549573,-0.27463 1.014597,-0.638377 z m -9.943823,-0.350767 c 0.6443,-0.244963 0.815483,-0.457873 0.567505,-0.705849 -0.247978,-0.247977 -0.800156,-0.150769 -1.830619,0.32227 -1.3227,0.607192 -1.381483,0.680304 -0.567505,0.705849 0.499419,0.01567 1.323195,-0.129348 1.830619,-0.32227 z m 5.484439,-0.748381 c 0.144019,-0.758411 -0.444979,-0.736905 -2.135502,0.07798 l -1.352797,0.652086 1.687956,-0.06911 c 1.305618,-0.05345 1.713409,-0.203164 1.800343,-0.660956 z M 62.992058,21.071575 c 1.083228,-0.377616 1.449461,-0.981514 0.59523,-0.981514 -0.450346,0 -2.281658,1.318389 -1.863478,1.341546 0.111748,0.0062 0.682459,-0.155826 1.268248,-0.360032 z M 96.45285,19.700576 C 96.213107,19.54847 94.951627,19.428567 93.64956,19.434124 l -2.367395,0.0101 1.493241,0.781054 c 1.414136,0.73968 1.562636,0.753795 2.80329,0.266452 0.908214,-0.356757 1.176345,-0.599431 0.874154,-0.791158 z m -18.290704,-2.07651 c 1.182148,-0.28818 1.505085,-0.552056 1.910927,-1.561439 0.587436,-1.461026 0.2516,-1.66974 -1.219103,-0.75764 -1.440787,0.89355 -3.731597,3.299295 -2.790774,2.930795 0.37202,-0.145712 1.316546,-0.420984 2.09895,-0.611716 z m 11.936321,0.06778 0.845498,-0.692181 -1.690996,0.225334 c -2.047029,0.272776 -2.539156,0.529507 -1.668547,0.870439 1.06545,0.417233 1.620191,0.328178 2.514045,-0.403592 z M 29.898993,67.553284 c 0,-0.184586 0.418521,-0.704567 0.930048,-1.155516 l 0.930048,-0.8199 -0.845498,1.014598 c -0.465024,0.558029 -0.883546,1.078011 -0.930048,1.155516 -0.0465,0.0775 -0.08455,-0.01011 -0.08455,-0.194698 z m 16.909964,-1.633073 c 0.837044,-0.269393 1.788229,-0.648153 2.113746,-0.84169 0.325517,-0.193535 0.591849,-0.222833 0.591849,-0.0651 0,0.411995 -1.419605,0.999974 -2.92912,1.213199 -1.296418,0.183125 -1.296081,0.182665 0.223525,-0.306405 z m -2.029195,-0.368306 c 0,-0.228319 1.756784,-0.86648 1.924264,-0.699001 0.0767,0.0767 -0.324879,0.301329 -0.892402,0.499169 -0.567524,0.19784 -1.031862,0.287764 -1.031862,0.199832 z"
       id="path267" /></g></svg>
