<?xml version="1.0" encoding="UTF-8" standalone="no"?>
<!-- Created with Inkscape (http://www.inkscape.org/) -->

<svg
   width="120mm"
   height="120mm"
   viewBox="0 0 120 120"
   version="1.1"
   id="svg5"
   sodipodi:docname="xmas.svg"
   xml:space="preserve"
   inkscape:version="1.2.1 (9c6d41e4, 2022-07-14)"
   xmlns:inkscape="http://www.inkscape.org/namespaces/inkscape"
   xmlns:sodipodi="http://sodipodi.sourceforge.net/DTD/sodipodi-0.dtd"
   xmlns="http://www.w3.org/2000/svg"
   xmlns:svg="http://www.w3.org/2000/svg"><sodipodi:namedview
     id="namedview7"
     pagecolor="#ffffff"
     bordercolor="#000000"
     borderopacity="0.25"
     inkscape:showpageshadow="2"
     inkscape:pageopacity="0.0"
     inkscape:pagecheckerboard="0"
     inkscape:deskcolor="#d1d1d1"
     inkscape:document-units="mm"
     showgrid="false"
     inkscape:zoom="0.49240719"
     inkscape:cx="-22.339235"
     inkscape:cy="287.3638"
     inkscape:window-width="1381"
     inkscape:window-height="847"
     inkscape:window-x="59"
     inkscape:window-y="25"
     inkscape:window-maximized="1"
     inkscape:current-layer="layer1" /><defs
     id="defs2" /><g
     inkscape:label="Livello 1"
     inkscape:groupmode="layer"
     id="layer1"><path
       style="fill:#000000;stroke-width:0.264583"
       d="m 37.720691,101.32815 c -4.794814,-1.28948 -7.438054,-4.418502 -7.438054,-8.805019 0,-2.545315 0.61586,-4.128835 2.229456,-5.732467 1.524844,-1.515427 2.715911,-1.977657 5.095983,-1.977657 1.952295,0 4.050271,0.986703 5.212414,2.451457 1.408557,1.775338 1.209352,5.171561 -0.352364,6.007367 -0.973588,0.521046 -2.78714,0.328647 -3.547896,-0.376399 -0.829935,-0.76916 -0.929318,-1.972133 -0.216239,-2.617459 0.643676,-0.58252 0.911339,-0.553252 0.711068,0.07775 -0.222846,0.70212 0.717312,1.601033 1.674487,1.601033 1.093465,0 1.766123,-0.869611 1.736193,-2.244552 -0.05353,-2.459091 -2.3817,-4.375158 -5.302867,-4.36422 -3.768449,0.0141 -6.475071,2.701917 -6.495206,6.450054 -0.02209,4.11108 1.950559,6.822297 6.090923,8.371402 1.821223,0.68141 5.588794,0.7362 8.041728,0.11695 2.480648,-0.626248 6.910467,-2.917476 12.242112,-6.331974 2.619375,-1.677501 4.876972,-3.089508 5.016884,-3.137791 0.139909,-0.04828 -0.357876,-1.042247 -1.106194,-2.208805 -0.748316,-1.166559 -1.685274,-2.783068 -2.082131,-3.592243 -0.6507,-1.326753 -0.821378,-1.487188 -1.738079,-1.633775 l -1.016522,-0.16255 v -2.774997 c 0,-2.208686 0.07597,-2.774998 0.37225,-2.774998 0.21866,0 0.558295,0.59149 0.823164,1.433579 0.645139,2.051058 1.326192,3.039433 2.404944,3.490166 1.978742,0.82677 3.648728,-0.516861 3.653319,-2.93937 0.0036,-1.90801 -0.844479,-3.428457 -3.577215,-6.413166 -2.882844,-3.148658 -3.943495,-5.086281 -3.935235,-7.188988 0.0096,-2.434187 1.379683,-4.584887 3.413432,-5.358116 0.774594,-0.2945 3.502189,-0.337341 4.890895,-0.07682 l 0.95028,0.178273 v 2.351805 c 0,1.862203 -0.07871,2.351804 -0.3781,2.351804 -0.228876,0 -0.53888,-0.553061 -0.785474,-1.401313 -0.647827,-2.22845 -2.203874,-3.25488 -3.881123,-2.560142 -1.653024,0.684707 -2.217121,3.513206 -1.070618,5.36829 0.33057,0.534871 1.668836,2.133782 2.973925,3.553139 3.007103,3.27039 3.807076,4.819859 3.791185,7.34315 -0.0097,1.531247 -0.144806,2.096082 -0.780253,3.260619 -1.045874,1.916695 -1.957594,2.516465 -4.025474,2.648138 -0.915697,0.05831 -1.664902,0.143504 -1.664902,0.189328 0,0.221922 2.766193,4.892087 3.27732,5.533101 l 0.584163,0.73261 1.971863,-0.993873 c 4.177218,-2.105432 7.910483,-3.035548 12.183965,-3.035548 3.372829,0 5.286417,0.516723 7.59955,2.052092 2.478075,1.644851 3.712859,3.970842 3.383521,6.373616 -0.483444,3.52711 -3.46665,5.348954 -8.759756,5.349584 -3.181263,2.64e-4 -5.9083,-0.632923 -8.649656,-2.008714 -2.490681,-1.249987 -3.149743,-1.725409 -5.428347,-3.915807 l -1.907173,-1.833337 -3.252203,2.11274 c -6.559809,4.261474 -9.962933,5.912403 -14.364705,6.968633 -2.536714,0.6087 -6.492878,0.65182 -8.569238,0.0934 z m 45.93171,-2.529912 c 2.945662,-1.09043 4.432078,-3.595137 3.770392,-6.353352 -1.056622,-4.4045 -6.534576,-6.710372 -12.792083,-5.384659 -1.797863,0.380894 -6.610271,2.525175 -8.859764,3.947673 l -1.156483,0.731316 1.156483,1.195268 c 2.745192,2.837254 6.279158,4.998003 9.668963,5.911831 2.610879,0.703842 6.238642,0.682607 8.212492,-0.04808 z m -4.567944,-4.90076 c 0.121309,-0.414904 5.29e-4,-0.695188 -0.438523,-1.016686 -0.584441,-0.428069 -0.585814,-0.437964 -0.03857,-0.278092 0.366972,0.107206 0.735626,-0.0011 1.043527,-0.306234 0.436152,-0.432401 0.461634,-0.433798 0.303707,-0.01664 -0.102515,0.270788 0.01074,0.640146 0.279387,0.911238 0.426006,0.429866 0.425775,0.44603 -0.004,0.283321 -0.301461,-0.114128 -0.600903,0.02527 -0.884394,0.411682 l -0.428612,0.584229 0.167479,-0.572821 z m -31.308628,1.007533 c -0.0236,-0.479589 -0.137631,-0.582906 -0.493713,-0.447344 -0.373113,0.142044 -0.398306,0.111082 -0.129738,-0.159457 0.268346,-0.270314 0.216794,-0.405188 -0.264584,-0.692229 -0.585036,-0.348851 -0.581956,-0.353155 0.143608,-0.200591 0.700842,0.147367 0.72444,0.122819 0.430634,-0.447924 -0.256667,-0.498602 -0.249862,-0.546198 0.03905,-0.273105 0.477721,0.451564 0.712324,0.415282 0.855419,-0.132292 0.087,-0.332923 0.129625,-0.287798 0.151693,0.160599 0.0236,0.479589 0.137631,0.582906 0.493713,0.447345 0.373113,-0.142045 0.398306,-0.111083 0.129738,0.159456 -0.268345,0.270314 -0.216794,0.405188 0.264584,0.692229 0.587938,0.350581 0.585785,0.35397 -0.129739,0.204073 -0.755105,-0.158191 -0.918059,0.05244 -0.463021,0.598485 0.192424,0.23091 0.177994,0.24534 -0.05292,0.05292 -0.458616,-0.38218 -0.685604,-0.327451 -0.823032,0.198437 -0.087,0.332923 -0.129624,0.287798 -0.151693,-0.160599 z m 43.112511,-4.26121 c -0.516652,-0.319309 -0.21177,-1.190775 0.449606,-1.285134 0.476213,-0.06794 0.592609,0.04342 0.592609,0.567005 0,0.702228 -0.504963,1.050171 -1.042215,0.718129 z M 53.565971,88.517173 c 0,-0.14552 0.119062,-0.264583 0.264583,-0.264583 0.145521,0 0.264583,0.119063 0.264583,0.264583 0,0.145521 -0.119062,0.264584 -0.264583,0.264584 -0.145521,0 -0.264583,-0.119063 -0.264583,-0.264584 z M 10.073163,84.005927 C 8.295031,83.560128 6.0143782,82.159686 4.5269066,80.600227 -1.2601039,74.533154 0.11940984,64.340132 7.2785177,60.26897 c 3.7979303,-2.159762 8.3977213,-2.179433 11.3393993,-0.0485 3.492024,2.529609 2.549604,8.637727 -1.506517,9.764222 -4.087029,1.135081 -7.9993965,-1.429181 -7.3622613,-4.825404 0.3558643,-1.896922 2.5598123,-3.17101 4.3847913,-2.53482 l 0.862187,0.300562 -0.803105,0.628525 c -2.049521,1.603992 -0.87706,4.590698 1.802124,4.590698 1.974041,0 3.269375,-1.518092 3.281471,-3.845782 0.01417,-2.726518 -2.255049,-4.620884 -5.535247,-4.620884 -2.441681,0 -3.9802171,0.638792 -5.7168469,2.373601 -2.4866521,2.484046 -3.4064602,4.986594 -3.4064602,9.268065 0,5.357082 1.8872412,9.126537 5.4466731,10.87884 3.297401,1.623306 7.142827,0.981266 9.385988,-1.5671 0.579916,-0.658818 1.124119,-1.475666 1.209342,-1.815214 0.159406,-0.635127 1.155914,-0.89722 1.155914,-0.304019 0,0.728273 -1.167154,2.633813 -2.165887,3.536108 -1.699633,1.535517 -3.1378,2.044459 -6.036197,2.136106 -1.382448,0.04371 -2.975774,-0.03641 -3.540723,-0.178052 z M 110.58141,83.261231 c -3.84471,-1.746615 -4.35706,-6.910352 -0.91747,-9.246877 0.77993,-0.529812 1.17042,-0.609346 2.5688,-0.523216 1.36594,0.08413 1.78119,0.228171 2.41873,0.838967 2.14569,2.055706 0.38674,5.45489 -2.12665,4.109765 l -0.53761,-0.287722 0.55501,-0.388739 c 1.20994,-0.847476 0.386,-2.739985 -1.1929,-2.739985 -3.42065,0 -3.71183,5.659358 -0.37776,7.342187 4.08039,2.059519 7.58547,-2.129461 5.41921,-6.476584 -0.46521,-0.933542 -1.52892,-2.145511 -3.42009,-3.896772 -1.90196,-1.761252 -2.95399,-2.961444 -3.42584,-3.908311 -1.4309,-2.871451 -0.57087,-5.887619 2.07224,-7.267453 0.83134,-0.433999 3.05286,-0.538308 4.85358,-0.227893 l 1.12448,0.193841 v 2.357993 c 0,1.919605 -0.0738,2.357993 -0.39688,2.357993 -0.23346,0 -0.39926,-0.245118 -0.40268,-0.595312 -0.009,-0.908288 -0.92072,-2.721949 -1.61193,-3.206089 -1.60587,-1.124794 -3.93851,0.111509 -3.93851,2.087417 0,1.631175 0.762,2.781263 3.8528,5.815025 3.67561,3.607779 4.20621,4.540933 4.21241,7.408333 0.004,1.88059 -0.0867,2.27897 -0.81381,3.571875 -1.1526,2.049489 -3.0228,3.177302 -5.25532,3.169189 -0.97075,-0.0035 -2.016,-0.195159 -2.65981,-0.487632 z M 21.551387,83.093215 c 0,-0.218281 0.223546,-0.396875 0.496771,-0.396875 1.068646,0 1.099777,-0.329157 1.02776,-10.866984 l -0.06932,-10.143651 -0.641842,-0.151458 c -0.353013,-0.0833 -0.690356,-0.297002 -0.749652,-0.47489 -0.08081,-0.242443 0.659614,-0.323432 2.956946,-0.323432 2.292075,0 3.064756,0.08424 3.064756,0.334135 0,0.183774 -0.26789,0.451665 -0.595312,0.595312 -0.581044,0.254918 -0.597046,0.373748 -0.667562,4.957532 l -0.07225,4.696354 h 2.393461 2.39346 l -0.07225,-4.693054 -0.07225,-4.693055 -0.727604,-0.348467 c -1.340615,-0.642048 -0.776793,-0.848757 2.315104,-0.848757 3.026823,0 3.794255,0.256527 2.378139,0.794933 l -0.66457,0.252669 0.06926,10.257969 0.06926,10.257969 0.595313,0.261179 c 0.327422,0.143647 0.595313,0.411538 0.595313,0.595312 0,0.249753 -0.76839,0.334134 -3.042709,0.334134 -2.528242,0 -3.042708,-0.0671 -3.042708,-0.396875 0,-0.218281 0.214312,-0.396875 0.47625,-0.396875 1.016172,0 1.11125,-0.468598 1.11125,-5.476874 v -4.841875 h -2.38125 -2.38125 v 4.841875 c 0,5.008276 0.09508,5.476874 1.11125,5.476874 0.261937,0 0.47625,0.178594 0.47625,0.396875 0,0.33073 -0.529167,0.396875 -3.175,0.396875 -2.645834,0 -3.175,-0.06614 -3.175,-0.396875 z m 14.816667,0 c 0,-0.218281 0.233936,-0.396875 0.519858,-0.396875 0.285922,0 0.64311,-0.230298 0.79375,-0.511772 0.174593,-0.326232 0.273892,-4.048088 0.273892,-10.265833 0,-10.143413 -0.02628,-10.38906 -1.11125,-10.38906 -0.261938,0 -0.47625,-0.178593 -0.47625,-0.396875 0,-0.335489 0.626287,-0.396875 4.049093,-0.396875 3.828875,0 4.124074,0.03737 5.427795,0.687036 1.01954,0.508061 1.564209,1.00358 2.090796,1.902134 1.33609,2.279867 0.817298,5.687401 -1.168189,7.672887 l -0.665998,0.665999 1.516615,5.108493 c 1.572017,5.295095 2.099614,6.311116 2.986731,5.751697 0.405381,-0.255635 0.454064,-1.223558 0.516892,-10.276641 0.07206,-10.382636 0.03991,-10.717855 -1.027797,-10.717855 -0.273225,0 -0.496772,-0.178593 -0.496772,-0.396875 0,-0.330729 0.529167,-0.396875 3.175001,-0.396875 2.577221,0 3.175,0.07126 3.175,0.378474 0,0.208161 -0.266288,0.41652 -0.591752,0.46302 -0.460486,0.06579 -0.633174,0.31931 -0.778502,1.142881 -0.297643,1.686764 -0.253714,18.258175 0.05052,19.058378 0.147273,0.387358 0.50446,0.766181 0.79375,0.841833 0.289291,0.07565 0.525982,0.302255 0.525982,0.503563 0,0.507762 -9.32107,0.541591 -9.722298,0.03529 C 46.080773,82.97746 45.398725,80.685507 44.70926,78.066132 44.019796,75.446758 43.334673,73.154805 43.186766,72.972904 43.038858,72.791003 42.515703,72.642175 42.0242,72.642175 h -0.893646 v 4.611308 c 0,4.906653 0.132188,5.442857 1.341815,5.442857 0.280647,0 0.510268,0.178594 0.510268,0.396875 0,0.331611 -0.543867,0.396875 -3.307292,0.396875 -2.763425,0 -3.307291,-0.06526 -3.307291,-0.396875 z M 44.03638,70.835388 c 0.411649,-0.411652 0.878078,-1.215324 1.036505,-1.785937 0.37914,-1.365565 0.335836,-4.239832 -0.08141,-5.403109 -0.407567,-1.136301 -1.785025,-2.116667 -2.974009,-2.116667 h -0.886915 v 5.027083 5.027083 h 1.078685 c 0.831254,0 1.250368,-0.171683 1.827141,-0.748453 z m 24.875424,12.257827 c 0,-0.237741 0.244004,-0.396875 0.608542,-0.396875 1.240282,0 1.243542,-0.02866 1.243542,-10.93545 V 61.460439 l -0.963983,0.156432 c -1.354381,0.219785 -2.172825,1.106342 -2.669054,2.891179 -0.234484,0.843388 -0.554773,1.49089 -0.711753,1.438894 -0.170693,-0.05654 -0.315857,-1.122836 -0.361145,-2.652778 l -0.07573,-2.558241 h 6.359581 6.359581 v 2.645834 c 0,2.079159 -0.07857,2.645833 -0.366835,2.645833 -0.229166,0 -0.430598,-0.425236 -0.536749,-1.133097 -0.243584,-1.624319 -0.999903,-2.724261 -2.12956,-3.09708 -1.847339,-0.609677 -1.761845,-1.120404 -1.67513,10.006986 0.08378,10.751009 0.102328,10.891939 1.433378,10.891939 0.382778,0 0.629062,0.155382 0.629062,0.396875 0,0.33318 -0.573264,0.396875 -3.571875,0.396875 -2.99861,0 -3.571875,-0.06369 -3.571875,-0.396875 z m 10.054167,0.02868 c 0,-0.202507 0.295844,-0.442444 0.657429,-0.533196 0.381674,-0.09579 0.717793,-0.413015 0.801343,-0.756288 0.07915,-0.325205 0.110731,-4.935495 0.07018,-10.245087 l -0.07374,-9.653801 -0.727604,-0.348654 c -1.299633,-0.622763 -0.791276,-0.848948 1.908032,-0.848948 h 2.635634 l 0.26094,0.992188 c 0.143515,0.545703 0.808596,3.313906 1.477957,6.151562 1.451811,6.154729 1.443453,6.128205 1.709127,5.423958 0.109794,-0.291042 0.835329,-3.237838 1.612299,-6.548437 l 1.412671,-6.019271 h 2.462245 c 2.452806,0 3.131039,0.287989 1.836949,0.78 -0.343908,0.130754 -0.699471,0.51476 -0.790136,0.853347 -0.09066,0.338588 -0.164716,4.723268 -0.164557,9.743736 2.64e-4,9.465812 0.09175,10.335524 1.107342,10.531112 0.900657,0.17345 1.441767,-0.853591 2.009084,-3.813286 0.303766,-1.584754 1.10068,-5.679337 1.770923,-9.099076 0.734861,-3.749458 1.163841,-6.58532 1.080631,-7.143749 -0.132576,-0.889818 -0.0847,-0.954371 1.22409,-1.650249 0.74914,-0.398311 1.41367,-0.672602 1.47674,-0.609534 0.0631,0.06307 1.1591,4.888831 2.43562,10.723914 2.29218,10.477761 2.65415,11.6442 3.61343,11.6442 0.19573,0 0.35587,0.178594 0.35587,0.396875 0,0.33073 -0.52917,0.396875 -3.175,0.396875 -2.64583,0 -3.175,-0.06614 -3.175,-0.396875 0,-0.218281 0.16402,-0.396875 0.36448,-0.396875 0.91645,0 0.98207,-0.66594 0.35526,-3.605225 l -0.61354,-2.877066 h -1.97069 -1.970688 l -0.504452,2.834153 c -0.539189,3.02932 -0.425902,3.648138 0.667864,3.648138 0.273225,0 0.496771,0.178594 0.496771,0.396875 0,0.339209 -0.749651,0.396875 -5.159375,0.396875 -4.409723,0 -5.159375,-0.05767 -5.159375,-0.396875 0,-0.218281 0.214313,-0.396875 0.47625,-0.396875 1.066522,0 1.11156,-0.339709 1.103204,-8.321145 -0.0044,-4.237021 -0.106846,-7.508049 -0.228219,-7.28927 -0.121097,0.218281 -1.024739,3.671093 -2.008097,7.672916 -0.983356,4.001823 -1.897645,7.394109 -2.031754,7.538413 -0.16006,0.172227 -0.308229,0.156382 -0.431255,-0.04612 -0.103082,-0.169672 -1.020858,-3.649717 -2.039504,-7.733436 -1.018646,-4.083717 -1.94138,-7.426478 -2.050521,-7.428357 -0.10914,-0.0019 -0.196683,3.181509 -0.194537,7.074191 0.0042,7.540473 0.120078,8.321425 1.259493,8.485067 0.323779,0.0465 0.58869,0.25486 0.58869,0.463021 0,0.300207 -0.492429,0.378473 -2.38125,0.378473 -1.85783,0 -2.38125,-0.08093 -2.38125,-0.368191 z m 23.547919,-8.474183 c 0,-0.20664 -0.29842,-1.784218 -0.66316,-3.505729 -0.92086,-4.34631 -0.93423,-4.398946 -1.08082,-4.252364 -0.0719,0.07189 -0.46356,1.931413 -0.870375,4.132262 l -0.739659,4.001539 h 1.677004 c 1.27229,0 1.67701,-0.09067 1.67701,-0.375708 z M 16.25972,74.494258 c 0,-0.145521 0.119062,-0.264584 0.264583,-0.264584 0.145521,0 0.264583,0.119063 0.264583,0.264584 0,0.145521 -0.119062,0.264583 -0.264583,0.264583 -0.145521,0 -0.264583,-0.119062 -0.264583,-0.264583 z m -6.254023,-0.396103 c -0.091432,-0.23827 -0.044016,-0.555442 0.105371,-0.704828 0.431297,-0.431298 1.25386,-0.140616 1.25386,0.443097 0,0.673013 -1.118743,0.888437 -1.359231,0.261731 z m 58.37694,-3.572647 c 0,-0.145521 0.12609,-0.264583 0.2802,-0.264583 0.154109,0 0.206613,0.119062 0.116676,0.264583 -0.08994,0.145521 -0.216027,0.264583 -0.2802,0.264583 -0.06417,0 -0.116676,-0.119062 -0.116676,-0.264583 z M 27.37222,57.957801 c 0,-0.245433 0.248851,-0.396875 0.65215,-0.396875 0.37397,0 0.76898,-0.2183 0.926042,-0.511773 0.174024,-0.32517 0.273532,-3.918752 0.272902,-9.855729 -0.0011,-8.918201 -0.02543,-9.384029 -0.537194,-10.223449 -0.817126,-1.340257 -1.833812,-2.117709 -3.374171,-2.580195 -4.09675,-1.230032 -8.258479,1.853737 -8.258479,6.119389 0,4.788987 5.120232,7.695019 8.092294,4.592851 0.661604,-0.690562 0.771248,-1.012671 0.771248,-2.265751 0,-1.272463 -0.09568,-1.543047 -0.742358,-2.099291 -0.408297,-0.351203 -0.951089,-0.638551 -1.206201,-0.638551 -1.137573,0 -1.946973,1.490628 -1.209725,2.227879 0.570275,0.570275 0.295706,1.211704 -0.518681,1.211704 -1.37564,0 -2.013913,-1.395288 -1.303383,-2.849253 0.674476,-1.380188 2.234219,-1.940247 3.8319,-1.375923 1.543513,0.545193 2.150083,1.464196 2.150083,3.25755 0,2.752862 -1.739818,4.394628 -4.665816,4.402857 -1.932059,0.0054 -3.060753,-0.51498 -4.388575,-2.023465 -1.714878,-1.948203 -2.072933,-5.287753 -0.828474,-7.727094 0.75001,-1.470139 2.632806,-3.069061 4.244182,-3.604273 2.240423,-0.744152 5.839235,-0.462024 8.06146,0.631975 2.053749,1.011055 3.704892,2.77712 4.220885,4.51466 0.201742,0.679338 0.822658,3.162262 1.379815,5.517604 0.557157,2.355345 1.081434,4.282445 1.165061,4.282445 0.151381,0 0.37333,-0.867569 2.250628,-8.797395 l 0.986536,-4.167187 h 2.480601 c 2.028592,0 2.480604,0.07232 2.480604,0.396875 0,0.218281 -0.233937,0.396875 -0.519859,0.396875 -0.285922,0 -0.643109,0.230298 -0.79375,0.511773 -0.373851,0.698547 -0.373851,19.444571 0,20.143119 0.150641,0.281474 0.507828,0.511773 0.79375,0.511773 0.285922,0 0.519859,0.178593 0.519859,0.396875 0,0.330729 -0.529167,0.396875 -3.175,0.396875 -2.645834,0 -3.175,-0.06615 -3.175,-0.396875 0,-0.218282 0.233936,-0.396875 0.519858,-0.396875 0.285922,0 0.64311,-0.230299 0.79375,-0.511773 0.296349,-0.553736 0.400624,-15.578155 0.106074,-15.283602 -0.0923,0.0923 -1.024715,3.564715 -2.072036,7.716479 -1.047319,4.151765 -1.985818,7.630263 -2.08555,7.729995 -0.09973,0.09973 -0.279984,0.07021 -0.400558,-0.06561 -0.120573,-0.135819 -1.030827,-3.461631 -2.022787,-7.390693 -0.991957,-3.929062 -1.899732,-7.322343 -2.017278,-7.540625 -0.117544,-0.218281 -0.217337,2.880617 -0.221761,6.88644 -0.0068,6.172776 0.05476,7.372979 0.403831,7.871354 0.226534,0.323421 0.643252,0.588039 0.926042,0.588039 0.282792,0 0.514164,0.178593 0.514164,0.396875 0,0.324926 -0.45567,0.396875 -2.513541,0.396875 -2.057871,0 -2.513542,-0.07195 -2.513542,-0.396875 z m 17.4625,0.01757 c 0,-0.215461 0.309772,-0.415465 0.71714,-0.463021 0.502963,-0.05872 0.771655,-0.281268 0.899668,-0.745178 0.289711,-1.049879 0.269052,-18.92671 -0.02275,-19.694232 -0.182949,-0.481174 -0.452437,-0.678677 -0.926047,-0.678677 -0.417396,0 -0.668007,-0.148895 -0.668007,-0.396875 0,-0.340178 0.79375,-0.396875 5.55625,-0.396875 h 5.556251 v 2.645833 c 0,3.15442 -0.447673,3.578555 -1.141834,1.081794 -0.581168,-2.090343 -1.316818,-2.669294 -3.391765,-2.669294 h -1.551818 v 4.7625 4.762499 h 0.758068 c 1.167329,0 2.152349,-0.916934 2.152349,-2.003578 0,-0.730448 0.102928,-0.906838 0.529166,-0.906838 0.503034,0 0.529167,0.17639 0.529167,3.571874 0,3.395485 -0.02614,3.571875 -0.529167,3.571875 -0.42596,0 -0.529166,-0.17639 -0.529166,-0.904401 0,-0.497422 -0.07396,-1.097137 -0.164354,-1.332704 -0.198441,-0.517125 -1.454471,-1.202478 -2.203757,-1.202478 -0.528127,0 -0.542306,0.134763 -0.542306,5.154334 v 5.154335 l 0.677439,0.170026 c 0.372592,0.09351 1.176263,0.103132 1.785938,0.02138 1.523497,-0.204301 2.440847,-1.274429 2.868855,-3.346651 0.199293,-0.96488 0.466051,-1.597173 0.673831,-1.597173 0.26135,0 0.343937,0.698859 0.343937,2.910416 v 2.910417 h -5.688542 c -4.76295,0 -5.688542,-0.06172 -5.688542,-0.379302 z m 12.170834,-0.01757 c 0,-0.218282 0.233937,-0.396875 0.519859,-0.396875 1.048699,0 1.103947,-0.642202 1.008319,-11.720771 -0.08738,-10.122357 -0.119946,-10.720575 -0.673799,-12.375395 -0.438552,-1.31032 -2.08149,-4.340034 -2.820799,-5.201793 -0.02902,-0.03382 -0.818838,0.342075 -1.755151,0.835335 -3.597939,1.895432 -8.935704,3.327209 -12.404077,3.327209 -4.776954,0 -9.186265,-2.23475 -10.614099,-5.379492 -1.035349,-2.280304 -0.417783,-5.164637 1.432324,-6.689651 1.684666,-1.388644 3.34069,-1.822566 6.918881,-1.81293 3.650189,0.0098 5.469782,0.431618 8.598958,1.993273 2.347344,1.171474 3.537839,2.012405 5.755273,4.065357 l 1.644097,1.522143 0.996669,-0.609024 c 0.548169,-0.334962 2.058623,-1.303102 3.356568,-2.151416 4.253698,-2.780152 7.377481,-4.391329 10.736977,-5.537899 3.257529,-1.111765 3.361037,-1.128659 6.879167,-1.122785 3.117974,0.0052 3.773609,0.0852 5.159375,0.62952 2.99207,1.175263 4.69469,2.630681 5.739797,4.906446 0.491056,1.069293 0.607319,1.779442 0.60643,3.704167 -0.0011,2.068819 -0.09401,2.557946 -0.709276,3.727984 -0.79669,1.515065 -2.233274,2.895071 -3.614563,3.472209 -0.511958,0.21391 -1.750224,0.387122 -2.767473,0.387122 -1.50367,0 -2.111714,-0.13847 -3.318783,-0.755787 -3.030924,-1.550072 -4.099544,-5.145521 -2.149702,-7.232832 0.615005,-0.658368 0.942581,-0.789321 1.97445,-0.789321 1.014561,0 1.376249,0.139134 2.010513,0.773398 0.883487,0.883483 0.996144,1.853425 0.289545,2.492885 -0.692561,0.626759 -0.993744,0.542394 -0.981784,-0.275015 0.0074,-0.507733 -0.198967,-0.831348 -0.717175,-1.124479 -0.654404,-0.370176 -0.800452,-0.37083 -1.451716,-0.0065 -1.388967,0.776975 -1.46509,2.940298 -0.15812,4.493545 2.960211,3.518011 9.173795,2.021695 10.690662,-2.574456 0.489201,-1.482299 0.184814,-4.469278 -0.614318,-6.028314 -2.724597,-5.315452 -10.111526,-6.419217 -17.79307,-2.65866 -2.050196,1.003689 -11.978707,7.123199 -12.656331,7.800823 -0.138817,0.138817 0.162404,0.882523 0.729702,1.801617 0.960411,1.555991 2.253091,4.805209 2.263757,5.690073 0.0049,0.410398 0.313806,0.463188 2.717559,0.464497 1.491588,7.94e-4 3.161718,0.126368 3.711398,0.279017 1.130615,0.313973 2.687732,1.573723 3.221823,2.606539 1.072758,2.074487 0.620617,5.148072 -1.04326,7.091939 l -0.942607,1.101222 1.484847,4.97709 c 1.435507,4.811697 1.927585,5.903119 2.661475,5.903119 0.800458,0 0.894345,-1.11102 0.894345,-10.583333 0,-6.083829 -0.09959,-9.745868 -0.273891,-10.071559 -0.150641,-0.281475 -0.507829,-0.511773 -0.79375,-0.511773 -0.285922,0 -0.519859,-0.178594 -0.519859,-0.396875 0,-0.33428 0.594656,-0.396643 3.770312,-0.395399 4.30229,0.0016 5.39182,0.225256 6.701478,1.375151 1.371352,1.20406 1.796318,2.193729 1.794738,4.179622 -0.0016,1.904995 -0.901216,4.105513 -1.990524,4.868495 l -0.581665,0.407413 1.389327,4.704233 c 1.611558,5.456703 1.810975,5.937218 2.609694,6.288328 0.326779,0.143647 0.59414,0.411538 0.59414,0.595312 0,0.463907 -4.060484,0.467024 -4.437462,0.0034 -0.147907,-0.181897 -0.83303,-2.47385 -1.522495,-5.093224 -0.689464,-2.619375 -1.371512,-4.911328 -1.515663,-5.093229 -0.14415,-0.181901 -0.664231,-0.330729 -1.155734,-0.330729 l -0.893646,-8e-6 v 4.51531 c 0,4.652414 0.166336,5.538856 1.039334,5.538856 0.270353,0 0.560083,0.178593 0.643847,0.396875 0.131961,0.343889 -0.495752,0.396875 -4.701796,0.396875 -3.567102,0 -4.923582,-0.08769 -5.116182,-0.33073 C 66.718273,57.842045 66.036225,55.550092 65.346761,52.930718 64.657296,50.311343 63.972173,48.01939 63.824266,47.837489 63.676359,47.655588 63.153203,47.50676 62.6617,47.50676 h -0.893646 v 4.579638 c 0,4.77675 0.118261,5.33515 1.168699,5.518353 0.278985,0.04866 0.556797,0.237294 0.617363,0.419195 0.0842,0.252897 -0.673407,0.33073 -3.219223,0.33073 -2.783025,0 -3.329339,-0.06512 -3.329339,-0.396875 z M 64.474652,46.084048 C 66.009433,44.918481 66.536468,40.4779 65.406075,38.236261 64.918114,37.268603 64.60716,36.991293 63.68169,36.698444 61.743784,36.08523 61.768054,36.023759 61.768054,41.545333 v 4.903094 l 1.124479,-0.0084 c 0.618464,-0.0046 1.330418,-0.164812 1.582119,-0.355965 z m 13.531591,-0.437587 c 0.865804,-1.028951 1.220991,-2.335963 1.222835,-4.499784 0.0021,-2.462183 -0.779126,-3.961214 -2.318221,-4.448233 -1.937906,-0.613214 -1.913636,-0.674685 -1.913636,4.846889 v 4.903094 h 1.167106 c 0.97463,0 1.278393,-0.132258 1.841916,-0.801966 z M 44.305554,31.222699 c 1.723167,-0.402026 7.488912,-3.106769 8.73125,-4.095874 l 0.661458,-0.526629 -2.004248,-1.942827 c -3.537029,-3.42864 -7.582183,-5.311518 -12.100179,-5.632214 -5.564616,-0.394989 -9.245373,2.342591 -8.681448,6.456867 0.37337,2.724041 2.511455,4.881464 5.72025,5.771991 1.665623,0.462256 5.626671,0.44609 7.672917,-0.03131 z m -5.21902,-5.477917 c 0.09643,-0.254661 0.05298,-0.463021 -0.09656,-0.463021 -0.149543,0 -0.204595,-0.108894 -0.122341,-0.241985 0.08226,-0.133091 -1.3e-5,-0.302286 -0.182822,-0.375986 -0.182808,-0.0737 -0.0704,-0.143401 0.249788,-0.15489 0.320191,-0.01148 0.71283,-0.229248 0.87253,-0.483909 0.254293,-0.405501 0.271031,-0.391861 0.134747,0.109799 -0.110734,0.407612 0.01915,0.700839 0.450387,1.016685 0.58444,0.42807 0.585814,0.437965 0.03857,0.278093 -0.366972,-0.107206 -0.735627,0.0011 -1.043528,0.306234 -0.445873,0.442037 -0.464968,0.442608 -0.300767,0.009 z m 47.287771,32.213019 c 0,-0.218282 0.214312,-0.396875 0.47625,-0.396875 0.991957,0 1.11125,-0.501513 1.11125,-4.671692 v -4.03669 l -2.134407,-5.892678 c -1.173925,-3.240973 -2.260066,-6.044088 -2.413649,-6.229143 -0.15358,-0.185055 -0.562316,-0.336462 -0.908298,-0.336462 -0.382778,0 -0.629063,-0.155382 -0.629063,-0.396875 0,-0.332425 0.558564,-0.396875 3.439583,-0.396875 2.881019,0 3.439584,0.06445 3.439584,0.396875 0,0.22253 -0.236109,0.396875 -0.53747,0.396875 -0.295611,0 -0.603821,0.1729 -0.684913,0.384225 -0.179605,0.468048 2.856187,9.737565 3.100083,9.46582 0.09515,-0.106016 0.678818,-1.740567 1.29704,-3.632338 1.374632,-4.206403 2.41477,-6.243052 3.789239,-7.419545 3.828544,-3.277092 10.324456,-1.505075 11.587096,3.160844 0.46981,1.736119 0.16256,4.412379 -0.66958,5.832327 -1.04675,1.786149 -2.46378,2.623399 -4.64903,2.746874 -1.998088,0.112903 -2.83129,-0.19727 -4.092093,-1.523343 -0.66168,-0.695936 -0.795723,-1.074799 -0.87426,-2.471018 -0.07337,-1.304451 0.01818,-1.825736 0.438121,-2.494539 1.05786,-1.684766 4.038122,-1.780728 5.304492,-0.170799 1.05308,1.33877 0.42329,3.265241 -1.06745,3.265241 -0.9326,0 -1.26477,-0.601805 -0.66385,-1.202724 0.56407,-0.564071 0.53259,-1.068515 -0.10659,-1.707692 -1.519919,-1.519918 -3.583111,0.676806 -2.92637,3.115762 0.678632,2.520246 3.91359,3.422663 6.39958,1.78521 2.72423,-1.794375 3.1606,-6.750373 0.81223,-9.224682 -2.29499,-2.418064 -5.865047,-2.602973 -8.331913,-0.431548 -1.508718,1.328025 -2.240757,2.750116 -4.142018,8.046454 l -1.601094,4.460166 v 3.912301 c 0,4.425968 0.189576,5.269669 1.184076,5.269669 0.417396,0 0.668007,0.148894 0.668007,0.396875 0,0.33161 -0.543867,0.396875 -3.307292,0.396875 -2.763425,0 -3.307291,-0.06526 -3.307291,-0.396875 z M 105.78487,56.10649 c -0.0914,-0.23827 -0.044,-0.555442 0.10537,-0.704829 0.43129,-0.431297 1.25386,-0.140615 1.25386,0.443098 0,0.673013 -1.11875,0.888436 -1.35923,0.261731 z M 21.190479,53.747111 c 0.154726,-0.679728 0.115964,-0.748419 -0.327094,-0.579639 -0.403172,0.153585 -0.437187,0.12555 -0.171908,-0.141692 0.265052,-0.267012 0.186251,-0.399299 -0.396875,-0.666261 l -0.72759,-0.333099 0.771106,0.16102 c 0.663115,0.138472 0.745641,0.09465 0.589257,-0.312878 -0.148683,-0.387464 -0.113051,-0.416801 0.19535,-0.160851 0.306088,0.254032 0.432165,0.173797 0.668731,-0.425595 l 0.291529,-0.738648 -0.101095,0.749988 c -0.08535,0.633187 -0.02138,0.729138 0.410779,0.616127 0.416129,-0.108821 0.453906,-0.06401 0.201972,0.239554 -0.247933,0.298738 -0.184816,0.427984 0.315609,0.6463 0.608007,0.265247 0.604964,0.270015 -0.108675,0.170368 -0.639514,-0.0893 -0.714047,-0.03032 -0.577983,0.457364 0.120965,0.433557 0.09585,0.472064 -0.111321,0.170669 -0.29003,-0.421949 -0.330766,-0.401881 -0.790082,0.389213 -0.26906,0.46341 -0.285428,0.433345 -0.13171,-0.24194 z m 76.940893,0.410797 c 0.133482,-0.22166 0.07667,-0.449183 -0.147648,-0.591262 -0.301876,-0.191203 -0.296328,-0.233095 0.03225,-0.243416 0.300514,-0.0094 0.268394,-0.11343 -0.132291,-0.428292 -0.523952,-0.411729 -0.523576,-0.414163 0.03827,-0.247187 0.369324,0.10976 0.733653,0.0038 1.043528,-0.303366 0.45702,-0.453088 0.468484,-0.451913 0.286086,0.02928 -0.121889,0.321562 -0.02704,0.681368 0.264551,1.003573 0.422373,0.466714 0.422823,0.490109 0.0064,0.330306 -0.276622,-0.106151 -0.448186,-0.04299 -0.448186,0.165002 0,0.185343 -0.07834,0.258646 -0.174093,0.162893 -0.09575,-0.09575 -0.356732,-0.0263 -0.579956,0.154342 -0.330354,0.26733 -0.365493,0.261398 -0.188884,-0.03188 z M 108.7316,49.09426 c -0.0899,-0.145521 0.0221,-0.264584 0.24896,-0.264584 0.22687,0 0.41249,0.119063 0.41249,0.264584 0,0.14552 -0.11203,0.264583 -0.24896,0.264583 -0.13694,0 -0.32256,-0.119063 -0.41249,-0.264583 z M 12.966395,48.323108 c -0.08519,-0.13784 -0.04211,-0.320318 0.09573,-0.405506 0.13784,-0.08519 0.320317,-0.04211 0.405505,0.09573 0.08519,0.13784 0.04211,0.320318 -0.09573,0.405506 -0.13784,0.08519 -0.320318,0.04211 -0.405506,-0.09573 z M 91.82398,29.584907 c -0.279146,-0.279143 -0.168896,-0.598979 0.206471,-0.598979 0.200461,0 0.492048,0.153715 0.64797,0.341587 0.213497,0.25725 0.16252,0.350698 -0.206471,0.378495 -0.26948,0.02029 -0.561067,-0.0342 -0.64797,-0.121103 z M 63.766396,28.479359 c -0.08519,-0.13784 -0.04211,-0.320318 0.09573,-0.405505 0.13784,-0.08519 0.320317,-0.04211 0.405505,0.09573 0.08519,0.13784 0.04211,0.320318 -0.09573,0.405506 -0.13784,0.08519 -0.320318,0.04211 -0.405506,-0.09573 z m 7.879049,-4.673322 c -0.08809,-0.229565 0.03471,-0.612267 0.272888,-0.850447 0.401016,-0.401018 0.465627,-0.400481 0.873348,0.0072 0.363714,0.363714 0.381087,0.511627 0.09989,0.850444 -0.438756,0.52867 -1.041826,0.525166 -1.246129,-0.0072 z m -19.123888,-5.58738 c 0.0076,-0.262636 0.176927,-1.370489 0.376158,-2.461895 l 0.362241,-1.984375 -1.854084,-1.881174 -1.854083,-1.881174 2.556393,-0.3383517 2.556394,-0.3383518 1.097161,-2.2122446 c 0.603441,-1.2167345 1.163156,-2.2122446 1.243817,-2.2122446 0.08066,0 0.640376,0.9955101 1.243817,2.2122446 l 1.097161,2.2122446 2.556393,0.3383518 2.556394,0.3383517 -1.897716,1.910467 -1.897716,1.910465 0.419793,2.240285 c 0.230883,1.232157 0.419791,2.321589 0.419791,2.420959 0,0.09937 -1.023395,-0.333573 -2.274211,-0.962094 l -2.27421,-1.142767 -2.223706,1.154412 c -1.882262,0.977153 -2.221569,1.08109 -2.209787,0.676891 z m -6.751635,-2.522648 c 0.08446,-0.220102 -0.06164,-0.617234 -0.324673,-0.882515 -0.442778,-0.446567 -0.443905,-0.469332 -0.01521,-0.307002 0.254661,0.09643 0.46302,0.05298 0.46302,-0.09657 0,-0.149542 0.111744,-0.202832 0.248322,-0.118422 0.136578,0.08441 0.383691,-0.05739 0.549143,-0.315116 0.278167,-0.433292 0.288679,-0.430324 0.139594,0.03943 -0.09124,0.287481 -0.01376,0.601581 0.178459,0.723554 0.265629,0.168544 0.256556,0.216421 -0.04161,0.21959 -0.272688,0.0029 -0.235003,0.113351 0.132291,0.387766 0.495848,0.370461 0.492977,0.378523 -0.08313,0.233357 -0.328197,-0.0827 -0.777406,-5.29e-4 -0.998244,0.182875 -0.3317,0.275288 -0.374819,0.263644 -0.247956,-0.06695 z m 20.346866,-0.696431 c 0.133482,-0.22166 0.07667,-0.449183 -0.147648,-0.591262 -0.30539,-0.193432 -0.302681,-0.231608 0.01667,-0.235003 0.272687,-0.0029 0.235003,-0.11335 -0.132292,-0.387765 -0.49117,-0.366964 -0.485873,-0.376717 0.121288,-0.22338 0.446593,0.112787 0.748958,0.01079 1.019553,-0.343888 0.3707,-0.485909 0.378547,-0.483613 0.216035,0.06321 -0.10976,0.369324 -0.0038,0.733653 0.303366,1.043528 0.442037,0.445873 0.442608,0.464968 0.009,0.300767 -0.326334,-0.123571 -0.469188,-0.04109 -0.483909,0.279387 -0.01349,0.29356 -0.06949,0.333589 -0.15802,0.112945 -0.11207,-0.279307 -0.214249,-0.279307 -0.559067,0 -0.348975,0.282676 -0.384416,0.279469 -0.204957,-0.01855 z"
       id="path430" /></g></svg>
